<?xml version="1.0" encoding="UTF-8" standalone="no"?><svg xmlns="http://www.w3.org/2000/svg" xmlns:xlink="http://www.w3.org/1999/xlink" contentStyleType="text/css" height="337px" preserveAspectRatio="none" style="width:1689px;height:337px;background:#FFFFFF;" version="1.1" viewBox="0 0 1689 337" width="1689px" zoomAndPan="magnify"><defs/><g><rect height="26.2969" id="_title" style="stroke:#00000000;stroke-width:1.0;fill:none;" width="203" x="736.25" y="5"/><text fill="#000000" font-family="sans-serif" font-size="14" font-weight="bold" lengthAdjust="spacing" textLength="193" x="741.25" y="22.9951">Classes - Class Diagram</text><!--MD5=[3124add794188d75953438ffc4835d72]
class CLI--><g id="elem_CLI"><rect codeLine="3" fill="#F1F1F1" height="48" id="CLI" rx="2.5" ry="2.5" style="stroke:#181818;stroke-width:0.5;" width="54" x="46" y="68.7969"/><ellipse cx="61" cy="84.7969" fill="#ADD1B2" rx="11" ry="11" style="stroke:#181818;stroke-width:1.0;"/><path d="M63.3438,80.4688 C62.4063,80.0313 61.8125,79.8906 60.9375,79.8906 C58.3125,79.8906 56.3125,81.9688 56.3125,84.6875 L56.3125,85.8125 C56.3125,88.3906 58.4219,90.2813 61.3125,90.2813 C62.5313,90.2813 63.6875,89.9844 64.4375,89.4375 C65.0156,89.0313 65.3438,88.5781 65.3438,88.1875 C65.3438,87.7344 64.9531,87.3438 64.4844,87.3438 C64.2656,87.3438 64.0625,87.4219 63.875,87.6094 C63.4219,88.0938 63.4219,88.0938 63.2344,88.1875 C62.8125,88.4531 62.125,88.5781 61.3594,88.5781 C59.3125,88.5781 58.0156,87.4844 58.0156,85.7813 L58.0156,84.6875 C58.0156,82.9063 59.2656,81.5938 61,81.5938 C61.5781,81.5938 62.1875,81.75 62.6563,82 C63.1406,82.2813 63.3125,82.5 63.4063,82.9063 C63.4688,83.3125 63.5,83.4375 63.6406,83.5625 C63.7813,83.7031 64.0156,83.8125 64.2344,83.8125 C64.5,83.8125 64.7656,83.6719 64.9375,83.4531 C65.0469,83.2969 65.0781,83.1094 65.0781,82.6875 L65.0781,81.2656 C65.0781,80.8281 65.0625,80.7031 64.9688,80.5469 C64.8125,80.2813 64.5313,80.1406 64.2344,80.1406 C63.9375,80.1406 63.7344,80.2344 63.5156,80.5469 L63.3438,80.4688 Z " fill="#000000"/><text fill="#000000" font-family="sans-serif" font-size="14" lengthAdjust="spacing" textLength="22" x="75" y="89.6436">CLI</text><line style="stroke:#181818;stroke-width:0.5;" x1="47" x2="99" y1="100.7969" y2="100.7969"/><line style="stroke:#181818;stroke-width:0.5;" x1="47" x2="99" y1="108.7969" y2="108.7969"/></g><!--MD5=[815cba82121cd92ef12113cfa2e60c03]
class Website--><g id="elem_Website"><rect codeLine="7" fill="#F1F1F1" height="96.8906" id="Website" rx="2.5" ry="2.5" style="stroke:#181818;stroke-width:0.5;" width="283" x="550.5" y="44.2969"/><ellipse cx="657.75" cy="60.2969" fill="#ADD1B2" rx="11" ry="11" style="stroke:#181818;stroke-width:1.0;"/><path d="M660.0938,55.9688 C659.1563,55.5313 658.5625,55.3906 657.6875,55.3906 C655.0625,55.3906 653.0625,57.4688 653.0625,60.1875 L653.0625,61.3125 C653.0625,63.8906 655.1719,65.7813 658.0625,65.7813 C659.2813,65.7813 660.4375,65.4844 661.1875,64.9375 C661.7656,64.5313 662.0938,64.0781 662.0938,63.6875 C662.0938,63.2344 661.7031,62.8438 661.2344,62.8438 C661.0156,62.8438 660.8125,62.9219 660.625,63.1094 C660.1719,63.5938 660.1719,63.5938 659.9844,63.6875 C659.5625,63.9531 658.875,64.0781 658.1094,64.0781 C656.0625,64.0781 654.7656,62.9844 654.7656,61.2813 L654.7656,60.1875 C654.7656,58.4063 656.0156,57.0938 657.75,57.0938 C658.3281,57.0938 658.9375,57.25 659.4063,57.5 C659.8906,57.7813 660.0625,58 660.1563,58.4063 C660.2188,58.8125 660.25,58.9375 660.3906,59.0625 C660.5313,59.2031 660.7656,59.3125 660.9844,59.3125 C661.25,59.3125 661.5156,59.1719 661.6875,58.9531 C661.7969,58.7969 661.8281,58.6094 661.8281,58.1875 L661.8281,56.7656 C661.8281,56.3281 661.8125,56.2031 661.7188,56.0469 C661.5625,55.7813 661.2813,55.6406 660.9844,55.6406 C660.6875,55.6406 660.4844,55.7344 660.2656,56.0469 L660.0938,55.9688 Z " fill="#000000"/><text fill="#000000" font-family="sans-serif" font-size="14" lengthAdjust="spacing" textLength="60" x="678.25" y="65.1436">Website</text><line style="stroke:#181818;stroke-width:0.5;" x1="551.5" x2="832.5" y1="76.2969" y2="76.2969"/><text fill="#000000" font-family="sans-serif" font-size="14" lengthAdjust="spacing" textLength="103" x="556.5" y="93.292">Path localPath</text><text fill="#000000" font-family="sans-serif" font-size="14" lengthAdjust="spacing" textLength="187" x="556.5" y="109.5889">Collection&lt;URL&gt; siteURLs</text><text fill="#000000" font-family="sans-serif" font-size="14" lengthAdjust="spacing" textLength="271" x="556.5" y="125.8857">Collection&lt;HTMLDocument&gt; allPages</text><line style="stroke:#181818;stroke-width:0.5;" x1="551.5" x2="832.5" y1="133.1875" y2="133.1875"/></g><!--MD5=[bcf420f74c3688e6b767ba4d026321a0]
class HTMLDocument--><g id="elem_HTMLDocument"><rect codeLine="13" fill="#F1F1F1" height="129.4844" id="HTMLDocument" rx="2.5" ry="2.5" style="stroke:#181818;stroke-width:0.5;" width="233" x="606.5" y="201.2969"/><ellipse cx="661.75" cy="217.2969" fill="#ADD1B2" rx="11" ry="11" style="stroke:#181818;stroke-width:1.0;"/><path d="M664.0938,212.9688 C663.1563,212.5313 662.5625,212.3906 661.6875,212.3906 C659.0625,212.3906 657.0625,214.4688 657.0625,217.1875 L657.0625,218.3125 C657.0625,220.8906 659.1719,222.7813 662.0625,222.7813 C663.2813,222.7813 664.4375,222.4844 665.1875,221.9375 C665.7656,221.5313 666.0938,221.0781 666.0938,220.6875 C666.0938,220.2344 665.7031,219.8438 665.2344,219.8438 C665.0156,219.8438 664.8125,219.9219 664.625,220.1094 C664.1719,220.5938 664.1719,220.5938 663.9844,220.6875 C663.5625,220.9531 662.875,221.0781 662.1094,221.0781 C660.0625,221.0781 658.7656,219.9844 658.7656,218.2813 L658.7656,217.1875 C658.7656,215.4063 660.0156,214.0938 661.75,214.0938 C662.3281,214.0938 662.9375,214.25 663.4063,214.5 C663.8906,214.7813 664.0625,215 664.1563,215.4063 C664.2188,215.8125 664.25,215.9375 664.3906,216.0625 C664.5313,216.2031 664.7656,216.3125 664.9844,216.3125 C665.25,216.3125 665.5156,216.1719 665.6875,215.9531 C665.7969,215.7969 665.8281,215.6094 665.8281,215.1875 L665.8281,213.7656 C665.8281,213.3281 665.8125,213.2031 665.7188,213.0469 C665.5625,212.7813 665.2813,212.6406 664.9844,212.6406 C664.6875,212.6406 664.4844,212.7344 664.2656,213.0469 L664.0938,212.9688 Z " fill="#000000"/><text fill="#000000" font-family="sans-serif" font-size="14" lengthAdjust="spacing" textLength="114" x="682.25" y="222.1436">HTMLDocument</text><line style="stroke:#181818;stroke-width:0.5;" x1="607.5" x2="838.5" y1="233.2969" y2="233.2969"/><text fill="#000000" font-family="sans-serif" font-size="14" lengthAdjust="spacing" textLength="103" x="612.5" y="250.292">Path localPath</text><text fill="#000000" font-family="sans-serif" font-size="14" lengthAdjust="spacing" textLength="221" x="612.5" y="266.5889">Collection&lt;StyleSheet&gt; styles</text><text fill="#000000" font-family="sans-serif" font-size="14" lengthAdjust="spacing" textLength="220" x="612.5" y="282.8857">Collection&lt;JavaScript&gt; scripts</text><text fill="#000000" font-family="sans-serif" font-size="14" lengthAdjust="spacing" textLength="183" x="612.5" y="299.1826">Collection&lt;Anchor&gt; links</text><text fill="#000000" font-family="sans-serif" font-size="14" lengthAdjust="spacing" textLength="194" x="612.5" y="315.4795">Collection&lt;Image&gt; images</text><line style="stroke:#181818;stroke-width:0.5;" x1="607.5" x2="838.5" y1="322.7813" y2="322.7813"/></g><!--MD5=[60c9ed31c535bee25c55ce21b5b01399]
class Data--><g id="elem_Data"><rect codeLine="22" fill="#F1F1F1" height="48" id="Data" rx="2.5" ry="2.5" style="stroke:#181818;stroke-width:0.5;" width="66" x="1056" y="68.7969"/><ellipse cx="1071" cy="84.7969" fill="#ADD1B2" rx="11" ry="11" style="stroke:#181818;stroke-width:1.0;"/><path d="M1073.3438,80.4688 C1072.4063,80.0313 1071.8125,79.8906 1070.9375,79.8906 C1068.3125,79.8906 1066.3125,81.9688 1066.3125,84.6875 L1066.3125,85.8125 C1066.3125,88.3906 1068.4219,90.2813 1071.3125,90.2813 C1072.5313,90.2813 1073.6875,89.9844 1074.4375,89.4375 C1075.0156,89.0313 1075.3438,88.5781 1075.3438,88.1875 C1075.3438,87.7344 1074.9531,87.3438 1074.4844,87.3438 C1074.2656,87.3438 1074.0625,87.4219 1073.875,87.6094 C1073.4219,88.0938 1073.4219,88.0938 1073.2344,88.1875 C1072.8125,88.4531 1072.125,88.5781 1071.3594,88.5781 C1069.3125,88.5781 1068.0156,87.4844 1068.0156,85.7813 L1068.0156,84.6875 C1068.0156,82.9063 1069.2656,81.5938 1071,81.5938 C1071.5781,81.5938 1072.1875,81.75 1072.6563,82 C1073.1406,82.2813 1073.3125,82.5 1073.4063,82.9063 C1073.4688,83.3125 1073.5,83.4375 1073.6406,83.5625 C1073.7813,83.7031 1074.0156,83.8125 1074.2344,83.8125 C1074.5,83.8125 1074.7656,83.6719 1074.9375,83.4531 C1075.0469,83.2969 1075.0781,83.1094 1075.0781,82.6875 L1075.0781,81.2656 C1075.0781,80.8281 1075.0625,80.7031 1074.9688,80.5469 C1074.8125,80.2813 1074.5313,80.1406 1074.2344,80.1406 C1073.9375,80.1406 1073.7344,80.2344 1073.5156,80.5469 L1073.3438,80.4688 Z " fill="#000000"/><text fill="#000000" font-family="sans-serif" font-size="14" lengthAdjust="spacing" textLength="34" x="1085" y="89.6436">Data</text><line style="stroke:#181818;stroke-width:0.5;" x1="1057" x2="1121" y1="100.7969" y2="100.7969"/><line style="stroke:#181818;stroke-width:0.5;" x1="1057" x2="1121" y1="108.7969" y2="108.7969"/></g><!--MD5=[338ce9c25d678ef035e38d1a80dfcd29]
class Stylesheet--><g id="elem_Stylesheet"><rect codeLine="26" fill="#F1F1F1" height="48" id="Stylesheet" rx="2.5" ry="2.5" style="stroke:#181818;stroke-width:0.5;" width="110" x="906" y="241.7969"/><ellipse cx="921" cy="257.7969" fill="#ADD1B2" rx="11" ry="11" style="stroke:#181818;stroke-width:1.0;"/><path d="M923.3438,253.4688 C922.4063,253.0313 921.8125,252.8906 920.9375,252.8906 C918.3125,252.8906 916.3125,254.9688 916.3125,257.6875 L916.3125,258.8125 C916.3125,261.3906 918.4219,263.2813 921.3125,263.2813 C922.5313,263.2813 923.6875,262.9844 924.4375,262.4375 C925.0156,262.0313 925.3438,261.5781 925.3438,261.1875 C925.3438,260.7344 924.9531,260.3438 924.4844,260.3438 C924.2656,260.3438 924.0625,260.4219 923.875,260.6094 C923.4219,261.0938 923.4219,261.0938 923.2344,261.1875 C922.8125,261.4531 922.125,261.5781 921.3594,261.5781 C919.3125,261.5781 918.0156,260.4844 918.0156,258.7813 L918.0156,257.6875 C918.0156,255.9063 919.2656,254.5938 921,254.5938 C921.5781,254.5938 922.1875,254.75 922.6563,255 C923.1406,255.2813 923.3125,255.5 923.4063,255.9063 C923.4688,256.3125 923.5,256.4375 923.6406,256.5625 C923.7813,256.7031 924.0156,256.8125 924.2344,256.8125 C924.5,256.8125 924.7656,256.6719 924.9375,256.4531 C925.0469,256.2969 925.0781,256.1094 925.0781,255.6875 L925.0781,254.2656 C925.0781,253.8281 925.0625,253.7031 924.9688,253.5469 C924.8125,253.2813 924.5313,253.1406 924.2344,253.1406 C923.9375,253.1406 923.7344,253.2344 923.5156,253.5469 L923.3438,253.4688 Z " fill="#000000"/><text fill="#000000" font-family="sans-serif" font-size="14" lengthAdjust="spacing" textLength="78" x="935" y="262.6436">Stylesheet</text><line style="stroke:#181818;stroke-width:0.5;" x1="907" x2="1015" y1="273.7969" y2="273.7969"/><line style="stroke:#181818;stroke-width:0.5;" x1="907" x2="1015" y1="281.7969" y2="281.7969"/></g><!--MD5=[d0d7b0900e371541ba11cbff692d2bc7]
class Script--><g id="elem_Script"><rect codeLine="30" fill="#F1F1F1" height="48" id="Script" rx="2.5" ry="2.5" style="stroke:#181818;stroke-width:0.5;" width="76" x="1051" y="241.7969"/><ellipse cx="1066" cy="257.7969" fill="#ADD1B2" rx="11" ry="11" style="stroke:#181818;stroke-width:1.0;"/><path d="M1068.3438,253.4688 C1067.4063,253.0313 1066.8125,252.8906 1065.9375,252.8906 C1063.3125,252.8906 1061.3125,254.9688 1061.3125,257.6875 L1061.3125,258.8125 C1061.3125,261.3906 1063.4219,263.2813 1066.3125,263.2813 C1067.5313,263.2813 1068.6875,262.9844 1069.4375,262.4375 C1070.0156,262.0313 1070.3438,261.5781 1070.3438,261.1875 C1070.3438,260.7344 1069.9531,260.3438 1069.4844,260.3438 C1069.2656,260.3438 1069.0625,260.4219 1068.875,260.6094 C1068.4219,261.0938 1068.4219,261.0938 1068.2344,261.1875 C1067.8125,261.4531 1067.125,261.5781 1066.3594,261.5781 C1064.3125,261.5781 1063.0156,260.4844 1063.0156,258.7813 L1063.0156,257.6875 C1063.0156,255.9063 1064.2656,254.5938 1066,254.5938 C1066.5781,254.5938 1067.1875,254.75 1067.6563,255 C1068.1406,255.2813 1068.3125,255.5 1068.4063,255.9063 C1068.4688,256.3125 1068.5,256.4375 1068.6406,256.5625 C1068.7813,256.7031 1069.0156,256.8125 1069.2344,256.8125 C1069.5,256.8125 1069.7656,256.6719 1069.9375,256.4531 C1070.0469,256.2969 1070.0781,256.1094 1070.0781,255.6875 L1070.0781,254.2656 C1070.0781,253.8281 1070.0625,253.7031 1069.9688,253.5469 C1069.8125,253.2813 1069.5313,253.1406 1069.2344,253.1406 C1068.9375,253.1406 1068.7344,253.2344 1068.5156,253.5469 L1068.3438,253.4688 Z " fill="#000000"/><text fill="#000000" font-family="sans-serif" font-size="14" lengthAdjust="spacing" textLength="44" x="1080" y="262.6436">Script</text><line style="stroke:#181818;stroke-width:0.5;" x1="1052" x2="1126" y1="273.7969" y2="273.7969"/><line style="stroke:#181818;stroke-width:0.5;" x1="1052" x2="1126" y1="281.7969" y2="281.7969"/></g><!--MD5=[964f074a2dd77d134c21b891bb53e381]
class Image--><g id="elem_Image"><rect codeLine="34" fill="#F1F1F1" height="48" id="Image" rx="2.5" ry="2.5" style="stroke:#181818;stroke-width:0.5;" width="76" x="1162" y="241.7969"/><ellipse cx="1177" cy="257.7969" fill="#ADD1B2" rx="11" ry="11" style="stroke:#181818;stroke-width:1.0;"/><path d="M1179.3438,253.4688 C1178.4063,253.0313 1177.8125,252.8906 1176.9375,252.8906 C1174.3125,252.8906 1172.3125,254.9688 1172.3125,257.6875 L1172.3125,258.8125 C1172.3125,261.3906 1174.4219,263.2813 1177.3125,263.2813 C1178.5313,263.2813 1179.6875,262.9844 1180.4375,262.4375 C1181.0156,262.0313 1181.3438,261.5781 1181.3438,261.1875 C1181.3438,260.7344 1180.9531,260.3438 1180.4844,260.3438 C1180.2656,260.3438 1180.0625,260.4219 1179.875,260.6094 C1179.4219,261.0938 1179.4219,261.0938 1179.2344,261.1875 C1178.8125,261.4531 1178.125,261.5781 1177.3594,261.5781 C1175.3125,261.5781 1174.0156,260.4844 1174.0156,258.7813 L1174.0156,257.6875 C1174.0156,255.9063 1175.2656,254.5938 1177,254.5938 C1177.5781,254.5938 1178.1875,254.75 1178.6563,255 C1179.1406,255.2813 1179.3125,255.5 1179.4063,255.9063 C1179.4688,256.3125 1179.5,256.4375 1179.6406,256.5625 C1179.7813,256.7031 1180.0156,256.8125 1180.2344,256.8125 C1180.5,256.8125 1180.7656,256.6719 1180.9375,256.4531 C1181.0469,256.2969 1181.0781,256.1094 1181.0781,255.6875 L1181.0781,254.2656 C1181.0781,253.8281 1181.0625,253.7031 1180.9688,253.5469 C1180.8125,253.2813 1180.5313,253.1406 1180.2344,253.1406 C1179.9375,253.1406 1179.7344,253.2344 1179.5156,253.5469 L1179.3438,253.4688 Z " fill="#000000"/><text fill="#000000" font-family="sans-serif" font-size="14" lengthAdjust="spacing" textLength="44" x="1191" y="262.6436">Image</text><line style="stroke:#181818;stroke-width:0.5;" x1="1163" x2="1237" y1="273.7969" y2="273.7969"/><line style="stroke:#181818;stroke-width:0.5;" x1="1163" x2="1237" y1="281.7969" y2="281.7969"/></g><!--MD5=[8ec9fcce0f5c660aa28fe128722bc749]
class Anchor--><g id="elem_Anchor"><rect codeLine="38" fill="#F1F1F1" height="96.8906" id="Anchor" rx="2.5" ry="2.5" style="stroke:#181818;stroke-width:0.5;" width="218" x="135" y="44.2969"/><ellipse cx="214.25" cy="60.2969" fill="#ADD1B2" rx="11" ry="11" style="stroke:#181818;stroke-width:1.0;"/><path d="M216.5938,55.9688 C215.6563,55.5313 215.0625,55.3906 214.1875,55.3906 C211.5625,55.3906 209.5625,57.4688 209.5625,60.1875 L209.5625,61.3125 C209.5625,63.8906 211.6719,65.7813 214.5625,65.7813 C215.7813,65.7813 216.9375,65.4844 217.6875,64.9375 C218.2656,64.5313 218.5938,64.0781 218.5938,63.6875 C218.5938,63.2344 218.2031,62.8438 217.7344,62.8438 C217.5156,62.8438 217.3125,62.9219 217.125,63.1094 C216.6719,63.5938 216.6719,63.5938 216.4844,63.6875 C216.0625,63.9531 215.375,64.0781 214.6094,64.0781 C212.5625,64.0781 211.2656,62.9844 211.2656,61.2813 L211.2656,60.1875 C211.2656,58.4063 212.5156,57.0938 214.25,57.0938 C214.8281,57.0938 215.4375,57.25 215.9063,57.5 C216.3906,57.7813 216.5625,58 216.6563,58.4063 C216.7188,58.8125 216.75,58.9375 216.8906,59.0625 C217.0313,59.2031 217.2656,59.3125 217.4844,59.3125 C217.75,59.3125 218.0156,59.1719 218.1875,58.9531 C218.2969,58.7969 218.3281,58.6094 218.3281,58.1875 L218.3281,56.7656 C218.3281,56.3281 218.3125,56.2031 218.2188,56.0469 C218.0625,55.7813 217.7813,55.6406 217.4844,55.6406 C217.1875,55.6406 216.9844,55.7344 216.7656,56.0469 L216.5938,55.9688 Z " fill="#000000"/><text fill="#000000" font-family="sans-serif" font-size="14" lengthAdjust="spacing" textLength="51" x="234.75" y="65.1436">Anchor</text><line style="stroke:#181818;stroke-width:0.5;" x1="136" x2="352" y1="76.2969" y2="76.2969"/><text fill="#000000" font-family="sans-serif" font-size="14" lengthAdjust="spacing" textLength="61" x="141" y="93.292">URI path</text><text fill="#000000" font-family="sans-serif" font-size="14" lengthAdjust="spacing" textLength="161" x="141" y="109.5889">Classification linkType</text><text fill="#000000" font-family="sans-serif" font-size="14" lengthAdjust="spacing" textLength="206" x="141" y="125.8857">TargetType destinationType</text><line style="stroke:#181818;stroke-width:0.5;" x1="136" x2="352" y1="133.1875" y2="133.1875"/></g><!--MD5=[9c239722e256878d27dcbb07783cc14f]
class Classification--><g id="elem_Classification"><rect codeLine="44" fill="#F1F1F1" height="96.8906" id="Classification" rx="2.5" ry="2.5" style="stroke:#181818;stroke-width:0.5;" width="127" x="388.5" y="44.2969"/><ellipse cx="403.5" cy="60.2969" fill="#EB937F" rx="11" ry="11" style="stroke:#181818;stroke-width:1.0;"/><path d="M402.2969,61.1719 L403.75,61.1719 L403.75,61.2813 C403.75,61.6875 403.7813,61.8438 403.8594,62 C404.0156,62.25 404.2969,62.4063 404.5938,62.4063 C404.8438,62.4063 405.1094,62.2656 405.2656,62.0469 C405.3906,61.8906 405.4219,61.7344 405.4219,61.2813 L405.4219,59.3594 C405.4219,59.2031 405.4219,59.1563 405.4063,59 C405.3438,58.5313 405.0313,58.2188 404.5781,58.2188 C404.3281,58.2188 404.0625,58.3594 403.8906,58.5781 C403.7813,58.75 403.75,58.9063 403.75,59.3594 L403.75,59.4844 L402.2969,59.4844 L402.2969,57.0781 L406.2813,57.0781 L406.2813,57.9375 C406.2813,58.3438 406.3125,58.5156 406.3906,58.6719 C406.5625,58.9219 406.8438,59.0781 407.125,59.0781 C407.3906,59.0781 407.6563,58.9375 407.8281,58.7188 C407.9375,58.5469 407.9688,58.4063 407.9688,57.9375 L407.9688,55.3906 L400.3438,55.3906 C399.9063,55.3906 399.7813,55.4063 399.625,55.5 C399.375,55.6563 399.2188,55.9531 399.2188,56.2344 C399.2188,56.5156 399.3594,56.7656 399.5781,56.9375 C399.7344,57.0469 399.9219,57.0781 400.3438,57.0781 L400.5938,57.0781 L400.5938,63.5938 L400.3438,63.5938 C399.9375,63.5938 399.7813,63.6094 399.625,63.7188 C399.375,63.8906 399.2188,64.1563 399.2188,64.4531 C399.2188,64.7188 399.3594,64.9688 399.5781,65.125 C399.7188,65.25 399.9531,65.2969 400.3438,65.2969 L408.3438,65.2969 L408.3438,62.7188 C408.3438,62.2813 408.3125,62.1406 408.2344,61.9844 C408.0625,61.7344 407.7813,61.5781 407.5,61.5781 C407.2344,61.5781 406.9688,61.6875 406.7969,61.9375 C406.6875,62.0938 406.6563,62.2344 406.6563,62.7188 L406.6563,63.5938 L402.2969,63.5938 L402.2969,61.1719 Z " fill="#000000"/><text fill="#000000" font-family="sans-serif" font-size="14" lengthAdjust="spacing" textLength="95" x="417.5" y="65.1436">Classification</text><line style="stroke:#181818;stroke-width:0.5;" x1="389.5" x2="514.5" y1="76.2969" y2="76.2969"/><text fill="#000000" font-family="sans-serif" font-size="14" lengthAdjust="spacing" textLength="70" x="394.5" y="93.292">INTERNAL</text><text fill="#000000" font-family="sans-serif" font-size="14" lengthAdjust="spacing" textLength="82" x="394.5" y="109.5889">INTRAPAGE</text><text fill="#000000" font-family="sans-serif" font-size="14" lengthAdjust="spacing" textLength="75" x="394.5" y="125.8857">EXTERNAL</text><line style="stroke:#181818;stroke-width:0.5;" x1="389.5" x2="514.5" y1="133.1875" y2="133.1875"/></g><!--MD5=[6b88c977c6356073eb6ff477a844f5ef]
class TargetType--><g id="elem_TargetType"><rect codeLine="50" fill="#F1F1F1" height="113.1875" id="TargetType" rx="2.5" ry="2.5" style="stroke:#181818;stroke-width:0.5;" width="132" x="7" y="209.2969"/><ellipse cx="29.2" cy="225.2969" fill="#EB937F" rx="11" ry="11" style="stroke:#181818;stroke-width:1.0;"/><path d="M27.9969,226.1719 L29.45,226.1719 L29.45,226.2813 C29.45,226.6875 29.4813,226.8438 29.5594,227 C29.7156,227.25 29.9969,227.4063 30.2938,227.4063 C30.5438,227.4063 30.8094,227.2656 30.9656,227.0469 C31.0906,226.8906 31.1219,226.7344 31.1219,226.2813 L31.1219,224.3594 C31.1219,224.2031 31.1219,224.1563 31.1063,224 C31.0438,223.5313 30.7313,223.2188 30.2781,223.2188 C30.0281,223.2188 29.7625,223.3594 29.5906,223.5781 C29.4813,223.75 29.45,223.9063 29.45,224.3594 L29.45,224.4844 L27.9969,224.4844 L27.9969,222.0781 L31.9813,222.0781 L31.9813,222.9375 C31.9813,223.3438 32.0125,223.5156 32.0906,223.6719 C32.2625,223.9219 32.5438,224.0781 32.825,224.0781 C33.0906,224.0781 33.3563,223.9375 33.5281,223.7188 C33.6375,223.5469 33.6688,223.4063 33.6688,222.9375 L33.6688,220.3906 L26.0438,220.3906 C25.6063,220.3906 25.4813,220.4063 25.325,220.5 C25.075,220.6563 24.9188,220.9531 24.9188,221.2344 C24.9188,221.5156 25.0594,221.7656 25.2781,221.9375 C25.4344,222.0469 25.6219,222.0781 26.0438,222.0781 L26.2938,222.0781 L26.2938,228.5938 L26.0438,228.5938 C25.6375,228.5938 25.4813,228.6094 25.325,228.7188 C25.075,228.8906 24.9188,229.1563 24.9188,229.4531 C24.9188,229.7188 25.0594,229.9688 25.2781,230.125 C25.4188,230.25 25.6531,230.2969 26.0438,230.2969 L34.0438,230.2969 L34.0438,227.7188 C34.0438,227.2813 34.0125,227.1406 33.9344,226.9844 C33.7625,226.7344 33.4813,226.5781 33.2,226.5781 C32.9344,226.5781 32.6688,226.6875 32.4969,226.9375 C32.3875,227.0938 32.3563,227.2344 32.3563,227.7188 L32.3563,228.5938 L27.9969,228.5938 L27.9969,226.1719 Z " fill="#000000"/><text fill="#000000" font-family="sans-serif" font-size="14" lengthAdjust="spacing" textLength="84" x="44.8" y="230.1436">TargetType</text><line style="stroke:#181818;stroke-width:0.5;" x1="8" x2="138" y1="241.2969" y2="241.2969"/><text fill="#000000" font-family="sans-serif" font-size="14" lengthAdjust="spacing" textLength="120" x="13" y="258.292">HTMLDOCUMENT</text><text fill="#000000" font-family="sans-serif" font-size="14" lengthAdjust="spacing" textLength="63" x="13" y="274.5889">ARCHIVE</text><text fill="#000000" font-family="sans-serif" font-size="14" lengthAdjust="spacing" textLength="45" x="13" y="290.8857">VIDEO</text><text fill="#000000" font-family="sans-serif" font-size="14" lengthAdjust="spacing" textLength="45" x="13" y="307.1826">AUDIO</text><line style="stroke:#181818;stroke-width:0.5;" x1="8" x2="138" y1="314.4844" y2="314.4844"/></g><!--MD5=[7c190b8b1dfe1b6e4fe2dd41dafb8a73]
class DocumentParser--><g id="elem_DocumentParser"><rect codeLine="57" fill="#F1F1F1" height="48" id="DocumentParser" rx="2.5" ry="2.5" style="stroke:#181818;stroke-width:0.5;" width="152" x="869" y="68.7969"/><ellipse cx="884" cy="84.7969" fill="#ADD1B2" rx="11" ry="11" style="stroke:#181818;stroke-width:1.0;"/><path d="M886.3438,80.4688 C885.4063,80.0313 884.8125,79.8906 883.9375,79.8906 C881.3125,79.8906 879.3125,81.9688 879.3125,84.6875 L879.3125,85.8125 C879.3125,88.3906 881.4219,90.2813 884.3125,90.2813 C885.5313,90.2813 886.6875,89.9844 887.4375,89.4375 C888.0156,89.0313 888.3438,88.5781 888.3438,88.1875 C888.3438,87.7344 887.9531,87.3438 887.4844,87.3438 C887.2656,87.3438 887.0625,87.4219 886.875,87.6094 C886.4219,88.0938 886.4219,88.0938 886.2344,88.1875 C885.8125,88.4531 885.125,88.5781 884.3594,88.5781 C882.3125,88.5781 881.0156,87.4844 881.0156,85.7813 L881.0156,84.6875 C881.0156,82.9063 882.2656,81.5938 884,81.5938 C884.5781,81.5938 885.1875,81.75 885.6563,82 C886.1406,82.2813 886.3125,82.5 886.4063,82.9063 C886.4688,83.3125 886.5,83.4375 886.6406,83.5625 C886.7813,83.7031 887.0156,83.8125 887.2344,83.8125 C887.5,83.8125 887.7656,83.6719 887.9375,83.4531 C888.0469,83.2969 888.0781,83.1094 888.0781,82.6875 L888.0781,81.2656 C888.0781,80.8281 888.0625,80.7031 887.9688,80.5469 C887.8125,80.2813 887.5313,80.1406 887.2344,80.1406 C886.9375,80.1406 886.7344,80.2344 886.5156,80.5469 L886.3438,80.4688 Z " fill="#000000"/><text fill="#000000" font-family="sans-serif" font-size="14" lengthAdjust="spacing" textLength="120" x="898" y="89.6436">DocumentParser</text><line style="stroke:#181818;stroke-width:0.5;" x1="870" x2="1020" y1="100.7969" y2="100.7969"/><line style="stroke:#181818;stroke-width:0.5;" x1="870" x2="1020" y1="108.7969" y2="108.7969"/></g><!--MD5=[8d026b3fc0bdbb692efad180ad9bcbdb]
class WebsiteWalker--><g id="elem_WebsiteWalker"><rect codeLine="61" fill="#F1F1F1" height="48" id="WebsiteWalker" rx="2.5" ry="2.5" style="stroke:#181818;stroke-width:0.5;" width="142" x="174" y="241.7969"/><ellipse cx="189" cy="257.7969" fill="#ADD1B2" rx="11" ry="11" style="stroke:#181818;stroke-width:1.0;"/><path d="M191.3438,253.4688 C190.4063,253.0313 189.8125,252.8906 188.9375,252.8906 C186.3125,252.8906 184.3125,254.9688 184.3125,257.6875 L184.3125,258.8125 C184.3125,261.3906 186.4219,263.2813 189.3125,263.2813 C190.5313,263.2813 191.6875,262.9844 192.4375,262.4375 C193.0156,262.0313 193.3438,261.5781 193.3438,261.1875 C193.3438,260.7344 192.9531,260.3438 192.4844,260.3438 C192.2656,260.3438 192.0625,260.4219 191.875,260.6094 C191.4219,261.0938 191.4219,261.0938 191.2344,261.1875 C190.8125,261.4531 190.125,261.5781 189.3594,261.5781 C187.3125,261.5781 186.0156,260.4844 186.0156,258.7813 L186.0156,257.6875 C186.0156,255.9063 187.2656,254.5938 189,254.5938 C189.5781,254.5938 190.1875,254.75 190.6563,255 C191.1406,255.2813 191.3125,255.5 191.4063,255.9063 C191.4688,256.3125 191.5,256.4375 191.6406,256.5625 C191.7813,256.7031 192.0156,256.8125 192.2344,256.8125 C192.5,256.8125 192.7656,256.6719 192.9375,256.4531 C193.0469,256.2969 193.0781,256.1094 193.0781,255.6875 L193.0781,254.2656 C193.0781,253.8281 193.0625,253.7031 192.9688,253.5469 C192.8125,253.2813 192.5313,253.1406 192.2344,253.1406 C191.9375,253.1406 191.7344,253.2344 191.5156,253.5469 L191.3438,253.4688 Z " fill="#000000"/><text fill="#000000" font-family="sans-serif" font-size="14" lengthAdjust="spacing" textLength="110" x="203" y="262.6436">WebsiteWalker</text><line style="stroke:#181818;stroke-width:0.5;" x1="175" x2="315" y1="273.7969" y2="273.7969"/><line style="stroke:#181818;stroke-width:0.5;" x1="175" x2="315" y1="281.7969" y2="281.7969"/></g><!--MD5=[b1d71236a8e0f0324c69076c01455084]
class ReportWriter--><g id="elem_ReportWriter"><rect codeLine="65" fill="#F1F1F1" height="48" id="ReportWriter" rx="2.5" ry="2.5" style="stroke:#181818;stroke-width:0.5;" width="129" x="1415.5" y="68.7969"/><ellipse cx="1430.5" cy="84.7969" fill="#ADD1B2" rx="11" ry="11" style="stroke:#181818;stroke-width:1.0;"/><path d="M1432.8438,80.4688 C1431.9063,80.0313 1431.3125,79.8906 1430.4375,79.8906 C1427.8125,79.8906 1425.8125,81.9688 1425.8125,84.6875 L1425.8125,85.8125 C1425.8125,88.3906 1427.9219,90.2813 1430.8125,90.2813 C1432.0313,90.2813 1433.1875,89.9844 1433.9375,89.4375 C1434.5156,89.0313 1434.8438,88.5781 1434.8438,88.1875 C1434.8438,87.7344 1434.4531,87.3438 1433.9844,87.3438 C1433.7656,87.3438 1433.5625,87.4219 1433.375,87.6094 C1432.9219,88.0938 1432.9219,88.0938 1432.7344,88.1875 C1432.3125,88.4531 1431.625,88.5781 1430.8594,88.5781 C1428.8125,88.5781 1427.5156,87.4844 1427.5156,85.7813 L1427.5156,84.6875 C1427.5156,82.9063 1428.7656,81.5938 1430.5,81.5938 C1431.0781,81.5938 1431.6875,81.75 1432.1563,82 C1432.6406,82.2813 1432.8125,82.5 1432.9063,82.9063 C1432.9688,83.3125 1433,83.4375 1433.1406,83.5625 C1433.2813,83.7031 1433.5156,83.8125 1433.7344,83.8125 C1434,83.8125 1434.2656,83.6719 1434.4375,83.4531 C1434.5469,83.2969 1434.5781,83.1094 1434.5781,82.6875 L1434.5781,81.2656 C1434.5781,80.8281 1434.5625,80.7031 1434.4688,80.5469 C1434.3125,80.2813 1434.0313,80.1406 1433.7344,80.1406 C1433.4375,80.1406 1433.2344,80.2344 1433.0156,80.5469 L1432.8438,80.4688 Z " fill="#000000"/><text fill="#000000" font-family="sans-serif" font-size="14" lengthAdjust="spacing" textLength="97" x="1444.5" y="89.6436">ReportWriter</text><line style="stroke:#181818;stroke-width:0.5;" x1="1416.5" x2="1543.5" y1="100.7969" y2="100.7969"/><line style="stroke:#181818;stroke-width:0.5;" x1="1416.5" x2="1543.5" y1="108.7969" y2="108.7969"/></g><!--MD5=[c174e74861e59bb18ea4e9964ccb306e]
class ExcelWriter--><g id="elem_ExcelWriter"><rect codeLine="69" fill="#F1F1F1" height="48" id="ExcelWriter" rx="2.5" ry="2.5" style="stroke:#181818;stroke-width:0.5;" width="116" x="1273" y="241.7969"/><ellipse cx="1288" cy="257.7969" fill="#ADD1B2" rx="11" ry="11" style="stroke:#181818;stroke-width:1.0;"/><path d="M1290.3438,253.4688 C1289.4063,253.0313 1288.8125,252.8906 1287.9375,252.8906 C1285.3125,252.8906 1283.3125,254.9688 1283.3125,257.6875 L1283.3125,258.8125 C1283.3125,261.3906 1285.4219,263.2813 1288.3125,263.2813 C1289.5313,263.2813 1290.6875,262.9844 1291.4375,262.4375 C1292.0156,262.0313 1292.3438,261.5781 1292.3438,261.1875 C1292.3438,260.7344 1291.9531,260.3438 1291.4844,260.3438 C1291.2656,260.3438 1291.0625,260.4219 1290.875,260.6094 C1290.4219,261.0938 1290.4219,261.0938 1290.2344,261.1875 C1289.8125,261.4531 1289.125,261.5781 1288.3594,261.5781 C1286.3125,261.5781 1285.0156,260.4844 1285.0156,258.7813 L1285.0156,257.6875 C1285.0156,255.9063 1286.2656,254.5938 1288,254.5938 C1288.5781,254.5938 1289.1875,254.75 1289.6563,255 C1290.1406,255.2813 1290.3125,255.5 1290.4063,255.9063 C1290.4688,256.3125 1290.5,256.4375 1290.6406,256.5625 C1290.7813,256.7031 1291.0156,256.8125 1291.2344,256.8125 C1291.5,256.8125 1291.7656,256.6719 1291.9375,256.4531 C1292.0469,256.2969 1292.0781,256.1094 1292.0781,255.6875 L1292.0781,254.2656 C1292.0781,253.8281 1292.0625,253.7031 1291.9688,253.5469 C1291.8125,253.2813 1291.5313,253.1406 1291.2344,253.1406 C1290.9375,253.1406 1290.7344,253.2344 1290.5156,253.5469 L1290.3438,253.4688 Z " fill="#000000"/><text fill="#000000" font-family="sans-serif" font-size="14" lengthAdjust="spacing" textLength="84" x="1302" y="262.6436">ExcelWriter</text><line style="stroke:#181818;stroke-width:0.5;" x1="1274" x2="1388" y1="273.7969" y2="273.7969"/><line style="stroke:#181818;stroke-width:0.5;" x1="1274" x2="1388" y1="281.7969" y2="281.7969"/></g><!--MD5=[1e45380920adb9e0da633e09815b8bbd]
class JSONWriter--><g id="elem_JSONWriter"><rect codeLine="73" fill="#F1F1F1" height="48" id="JSONWriter" rx="2.5" ry="2.5" style="stroke:#181818;stroke-width:0.5;" width="112" x="1424" y="241.7969"/><ellipse cx="1439" cy="257.7969" fill="#ADD1B2" rx="11" ry="11" style="stroke:#181818;stroke-width:1.0;"/><path d="M1441.3438,253.4688 C1440.4063,253.0313 1439.8125,252.8906 1438.9375,252.8906 C1436.3125,252.8906 1434.3125,254.9688 1434.3125,257.6875 L1434.3125,258.8125 C1434.3125,261.3906 1436.4219,263.2813 1439.3125,263.2813 C1440.5313,263.2813 1441.6875,262.9844 1442.4375,262.4375 C1443.0156,262.0313 1443.3438,261.5781 1443.3438,261.1875 C1443.3438,260.7344 1442.9531,260.3438 1442.4844,260.3438 C1442.2656,260.3438 1442.0625,260.4219 1441.875,260.6094 C1441.4219,261.0938 1441.4219,261.0938 1441.2344,261.1875 C1440.8125,261.4531 1440.125,261.5781 1439.3594,261.5781 C1437.3125,261.5781 1436.0156,260.4844 1436.0156,258.7813 L1436.0156,257.6875 C1436.0156,255.9063 1437.2656,254.5938 1439,254.5938 C1439.5781,254.5938 1440.1875,254.75 1440.6563,255 C1441.1406,255.2813 1441.3125,255.5 1441.4063,255.9063 C1441.4688,256.3125 1441.5,256.4375 1441.6406,256.5625 C1441.7813,256.7031 1442.0156,256.8125 1442.2344,256.8125 C1442.5,256.8125 1442.7656,256.6719 1442.9375,256.4531 C1443.0469,256.2969 1443.0781,256.1094 1443.0781,255.6875 L1443.0781,254.2656 C1443.0781,253.8281 1443.0625,253.7031 1442.9688,253.5469 C1442.8125,253.2813 1442.5313,253.1406 1442.2344,253.1406 C1441.9375,253.1406 1441.7344,253.2344 1441.5156,253.5469 L1441.3438,253.4688 Z " fill="#000000"/><text fill="#000000" font-family="sans-serif" font-size="14" lengthAdjust="spacing" textLength="80" x="1453" y="262.6436">JSONWriter</text><line style="stroke:#181818;stroke-width:0.5;" x1="1425" x2="1535" y1="273.7969" y2="273.7969"/><line style="stroke:#181818;stroke-width:0.5;" x1="1425" x2="1535" y1="281.7969" y2="281.7969"/></g><!--MD5=[52212348725bd98b317369cba209c9f9]
class TextWriter--><g id="elem_TextWriter"><rect codeLine="77" fill="#F1F1F1" height="48" id="TextWriter" rx="2.5" ry="2.5" style="stroke:#181818;stroke-width:0.5;" width="111" x="1571.5" y="241.7969"/><ellipse cx="1586.5" cy="257.7969" fill="#ADD1B2" rx="11" ry="11" style="stroke:#181818;stroke-width:1.0;"/><path d="M1588.8438,253.4688 C1587.9063,253.0313 1587.3125,252.8906 1586.4375,252.8906 C1583.8125,252.8906 1581.8125,254.9688 1581.8125,257.6875 L1581.8125,258.8125 C1581.8125,261.3906 1583.9219,263.2813 1586.8125,263.2813 C1588.0313,263.2813 1589.1875,262.9844 1589.9375,262.4375 C1590.5156,262.0313 1590.8438,261.5781 1590.8438,261.1875 C1590.8438,260.7344 1590.4531,260.3438 1589.9844,260.3438 C1589.7656,260.3438 1589.5625,260.4219 1589.375,260.6094 C1588.9219,261.0938 1588.9219,261.0938 1588.7344,261.1875 C1588.3125,261.4531 1587.625,261.5781 1586.8594,261.5781 C1584.8125,261.5781 1583.5156,260.4844 1583.5156,258.7813 L1583.5156,257.6875 C1583.5156,255.9063 1584.7656,254.5938 1586.5,254.5938 C1587.0781,254.5938 1587.6875,254.75 1588.1563,255 C1588.6406,255.2813 1588.8125,255.5 1588.9063,255.9063 C1588.9688,256.3125 1589,256.4375 1589.1406,256.5625 C1589.2813,256.7031 1589.5156,256.8125 1589.7344,256.8125 C1590,256.8125 1590.2656,256.6719 1590.4375,256.4531 C1590.5469,256.2969 1590.5781,256.1094 1590.5781,255.6875 L1590.5781,254.2656 C1590.5781,253.8281 1590.5625,253.7031 1590.4688,253.5469 C1590.3125,253.2813 1590.0313,253.1406 1589.7344,253.1406 C1589.4375,253.1406 1589.2344,253.2344 1589.0156,253.5469 L1588.8438,253.4688 Z " fill="#000000"/><text fill="#000000" font-family="sans-serif" font-size="14" lengthAdjust="spacing" textLength="79" x="1600.5" y="262.6436">TextWriter</text><line style="stroke:#181818;stroke-width:0.5;" x1="1572.5" x2="1681.5" y1="273.7969" y2="273.7969"/><line style="stroke:#181818;stroke-width:0.5;" x1="1572.5" x2="1681.5" y1="281.7969" y2="281.7969"/></g><!--MD5=[829d6dd7ee6779d4ee784d24877a8b45]
reverse link Data to Stylesheet--><g id="link_Data_Stylesheet"><path codeLine="81" d="M1059.67,132.9819 C1034.56,166.5209 999.264,213.6789 978.398,241.5543 " fill="none" id="Data-backto-Stylesheet" style="stroke:#181818;stroke-width:1.0;"/><polygon fill="none" points="1054.15,128.6749,1071.74,116.8589,1065.36,137.0649,1054.15,128.6749" style="stroke:#181818;stroke-width:1.0;"/></g><!--MD5=[129221ca1994a6a9d228efdf5f963586]
reverse link Data to Script--><g id="link_Data_Script"><path codeLine="82" d="M1089,137.2029 C1089,170.3819 1089,214.8299 1089,241.5543 " fill="none" id="Data-backto-Script" style="stroke:#181818;stroke-width:1.0;"/><polygon fill="none" points="1082,136.8589,1089,116.8589,1096,136.8589,1082,136.8589" style="stroke:#181818;stroke-width:1.0;"/></g><!--MD5=[879da5df19a92cd8af09ef7582356d0d]
reverse link Data to Image--><g id="link_Data_Image"><path codeLine="83" d="M1115.04,133.9089 C1136.77,167.3849 1166.98,213.9349 1184.91,241.5543 " fill="none" id="Data-backto-Image" style="stroke:#181818;stroke-width:1.0;"/><polygon fill="none" points="1108.99,137.4459,1103.97,116.8589,1120.73,129.8229,1108.99,137.4459" style="stroke:#181818;stroke-width:1.0;"/></g><!--MD5=[6b75cd9725488452eb6e7f65272e60d9]
reverse link ReportWriter to ExcelWriter--><g id="link_ReportWriter_ExcelWriter"><path codeLine="85" d="M1446.66,132.0619 C1417.39,165.6539 1375.76,213.4229 1351.25,241.5543 " fill="none" id="ReportWriter-backto-ExcelWriter" style="stroke:#181818;stroke-width:1.0;"/><polygon fill="none" points="1441.49,127.3389,1459.91,116.8589,1452.04,136.5359,1441.49,127.3389" style="stroke:#181818;stroke-width:1.0;"/></g><!--MD5=[3a01cb5e43ff8fab2145c420d9725fe7]
reverse link ReportWriter to JSONWriter--><g id="link_ReportWriter_JSONWriter"><path codeLine="86" d="M1480,137.2029 C1480,170.3819 1480,214.8299 1480,241.5543 " fill="none" id="ReportWriter-backto-JSONWriter" style="stroke:#181818;stroke-width:1.0;"/><polygon fill="none" points="1473,136.8589,1480,116.8589,1487,136.8589,1473,136.8589" style="stroke:#181818;stroke-width:1.0;"/></g><!--MD5=[714c21ab9ffd54ebeb519b54f5e37187]
reverse link ReportWriter to TextWriter--><g id="link_ReportWriter_TextWriter"><path codeLine="87" d="M1512.89,132.0619 C1541.77,165.6539 1582.84,213.4229 1607.02,241.5543 " fill="none" id="ReportWriter-backto-TextWriter" style="stroke:#181818;stroke-width:1.0;"/><polygon fill="none" points="1507.55,136.5879,1499.83,116.8589,1518.17,127.4619,1507.55,136.5879" style="stroke:#181818;stroke-width:1.0;"/></g><!--MD5=[f92983f9253e85900549fc9fe80d4541]
reverse link Website to HTMLDocument--><g id="link_Website_HTMLDocument"><path codeLine="89" d="M702.985,154.3919 C705.731,169.5379 708.684,185.8269 711.456,201.1169 " fill="none" id="Website-backto-HTMLDocument" style="stroke:#181818;stroke-width:1.0;"/><polygon fill="#181818" points="700.635,141.4299,697.7693,148.0471,702.7752,153.2375,705.641,146.6203,700.635,141.4299" style="stroke:#181818;stroke-width:1.0;"/></g><!--MD5=[58b551701a553d187ad516f0da7361ec]
link DocumentParser to HTMLDocument--><g id="link_DocumentParser_HTMLDocument"><path codeLine="90" d="M915.06,116.8589 C888.111,137.6169 847.145,169.1719 809.96,197.8139 " fill="none" id="DocumentParser-to-HTMLDocument" style="stroke:#181818;stroke-width:1.0;"/><polygon fill="#181818" points="805.911,200.9329,815.4819,198.6096,809.8721,197.8817,810.6,192.2719,805.911,200.9329" style="stroke:#181818;stroke-width:1.0;"/><text fill="#000000" font-family="sans-serif" font-size="13" lengthAdjust="spacing" textLength="63" x="748.5341" y="190.0657">populates</text></g><!--MD5=[0746906b1ff0be31865ae86bf01efb6c]
@startuml
title Classes - Class Diagram

class CLI {

}

class Website {
  Path localPath
  Collection<URL> siteURLs
  Collection<HTMLDocument> allPages
}

Class HTMLDocument {
  Path localPath
  Collection<StyleSheet> styles
  Collection<JavaScript> scripts
  Collection<Anchor> links
  Collection<Image> images
  
}

class Data {

}

class Stylesheet {

}

class Script {

}

class Image {

}

class Anchor {
    URI path
    Classification linkType
    TargetType destinationType
}

enum Classification {
    INTERNAL
    INTRAPAGE
    EXTERNAL
}

enum TargetType {
    HTMLDOCUMENT
    ARCHIVE
    VIDEO
    AUDIO
}

class DocumentParser {

}

class WebsiteWalker {

}

class ReportWriter {

}

class ExcelWriter {

}

class JSONWriter {

}

class TextWriter {

}

Data<|- -Stylesheet
Data<|- -Script
Data<|- -Image

ReportWriter<|- -ExcelWriter
ReportWriter<|- -JSONWriter
ReportWriter<|- -TextWriter

Website *- - HTMLDocument
DocumentParser - ->"populates" HTMLDocument
@enduml

PlantUML version 1.2022.7beta2(Unknown compile time)
(GPL source distribution)
Java Runtime: Java(TM) SE Runtime Environment
JVM: Java HotSpot(TM) 64-Bit Server VM
Default Encoding: UTF-8
Language: en
Country: US
--></g></svg>