<?xml version="1.0" encoding="UTF-8" standalone="no"?><svg xmlns="http://www.w3.org/2000/svg" xmlns:xlink="http://www.w3.org/1999/xlink" contentStyleType="text/css" height="445px" preserveAspectRatio="none" style="width:1177px;height:445px;background:#FFFFFF;" version="1.1" viewBox="0 0 1177 445" width="1177px" zoomAndPan="magnify"><defs/><g><rect height="26.2969" id="_title" style="stroke:#00000000;stroke-width:1.0;fill:none;" width="203" x="480.25" y="5"/><text fill="#000000" font-family="sans-serif" font-size="14" font-weight="bold" lengthAdjust="spacing" textLength="193" x="485.25" y="22.9951">Classes - Class Diagram</text><!--MD5=[815cba82121cd92ef12113cfa2e60c03]
class Website--><g id="elem_Website"><rect codeLine="4" fill="#F1F1F1" height="96.8906" id="Website" rx="2.5" ry="2.5" style="stroke:#181818;stroke-width:0.5;" width="283" x="700" y="44.2969"/><ellipse cx="807.25" cy="60.2969" fill="#ADD1B2" rx="11" ry="11" style="stroke:#181818;stroke-width:1.0;"/><path d="M809.5938,55.9688 C808.6563,55.5313 808.0625,55.3906 807.1875,55.3906 C804.5625,55.3906 802.5625,57.4688 802.5625,60.1875 L802.5625,61.3125 C802.5625,63.8906 804.6719,65.7813 807.5625,65.7813 C808.7813,65.7813 809.9375,65.4844 810.6875,64.9375 C811.2656,64.5313 811.5938,64.0781 811.5938,63.6875 C811.5938,63.2344 811.2031,62.8438 810.7344,62.8438 C810.5156,62.8438 810.3125,62.9219 810.125,63.1094 C809.6719,63.5938 809.6719,63.5938 809.4844,63.6875 C809.0625,63.9531 808.375,64.0781 807.6094,64.0781 C805.5625,64.0781 804.2656,62.9844 804.2656,61.2813 L804.2656,60.1875 C804.2656,58.4063 805.5156,57.0938 807.25,57.0938 C807.8281,57.0938 808.4375,57.25 808.9063,57.5 C809.3906,57.7813 809.5625,58 809.6563,58.4063 C809.7188,58.8125 809.75,58.9375 809.8906,59.0625 C810.0313,59.2031 810.2656,59.3125 810.4844,59.3125 C810.75,59.3125 811.0156,59.1719 811.1875,58.9531 C811.2969,58.7969 811.3281,58.6094 811.3281,58.1875 L811.3281,56.7656 C811.3281,56.3281 811.3125,56.2031 811.2188,56.0469 C811.0625,55.7813 810.7813,55.6406 810.4844,55.6406 C810.1875,55.6406 809.9844,55.7344 809.7656,56.0469 L809.5938,55.9688 Z " fill="#000000"/><text fill="#000000" font-family="sans-serif" font-size="14" lengthAdjust="spacing" textLength="60" x="827.75" y="65.1436">Website</text><line style="stroke:#181818;stroke-width:0.5;" x1="701" x2="982" y1="76.2969" y2="76.2969"/><text fill="#000000" font-family="sans-serif" font-size="14" lengthAdjust="spacing" textLength="103" x="706" y="93.292">Path localPath</text><text fill="#000000" font-family="sans-serif" font-size="14" lengthAdjust="spacing" textLength="187" x="706" y="109.5889">Collection&lt;URL&gt; siteURLs</text><text fill="#000000" font-family="sans-serif" font-size="14" lengthAdjust="spacing" textLength="271" x="706" y="125.8857">Collection&lt;HTMLDocument&gt; allPages</text><line style="stroke:#181818;stroke-width:0.5;" x1="701" x2="982" y1="133.1875" y2="133.1875"/></g><!--MD5=[bcf420f74c3688e6b767ba4d026321a0]
class HTMLDocument--><g id="elem_HTMLDocument"><rect codeLine="10" fill="#F1F1F1" height="129.4844" id="HTMLDocument" rx="2.5" ry="2.5" style="stroke:#181818;stroke-width:0.5;" width="233" x="789" y="201.2969"/><ellipse cx="844.25" cy="217.2969" fill="#ADD1B2" rx="11" ry="11" style="stroke:#181818;stroke-width:1.0;"/><path d="M846.5938,212.9688 C845.6563,212.5313 845.0625,212.3906 844.1875,212.3906 C841.5625,212.3906 839.5625,214.4688 839.5625,217.1875 L839.5625,218.3125 C839.5625,220.8906 841.6719,222.7813 844.5625,222.7813 C845.7813,222.7813 846.9375,222.4844 847.6875,221.9375 C848.2656,221.5313 848.5938,221.0781 848.5938,220.6875 C848.5938,220.2344 848.2031,219.8438 847.7344,219.8438 C847.5156,219.8438 847.3125,219.9219 847.125,220.1094 C846.6719,220.5938 846.6719,220.5938 846.4844,220.6875 C846.0625,220.9531 845.375,221.0781 844.6094,221.0781 C842.5625,221.0781 841.2656,219.9844 841.2656,218.2813 L841.2656,217.1875 C841.2656,215.4063 842.5156,214.0938 844.25,214.0938 C844.8281,214.0938 845.4375,214.25 845.9063,214.5 C846.3906,214.7813 846.5625,215 846.6563,215.4063 C846.7188,215.8125 846.75,215.9375 846.8906,216.0625 C847.0313,216.2031 847.2656,216.3125 847.4844,216.3125 C847.75,216.3125 848.0156,216.1719 848.1875,215.9531 C848.2969,215.7969 848.3281,215.6094 848.3281,215.1875 L848.3281,213.7656 C848.3281,213.3281 848.3125,213.2031 848.2188,213.0469 C848.0625,212.7813 847.7813,212.6406 847.4844,212.6406 C847.1875,212.6406 846.9844,212.7344 846.7656,213.0469 L846.5938,212.9688 Z " fill="#000000"/><text fill="#000000" font-family="sans-serif" font-size="14" lengthAdjust="spacing" textLength="114" x="864.75" y="222.1436">HTMLDocument</text><line style="stroke:#181818;stroke-width:0.5;" x1="790" x2="1021" y1="233.2969" y2="233.2969"/><text fill="#000000" font-family="sans-serif" font-size="14" lengthAdjust="spacing" textLength="103" x="795" y="250.292">Path localPath</text><text fill="#000000" font-family="sans-serif" font-size="14" lengthAdjust="spacing" textLength="221" x="795" y="266.5889">Collection&lt;StyleSheet&gt; styles</text><text fill="#000000" font-family="sans-serif" font-size="14" lengthAdjust="spacing" textLength="220" x="795" y="282.8857">Collection&lt;JavaScript&gt; scripts</text><text fill="#000000" font-family="sans-serif" font-size="14" lengthAdjust="spacing" textLength="183" x="795" y="299.1826">Collection&lt;Anchor&gt; links</text><text fill="#000000" font-family="sans-serif" font-size="14" lengthAdjust="spacing" textLength="194" x="795" y="315.4795">Collection&lt;Image&gt; images</text><line style="stroke:#181818;stroke-width:0.5;" x1="790" x2="1021" y1="322.7813" y2="322.7813"/></g><!--MD5=[338ce9c25d678ef035e38d1a80dfcd29]
class Stylesheet--><g id="elem_Stylesheet"><rect codeLine="19" fill="#F1F1F1" height="48" id="Stylesheet" rx="2.5" ry="2.5" style="stroke:#181818;stroke-width:0.5;" width="110" x="15.5" y="68.7969"/><ellipse cx="30.5" cy="84.7969" fill="#ADD1B2" rx="11" ry="11" style="stroke:#181818;stroke-width:1.0;"/><path d="M32.8438,80.4688 C31.9063,80.0313 31.3125,79.8906 30.4375,79.8906 C27.8125,79.8906 25.8125,81.9688 25.8125,84.6875 L25.8125,85.8125 C25.8125,88.3906 27.9219,90.2813 30.8125,90.2813 C32.0313,90.2813 33.1875,89.9844 33.9375,89.4375 C34.5156,89.0313 34.8438,88.5781 34.8438,88.1875 C34.8438,87.7344 34.4531,87.3438 33.9844,87.3438 C33.7656,87.3438 33.5625,87.4219 33.375,87.6094 C32.9219,88.0938 32.9219,88.0938 32.7344,88.1875 C32.3125,88.4531 31.625,88.5781 30.8594,88.5781 C28.8125,88.5781 27.5156,87.4844 27.5156,85.7813 L27.5156,84.6875 C27.5156,82.9063 28.7656,81.5938 30.5,81.5938 C31.0781,81.5938 31.6875,81.75 32.1563,82 C32.6406,82.2813 32.8125,82.5 32.9063,82.9063 C32.9688,83.3125 33,83.4375 33.1406,83.5625 C33.2813,83.7031 33.5156,83.8125 33.7344,83.8125 C34,83.8125 34.2656,83.6719 34.4375,83.4531 C34.5469,83.2969 34.5781,83.1094 34.5781,82.6875 L34.5781,81.2656 C34.5781,80.8281 34.5625,80.7031 34.4688,80.5469 C34.3125,80.2813 34.0313,80.1406 33.7344,80.1406 C33.4375,80.1406 33.2344,80.2344 33.0156,80.5469 L32.8438,80.4688 Z " fill="#000000"/><text fill="#000000" font-family="sans-serif" font-size="14" lengthAdjust="spacing" textLength="78" x="44.5" y="89.6436">Stylesheet</text><line style="stroke:#181818;stroke-width:0.5;" x1="16.5" x2="124.5" y1="100.7969" y2="100.7969"/><line style="stroke:#181818;stroke-width:0.5;" x1="16.5" x2="124.5" y1="108.7969" y2="108.7969"/></g><!--MD5=[d0d7b0900e371541ba11cbff692d2bc7]
class Script--><g id="elem_Script"><rect codeLine="23" fill="#F1F1F1" height="48" id="Script" rx="2.5" ry="2.5" style="stroke:#181818;stroke-width:0.5;" width="76" x="160.5" y="68.7969"/><ellipse cx="175.5" cy="84.7969" fill="#ADD1B2" rx="11" ry="11" style="stroke:#181818;stroke-width:1.0;"/><path d="M177.8438,80.4688 C176.9063,80.0313 176.3125,79.8906 175.4375,79.8906 C172.8125,79.8906 170.8125,81.9688 170.8125,84.6875 L170.8125,85.8125 C170.8125,88.3906 172.9219,90.2813 175.8125,90.2813 C177.0313,90.2813 178.1875,89.9844 178.9375,89.4375 C179.5156,89.0313 179.8438,88.5781 179.8438,88.1875 C179.8438,87.7344 179.4531,87.3438 178.9844,87.3438 C178.7656,87.3438 178.5625,87.4219 178.375,87.6094 C177.9219,88.0938 177.9219,88.0938 177.7344,88.1875 C177.3125,88.4531 176.625,88.5781 175.8594,88.5781 C173.8125,88.5781 172.5156,87.4844 172.5156,85.7813 L172.5156,84.6875 C172.5156,82.9063 173.7656,81.5938 175.5,81.5938 C176.0781,81.5938 176.6875,81.75 177.1563,82 C177.6406,82.2813 177.8125,82.5 177.9063,82.9063 C177.9688,83.3125 178,83.4375 178.1406,83.5625 C178.2813,83.7031 178.5156,83.8125 178.7344,83.8125 C179,83.8125 179.2656,83.6719 179.4375,83.4531 C179.5469,83.2969 179.5781,83.1094 179.5781,82.6875 L179.5781,81.2656 C179.5781,80.8281 179.5625,80.7031 179.4688,80.5469 C179.3125,80.2813 179.0313,80.1406 178.7344,80.1406 C178.4375,80.1406 178.2344,80.2344 178.0156,80.5469 L177.8438,80.4688 Z " fill="#000000"/><text fill="#000000" font-family="sans-serif" font-size="14" lengthAdjust="spacing" textLength="44" x="189.5" y="89.6436">Script</text><line style="stroke:#181818;stroke-width:0.5;" x1="161.5" x2="235.5" y1="100.7969" y2="100.7969"/><line style="stroke:#181818;stroke-width:0.5;" x1="161.5" x2="235.5" y1="108.7969" y2="108.7969"/></g><!--MD5=[964f074a2dd77d134c21b891bb53e381]
class Image--><g id="elem_Image"><rect codeLine="27" fill="#F1F1F1" height="48" id="Image" rx="2.5" ry="2.5" style="stroke:#181818;stroke-width:0.5;" width="76" x="271.5" y="68.7969"/><ellipse cx="286.5" cy="84.7969" fill="#ADD1B2" rx="11" ry="11" style="stroke:#181818;stroke-width:1.0;"/><path d="M288.8438,80.4688 C287.9063,80.0313 287.3125,79.8906 286.4375,79.8906 C283.8125,79.8906 281.8125,81.9688 281.8125,84.6875 L281.8125,85.8125 C281.8125,88.3906 283.9219,90.2813 286.8125,90.2813 C288.0313,90.2813 289.1875,89.9844 289.9375,89.4375 C290.5156,89.0313 290.8438,88.5781 290.8438,88.1875 C290.8438,87.7344 290.4531,87.3438 289.9844,87.3438 C289.7656,87.3438 289.5625,87.4219 289.375,87.6094 C288.9219,88.0938 288.9219,88.0938 288.7344,88.1875 C288.3125,88.4531 287.625,88.5781 286.8594,88.5781 C284.8125,88.5781 283.5156,87.4844 283.5156,85.7813 L283.5156,84.6875 C283.5156,82.9063 284.7656,81.5938 286.5,81.5938 C287.0781,81.5938 287.6875,81.75 288.1563,82 C288.6406,82.2813 288.8125,82.5 288.9063,82.9063 C288.9688,83.3125 289,83.4375 289.1406,83.5625 C289.2813,83.7031 289.5156,83.8125 289.7344,83.8125 C290,83.8125 290.2656,83.6719 290.4375,83.4531 C290.5469,83.2969 290.5781,83.1094 290.5781,82.6875 L290.5781,81.2656 C290.5781,80.8281 290.5625,80.7031 290.4688,80.5469 C290.3125,80.2813 290.0313,80.1406 289.7344,80.1406 C289.4375,80.1406 289.2344,80.2344 289.0156,80.5469 L288.8438,80.4688 Z " fill="#000000"/><text fill="#000000" font-family="sans-serif" font-size="14" lengthAdjust="spacing" textLength="44" x="300.5" y="89.6436">Image</text><line style="stroke:#181818;stroke-width:0.5;" x1="272.5" x2="346.5" y1="100.7969" y2="100.7969"/><line style="stroke:#181818;stroke-width:0.5;" x1="272.5" x2="346.5" y1="108.7969" y2="108.7969"/></g><!--MD5=[8ec9fcce0f5c660aa28fe128722bc749]
class Anchor--><g id="elem_Anchor"><rect codeLine="31" fill="#F1F1F1" height="96.8906" id="Anchor" rx="2.5" ry="2.5" style="stroke:#181818;stroke-width:0.5;" width="218" x="382.5" y="44.2969"/><ellipse cx="461.75" cy="60.2969" fill="#ADD1B2" rx="11" ry="11" style="stroke:#181818;stroke-width:1.0;"/><path d="M464.0938,55.9688 C463.1563,55.5313 462.5625,55.3906 461.6875,55.3906 C459.0625,55.3906 457.0625,57.4688 457.0625,60.1875 L457.0625,61.3125 C457.0625,63.8906 459.1719,65.7813 462.0625,65.7813 C463.2813,65.7813 464.4375,65.4844 465.1875,64.9375 C465.7656,64.5313 466.0938,64.0781 466.0938,63.6875 C466.0938,63.2344 465.7031,62.8438 465.2344,62.8438 C465.0156,62.8438 464.8125,62.9219 464.625,63.1094 C464.1719,63.5938 464.1719,63.5938 463.9844,63.6875 C463.5625,63.9531 462.875,64.0781 462.1094,64.0781 C460.0625,64.0781 458.7656,62.9844 458.7656,61.2813 L458.7656,60.1875 C458.7656,58.4063 460.0156,57.0938 461.75,57.0938 C462.3281,57.0938 462.9375,57.25 463.4063,57.5 C463.8906,57.7813 464.0625,58 464.1563,58.4063 C464.2188,58.8125 464.25,58.9375 464.3906,59.0625 C464.5313,59.2031 464.7656,59.3125 464.9844,59.3125 C465.25,59.3125 465.5156,59.1719 465.6875,58.9531 C465.7969,58.7969 465.8281,58.6094 465.8281,58.1875 L465.8281,56.7656 C465.8281,56.3281 465.8125,56.2031 465.7188,56.0469 C465.5625,55.7813 465.2813,55.6406 464.9844,55.6406 C464.6875,55.6406 464.4844,55.7344 464.2656,56.0469 L464.0938,55.9688 Z " fill="#000000"/><text fill="#000000" font-family="sans-serif" font-size="14" lengthAdjust="spacing" textLength="51" x="482.25" y="65.1436">Anchor</text><line style="stroke:#181818;stroke-width:0.5;" x1="383.5" x2="599.5" y1="76.2969" y2="76.2969"/><text fill="#000000" font-family="sans-serif" font-size="14" lengthAdjust="spacing" textLength="61" x="388.5" y="93.292">URI path</text><text fill="#000000" font-family="sans-serif" font-size="14" lengthAdjust="spacing" textLength="161" x="388.5" y="109.5889">Classification linkType</text><text fill="#000000" font-family="sans-serif" font-size="14" lengthAdjust="spacing" textLength="206" x="388.5" y="125.8857">TargetType destinationType</text><line style="stroke:#181818;stroke-width:0.5;" x1="383.5" x2="599.5" y1="133.1875" y2="133.1875"/></g><!--MD5=[9c239722e256878d27dcbb07783cc14f]
class Classification--><g id="elem_Classification"><rect codeLine="37" fill="#F1F1F1" height="96.8906" id="Classification" rx="2.5" ry="2.5" style="stroke:#181818;stroke-width:0.5;" width="127" x="7" y="217.2969"/><ellipse cx="22" cy="233.2969" fill="#EB937F" rx="11" ry="11" style="stroke:#181818;stroke-width:1.0;"/><path d="M20.7969,234.1719 L22.25,234.1719 L22.25,234.2813 C22.25,234.6875 22.2813,234.8438 22.3594,235 C22.5156,235.25 22.7969,235.4063 23.0938,235.4063 C23.3438,235.4063 23.6094,235.2656 23.7656,235.0469 C23.8906,234.8906 23.9219,234.7344 23.9219,234.2813 L23.9219,232.3594 C23.9219,232.2031 23.9219,232.1563 23.9063,232 C23.8438,231.5313 23.5313,231.2188 23.0781,231.2188 C22.8281,231.2188 22.5625,231.3594 22.3906,231.5781 C22.2813,231.75 22.25,231.9063 22.25,232.3594 L22.25,232.4844 L20.7969,232.4844 L20.7969,230.0781 L24.7813,230.0781 L24.7813,230.9375 C24.7813,231.3438 24.8125,231.5156 24.8906,231.6719 C25.0625,231.9219 25.3438,232.0781 25.625,232.0781 C25.8906,232.0781 26.1563,231.9375 26.3281,231.7188 C26.4375,231.5469 26.4688,231.4063 26.4688,230.9375 L26.4688,228.3906 L18.8438,228.3906 C18.4063,228.3906 18.2813,228.4063 18.125,228.5 C17.875,228.6563 17.7188,228.9531 17.7188,229.2344 C17.7188,229.5156 17.8594,229.7656 18.0781,229.9375 C18.2344,230.0469 18.4219,230.0781 18.8438,230.0781 L19.0938,230.0781 L19.0938,236.5938 L18.8438,236.5938 C18.4375,236.5938 18.2813,236.6094 18.125,236.7188 C17.875,236.8906 17.7188,237.1563 17.7188,237.4531 C17.7188,237.7188 17.8594,237.9688 18.0781,238.125 C18.2188,238.25 18.4531,238.2969 18.8438,238.2969 L26.8438,238.2969 L26.8438,235.7188 C26.8438,235.2813 26.8125,235.1406 26.7344,234.9844 C26.5625,234.7344 26.2813,234.5781 26,234.5781 C25.7344,234.5781 25.4688,234.6875 25.2969,234.9375 C25.1875,235.0938 25.1563,235.2344 25.1563,235.7188 L25.1563,236.5938 L20.7969,236.5938 L20.7969,234.1719 Z " fill="#000000"/><text fill="#000000" font-family="sans-serif" font-size="14" lengthAdjust="spacing" textLength="95" x="36" y="238.1436">Classification</text><line style="stroke:#181818;stroke-width:0.5;" x1="8" x2="133" y1="249.2969" y2="249.2969"/><text fill="#000000" font-family="sans-serif" font-size="14" lengthAdjust="spacing" textLength="70" x="13" y="266.292">INTERNAL</text><text fill="#000000" font-family="sans-serif" font-size="14" lengthAdjust="spacing" textLength="82" x="13" y="282.5889">INTRAPAGE</text><text fill="#000000" font-family="sans-serif" font-size="14" lengthAdjust="spacing" textLength="75" x="13" y="298.8857">EXTERNAL</text><line style="stroke:#181818;stroke-width:0.5;" x1="8" x2="133" y1="306.1875" y2="306.1875"/></g><!--MD5=[6b88c977c6356073eb6ff477a844f5ef]
class TargetType--><g id="elem_TargetType"><rect codeLine="43" fill="#F1F1F1" height="113.1875" id="TargetType" rx="2.5" ry="2.5" style="stroke:#181818;stroke-width:0.5;" width="132" x="169.5" y="209.2969"/><ellipse cx="191.7" cy="225.2969" fill="#EB937F" rx="11" ry="11" style="stroke:#181818;stroke-width:1.0;"/><path d="M190.4969,226.1719 L191.95,226.1719 L191.95,226.2813 C191.95,226.6875 191.9813,226.8438 192.0594,227 C192.2156,227.25 192.4969,227.4063 192.7938,227.4063 C193.0438,227.4063 193.3094,227.2656 193.4656,227.0469 C193.5906,226.8906 193.6219,226.7344 193.6219,226.2813 L193.6219,224.3594 C193.6219,224.2031 193.6219,224.1563 193.6063,224 C193.5438,223.5313 193.2313,223.2188 192.7781,223.2188 C192.5281,223.2188 192.2625,223.3594 192.0906,223.5781 C191.9813,223.75 191.95,223.9063 191.95,224.3594 L191.95,224.4844 L190.4969,224.4844 L190.4969,222.0781 L194.4813,222.0781 L194.4813,222.9375 C194.4813,223.3438 194.5125,223.5156 194.5906,223.6719 C194.7625,223.9219 195.0438,224.0781 195.325,224.0781 C195.5906,224.0781 195.8563,223.9375 196.0281,223.7188 C196.1375,223.5469 196.1688,223.4063 196.1688,222.9375 L196.1688,220.3906 L188.5438,220.3906 C188.1063,220.3906 187.9813,220.4063 187.825,220.5 C187.575,220.6563 187.4188,220.9531 187.4188,221.2344 C187.4188,221.5156 187.5594,221.7656 187.7781,221.9375 C187.9344,222.0469 188.1219,222.0781 188.5438,222.0781 L188.7938,222.0781 L188.7938,228.5938 L188.5438,228.5938 C188.1375,228.5938 187.9813,228.6094 187.825,228.7188 C187.575,228.8906 187.4188,229.1563 187.4188,229.4531 C187.4188,229.7188 187.5594,229.9688 187.7781,230.125 C187.9188,230.25 188.1531,230.2969 188.5438,230.2969 L196.5438,230.2969 L196.5438,227.7188 C196.5438,227.2813 196.5125,227.1406 196.4344,226.9844 C196.2625,226.7344 195.9813,226.5781 195.7,226.5781 C195.4344,226.5781 195.1688,226.6875 194.9969,226.9375 C194.8875,227.0938 194.8563,227.2344 194.8563,227.7188 L194.8563,228.5938 L190.4969,228.5938 L190.4969,226.1719 Z " fill="#000000"/><text fill="#000000" font-family="sans-serif" font-size="14" lengthAdjust="spacing" textLength="84" x="207.3" y="230.1436">TargetType</text><line style="stroke:#181818;stroke-width:0.5;" x1="170.5" x2="300.5" y1="241.2969" y2="241.2969"/><text fill="#000000" font-family="sans-serif" font-size="14" lengthAdjust="spacing" textLength="120" x="175.5" y="258.292">HTMLDOCUMENT</text><text fill="#000000" font-family="sans-serif" font-size="14" lengthAdjust="spacing" textLength="63" x="175.5" y="274.5889">ARCHIVE</text><text fill="#000000" font-family="sans-serif" font-size="14" lengthAdjust="spacing" textLength="45" x="175.5" y="290.8857">VIDEO</text><text fill="#000000" font-family="sans-serif" font-size="14" lengthAdjust="spacing" textLength="45" x="175.5" y="307.1826">AUDIO</text><line style="stroke:#181818;stroke-width:0.5;" x1="170.5" x2="300.5" y1="314.4844" y2="314.4844"/></g><!--MD5=[7c190b8b1dfe1b6e4fe2dd41dafb8a73]
class DocumentParser--><g id="elem_DocumentParser"><rect codeLine="50" fill="#F1F1F1" height="48" id="DocumentParser" rx="2.5" ry="2.5" style="stroke:#181818;stroke-width:0.5;" width="152" x="1018.5" y="68.7969"/><ellipse cx="1033.5" cy="84.7969" fill="#ADD1B2" rx="11" ry="11" style="stroke:#181818;stroke-width:1.0;"/><path d="M1035.8438,80.4688 C1034.9063,80.0313 1034.3125,79.8906 1033.4375,79.8906 C1030.8125,79.8906 1028.8125,81.9688 1028.8125,84.6875 L1028.8125,85.8125 C1028.8125,88.3906 1030.9219,90.2813 1033.8125,90.2813 C1035.0313,90.2813 1036.1875,89.9844 1036.9375,89.4375 C1037.5156,89.0313 1037.8438,88.5781 1037.8438,88.1875 C1037.8438,87.7344 1037.4531,87.3438 1036.9844,87.3438 C1036.7656,87.3438 1036.5625,87.4219 1036.375,87.6094 C1035.9219,88.0938 1035.9219,88.0938 1035.7344,88.1875 C1035.3125,88.4531 1034.625,88.5781 1033.8594,88.5781 C1031.8125,88.5781 1030.5156,87.4844 1030.5156,85.7813 L1030.5156,84.6875 C1030.5156,82.9063 1031.7656,81.5938 1033.5,81.5938 C1034.0781,81.5938 1034.6875,81.75 1035.1563,82 C1035.6406,82.2813 1035.8125,82.5 1035.9063,82.9063 C1035.9688,83.3125 1036,83.4375 1036.1406,83.5625 C1036.2813,83.7031 1036.5156,83.8125 1036.7344,83.8125 C1037,83.8125 1037.2656,83.6719 1037.4375,83.4531 C1037.5469,83.2969 1037.5781,83.1094 1037.5781,82.6875 L1037.5781,81.2656 C1037.5781,80.8281 1037.5625,80.7031 1037.4688,80.5469 C1037.3125,80.2813 1037.0313,80.1406 1036.7344,80.1406 C1036.4375,80.1406 1036.2344,80.2344 1036.0156,80.5469 L1035.8438,80.4688 Z " fill="#000000"/><text fill="#000000" font-family="sans-serif" font-size="14" lengthAdjust="spacing" textLength="120" x="1047.5" y="89.6436">DocumentParser</text><line style="stroke:#181818;stroke-width:0.5;" x1="1019.5" x2="1169.5" y1="100.7969" y2="100.7969"/><line style="stroke:#181818;stroke-width:0.5;" x1="1019.5" x2="1169.5" y1="108.7969" y2="108.7969"/></g><!--MD5=[8d026b3fc0bdbb692efad180ad9bcbdb]
class WebsiteWalker--><g id="elem_WebsiteWalker"><rect codeLine="54" fill="#F1F1F1" height="48" id="WebsiteWalker" rx="2.5" ry="2.5" style="stroke:#181818;stroke-width:0.5;" width="142" x="336.5" y="241.7969"/><ellipse cx="351.5" cy="257.7969" fill="#ADD1B2" rx="11" ry="11" style="stroke:#181818;stroke-width:1.0;"/><path d="M353.8438,253.4688 C352.9063,253.0313 352.3125,252.8906 351.4375,252.8906 C348.8125,252.8906 346.8125,254.9688 346.8125,257.6875 L346.8125,258.8125 C346.8125,261.3906 348.9219,263.2813 351.8125,263.2813 C353.0313,263.2813 354.1875,262.9844 354.9375,262.4375 C355.5156,262.0313 355.8438,261.5781 355.8438,261.1875 C355.8438,260.7344 355.4531,260.3438 354.9844,260.3438 C354.7656,260.3438 354.5625,260.4219 354.375,260.6094 C353.9219,261.0938 353.9219,261.0938 353.7344,261.1875 C353.3125,261.4531 352.625,261.5781 351.8594,261.5781 C349.8125,261.5781 348.5156,260.4844 348.5156,258.7813 L348.5156,257.6875 C348.5156,255.9063 349.7656,254.5938 351.5,254.5938 C352.0781,254.5938 352.6875,254.75 353.1563,255 C353.6406,255.2813 353.8125,255.5 353.9063,255.9063 C353.9688,256.3125 354,256.4375 354.1406,256.5625 C354.2813,256.7031 354.5156,256.8125 354.7344,256.8125 C355,256.8125 355.2656,256.6719 355.4375,256.4531 C355.5469,256.2969 355.5781,256.1094 355.5781,255.6875 L355.5781,254.2656 C355.5781,253.8281 355.5625,253.7031 355.4688,253.5469 C355.3125,253.2813 355.0313,253.1406 354.7344,253.1406 C354.4375,253.1406 354.2344,253.2344 354.0156,253.5469 L353.8438,253.4688 Z " fill="#000000"/><text fill="#000000" font-family="sans-serif" font-size="14" lengthAdjust="spacing" textLength="110" x="365.5" y="262.6436">WebsiteWalker</text><line style="stroke:#181818;stroke-width:0.5;" x1="337.5" x2="477.5" y1="273.7969" y2="273.7969"/><line style="stroke:#181818;stroke-width:0.5;" x1="337.5" x2="477.5" y1="281.7969" y2="281.7969"/></g><!--MD5=[c174e74861e59bb18ea4e9964ccb306e]
class ExcelWriter--><g id="elem_ExcelWriter"><rect codeLine="58" fill="#F1F1F1" height="48" id="ExcelWriter" rx="2.5" ry="2.5" style="stroke:#181818;stroke-width:0.5;" width="116" x="513.5" y="241.7969"/><ellipse cx="528.5" cy="257.7969" fill="#ADD1B2" rx="11" ry="11" style="stroke:#181818;stroke-width:1.0;"/><path d="M530.8438,253.4688 C529.9063,253.0313 529.3125,252.8906 528.4375,252.8906 C525.8125,252.8906 523.8125,254.9688 523.8125,257.6875 L523.8125,258.8125 C523.8125,261.3906 525.9219,263.2813 528.8125,263.2813 C530.0313,263.2813 531.1875,262.9844 531.9375,262.4375 C532.5156,262.0313 532.8438,261.5781 532.8438,261.1875 C532.8438,260.7344 532.4531,260.3438 531.9844,260.3438 C531.7656,260.3438 531.5625,260.4219 531.375,260.6094 C530.9219,261.0938 530.9219,261.0938 530.7344,261.1875 C530.3125,261.4531 529.625,261.5781 528.8594,261.5781 C526.8125,261.5781 525.5156,260.4844 525.5156,258.7813 L525.5156,257.6875 C525.5156,255.9063 526.7656,254.5938 528.5,254.5938 C529.0781,254.5938 529.6875,254.75 530.1563,255 C530.6406,255.2813 530.8125,255.5 530.9063,255.9063 C530.9688,256.3125 531,256.4375 531.1406,256.5625 C531.2813,256.7031 531.5156,256.8125 531.7344,256.8125 C532,256.8125 532.2656,256.6719 532.4375,256.4531 C532.5469,256.2969 532.5781,256.1094 532.5781,255.6875 L532.5781,254.2656 C532.5781,253.8281 532.5625,253.7031 532.4688,253.5469 C532.3125,253.2813 532.0313,253.1406 531.7344,253.1406 C531.4375,253.1406 531.2344,253.2344 531.0156,253.5469 L530.8438,253.4688 Z " fill="#000000"/><text fill="#000000" font-family="sans-serif" font-size="14" lengthAdjust="spacing" textLength="84" x="542.5" y="262.6436">ExcelWriter</text><line style="stroke:#181818;stroke-width:0.5;" x1="514.5" x2="628.5" y1="273.7969" y2="273.7969"/><line style="stroke:#181818;stroke-width:0.5;" x1="514.5" x2="628.5" y1="281.7969" y2="281.7969"/></g><!--MD5=[1e45380920adb9e0da633e09815b8bbd]
class JSONWriter--><g id="elem_JSONWriter"><rect codeLine="62" fill="#F1F1F1" height="48" id="JSONWriter" rx="2.5" ry="2.5" style="stroke:#181818;stroke-width:0.5;" width="112" x="14.5" y="390.2969"/><ellipse cx="29.5" cy="406.2969" fill="#ADD1B2" rx="11" ry="11" style="stroke:#181818;stroke-width:1.0;"/><path d="M31.8438,401.9688 C30.9063,401.5313 30.3125,401.3906 29.4375,401.3906 C26.8125,401.3906 24.8125,403.4688 24.8125,406.1875 L24.8125,407.3125 C24.8125,409.8906 26.9219,411.7813 29.8125,411.7813 C31.0313,411.7813 32.1875,411.4844 32.9375,410.9375 C33.5156,410.5313 33.8438,410.0781 33.8438,409.6875 C33.8438,409.2344 33.4531,408.8438 32.9844,408.8438 C32.7656,408.8438 32.5625,408.9219 32.375,409.1094 C31.9219,409.5938 31.9219,409.5938 31.7344,409.6875 C31.3125,409.9531 30.625,410.0781 29.8594,410.0781 C27.8125,410.0781 26.5156,408.9844 26.5156,407.2813 L26.5156,406.1875 C26.5156,404.4063 27.7656,403.0938 29.5,403.0938 C30.0781,403.0938 30.6875,403.25 31.1563,403.5 C31.6406,403.7813 31.8125,404 31.9063,404.4063 C31.9688,404.8125 32,404.9375 32.1406,405.0625 C32.2813,405.2031 32.5156,405.3125 32.7344,405.3125 C33,405.3125 33.2656,405.1719 33.4375,404.9531 C33.5469,404.7969 33.5781,404.6094 33.5781,404.1875 L33.5781,402.7656 C33.5781,402.3281 33.5625,402.2031 33.4688,402.0469 C33.3125,401.7813 33.0313,401.6406 32.7344,401.6406 C32.4375,401.6406 32.2344,401.7344 32.0156,402.0469 L31.8438,401.9688 Z " fill="#000000"/><text fill="#000000" font-family="sans-serif" font-size="14" lengthAdjust="spacing" textLength="80" x="43.5" y="411.1436">JSONWriter</text><line style="stroke:#181818;stroke-width:0.5;" x1="15.5" x2="125.5" y1="422.2969" y2="422.2969"/><line style="stroke:#181818;stroke-width:0.5;" x1="15.5" x2="125.5" y1="430.2969" y2="430.2969"/></g><!--MD5=[52212348725bd98b317369cba209c9f9]
class TextWriter--><g id="elem_TextWriter"><rect codeLine="66" fill="#F1F1F1" height="48" id="TextWriter" rx="2.5" ry="2.5" style="stroke:#181818;stroke-width:0.5;" width="111" x="162" y="390.2969"/><ellipse cx="177" cy="406.2969" fill="#ADD1B2" rx="11" ry="11" style="stroke:#181818;stroke-width:1.0;"/><path d="M179.3438,401.9688 C178.4063,401.5313 177.8125,401.3906 176.9375,401.3906 C174.3125,401.3906 172.3125,403.4688 172.3125,406.1875 L172.3125,407.3125 C172.3125,409.8906 174.4219,411.7813 177.3125,411.7813 C178.5313,411.7813 179.6875,411.4844 180.4375,410.9375 C181.0156,410.5313 181.3438,410.0781 181.3438,409.6875 C181.3438,409.2344 180.9531,408.8438 180.4844,408.8438 C180.2656,408.8438 180.0625,408.9219 179.875,409.1094 C179.4219,409.5938 179.4219,409.5938 179.2344,409.6875 C178.8125,409.9531 178.125,410.0781 177.3594,410.0781 C175.3125,410.0781 174.0156,408.9844 174.0156,407.2813 L174.0156,406.1875 C174.0156,404.4063 175.2656,403.0938 177,403.0938 C177.5781,403.0938 178.1875,403.25 178.6563,403.5 C179.1406,403.7813 179.3125,404 179.4063,404.4063 C179.4688,404.8125 179.5,404.9375 179.6406,405.0625 C179.7813,405.2031 180.0156,405.3125 180.2344,405.3125 C180.5,405.3125 180.7656,405.1719 180.9375,404.9531 C181.0469,404.7969 181.0781,404.6094 181.0781,404.1875 L181.0781,402.7656 C181.0781,402.3281 181.0625,402.2031 180.9688,402.0469 C180.8125,401.7813 180.5313,401.6406 180.2344,401.6406 C179.9375,401.6406 179.7344,401.7344 179.5156,402.0469 L179.3438,401.9688 Z " fill="#000000"/><text fill="#000000" font-family="sans-serif" font-size="14" lengthAdjust="spacing" textLength="79" x="191" y="411.1436">TextWriter</text><line style="stroke:#181818;stroke-width:0.5;" x1="163" x2="272" y1="422.2969" y2="422.2969"/><line style="stroke:#181818;stroke-width:0.5;" x1="163" x2="272" y1="430.2969" y2="430.2969"/></g><!--MD5=[f92983f9253e85900549fc9fe80d4541]
reverse link Website to HTMLDocument--><g id="link_Website_HTMLDocument"><path codeLine="70" d="M864.007,153.9339 C869.724,169.2089 875.886,185.6719 881.667,201.1169 " fill="none" id="Website-backto-HTMLDocument" style="stroke:#181818;stroke-width:1.0;"/><polygon fill="#181818" points="859.328,141.4299,857.685,148.4513,863.5344,152.6685,865.1774,145.647,859.328,141.4299" style="stroke:#181818;stroke-width:1.0;"/></g><!--MD5=[58b551701a553d187ad516f0da7361ec]
link DocumentParser to HTMLDocument--><g id="link_DocumentParser_HTMLDocument"><path codeLine="71" d="M1069.01,116.8589 C1046.16,137.5329 1011.47,168.9159 979.918,197.4659 " fill="none" id="DocumentParser-to-HTMLDocument" style="stroke:#181818;stroke-width:1.0;"/><polygon fill="#181818" points="976.087,200.9329,985.4444,197.8605,979.7946,197.5782,980.0769,191.9284,976.087,200.9329" style="stroke:#181818;stroke-width:1.0;"/><text fill="#000000" font-family="sans-serif" font-size="13" lengthAdjust="spacing" textLength="63" x="917.3621" y="190.0657">populates</text></g><!--MD5=[545fc9c4752ae2d5b313aeebc98132e8]
@startuml
title Classes - Class Diagram


class Website {
  Path localPath
  Collection<URL> siteURLs
  Collection<HTMLDocument> allPages
}

Class HTMLDocument {
  Path localPath
  Collection<StyleSheet> styles
  Collection<JavaScript> scripts
  Collection<Anchor> links
  Collection<Image> images
  
}

class Stylesheet {

}

class Script {

}

class Image {

}

class Anchor {
    URI path
    Classification linkType
    TargetType destinationType
}

enum Classification {
    INTERNAL
    INTRAPAGE
    EXTERNAL
}

enum TargetType {
    HTMLDOCUMENT
    ARCHIVE
    VIDEO
    AUDIO
}

class DocumentParser {

}

class WebsiteWalker {

}

class ExcelWriter {

}

class JSONWriter {

}

class TextWriter {

}

Website *- - HTMLDocument
DocumentParser - ->"populates" HTMLDocument
@enduml

PlantUML version 1.2022.7beta2(Unknown compile time)
(GPL source distribution)
Java Runtime: Java(TM) SE Runtime Environment
JVM: Java HotSpot(TM) 64-Bit Server VM
Default Encoding: UTF-8
Language: en
Country: US
--></g></svg>