<?xml version="1.0" encoding="UTF-8" standalone="no"?><svg xmlns="http://www.w3.org/2000/svg" xmlns:xlink="http://www.w3.org/1999/xlink" contentStyleType="text/css" height="337px" preserveAspectRatio="none" style="width:1729px;height:337px;background:#FFFFFF;" version="1.1" viewBox="0 0 1729 337" width="1729px" zoomAndPan="magnify"><defs/><g><rect height="26.2969" id="_title" style="stroke:#00000000;stroke-width:1.0;fill:none;" width="203" x="756" y="5"/><text fill="#000000" font-family="sans-serif" font-size="14" font-weight="bold" lengthAdjust="spacing" textLength="193" x="761" y="22.9951">Classes - Class Diagram</text><!--MD5=[3124add794188d75953438ffc4835d72]
class CLI--><g id="elem_CLI"><rect codeLine="3" fill="#F1F1F1" height="48" id="CLI" rx="2.5" ry="2.5" style="stroke:#181818;stroke-width:0.5;" width="54" x="43.5" y="68.7969"/><ellipse cx="58.5" cy="84.7969" fill="#ADD1B2" rx="11" ry="11" style="stroke:#181818;stroke-width:1.0;"/><path d="M60.8438,80.4688 C59.9063,80.0313 59.3125,79.8906 58.4375,79.8906 C55.8125,79.8906 53.8125,81.9688 53.8125,84.6875 L53.8125,85.8125 C53.8125,88.3906 55.9219,90.2813 58.8125,90.2813 C60.0313,90.2813 61.1875,89.9844 61.9375,89.4375 C62.5156,89.0313 62.8438,88.5781 62.8438,88.1875 C62.8438,87.7344 62.4531,87.3438 61.9844,87.3438 C61.7656,87.3438 61.5625,87.4219 61.375,87.6094 C60.9219,88.0938 60.9219,88.0938 60.7344,88.1875 C60.3125,88.4531 59.625,88.5781 58.8594,88.5781 C56.8125,88.5781 55.5156,87.4844 55.5156,85.7813 L55.5156,84.6875 C55.5156,82.9063 56.7656,81.5938 58.5,81.5938 C59.0781,81.5938 59.6875,81.75 60.1563,82 C60.6406,82.2813 60.8125,82.5 60.9063,82.9063 C60.9688,83.3125 61,83.4375 61.1406,83.5625 C61.2813,83.7031 61.5156,83.8125 61.7344,83.8125 C62,83.8125 62.2656,83.6719 62.4375,83.4531 C62.5469,83.2969 62.5781,83.1094 62.5781,82.6875 L62.5781,81.2656 C62.5781,80.8281 62.5625,80.7031 62.4688,80.5469 C62.3125,80.2813 62.0313,80.1406 61.7344,80.1406 C61.4375,80.1406 61.2344,80.2344 61.0156,80.5469 L60.8438,80.4688 Z " fill="#000000"/><text fill="#000000" font-family="sans-serif" font-size="14" lengthAdjust="spacing" textLength="22" x="72.5" y="89.6436">CLI</text><line style="stroke:#181818;stroke-width:0.5;" x1="44.5" x2="96.5" y1="100.7969" y2="100.7969"/><line style="stroke:#181818;stroke-width:0.5;" x1="44.5" x2="96.5" y1="108.7969" y2="108.7969"/></g><!--MD5=[815cba82121cd92ef12113cfa2e60c03]
class Website--><g id="elem_Website"><rect codeLine="7" fill="#F1F1F1" height="96.8906" id="Website" rx="2.5" ry="2.5" style="stroke:#181818;stroke-width:0.5;" width="283" x="487" y="44.2969"/><ellipse cx="594.25" cy="60.2969" fill="#ADD1B2" rx="11" ry="11" style="stroke:#181818;stroke-width:1.0;"/><path d="M596.5938,55.9688 C595.6563,55.5313 595.0625,55.3906 594.1875,55.3906 C591.5625,55.3906 589.5625,57.4688 589.5625,60.1875 L589.5625,61.3125 C589.5625,63.8906 591.6719,65.7813 594.5625,65.7813 C595.7813,65.7813 596.9375,65.4844 597.6875,64.9375 C598.2656,64.5313 598.5938,64.0781 598.5938,63.6875 C598.5938,63.2344 598.2031,62.8438 597.7344,62.8438 C597.5156,62.8438 597.3125,62.9219 597.125,63.1094 C596.6719,63.5938 596.6719,63.5938 596.4844,63.6875 C596.0625,63.9531 595.375,64.0781 594.6094,64.0781 C592.5625,64.0781 591.2656,62.9844 591.2656,61.2813 L591.2656,60.1875 C591.2656,58.4063 592.5156,57.0938 594.25,57.0938 C594.8281,57.0938 595.4375,57.25 595.9063,57.5 C596.3906,57.7813 596.5625,58 596.6563,58.4063 C596.7188,58.8125 596.75,58.9375 596.8906,59.0625 C597.0313,59.2031 597.2656,59.3125 597.4844,59.3125 C597.75,59.3125 598.0156,59.1719 598.1875,58.9531 C598.2969,58.7969 598.3281,58.6094 598.3281,58.1875 L598.3281,56.7656 C598.3281,56.3281 598.3125,56.2031 598.2188,56.0469 C598.0625,55.7813 597.7813,55.6406 597.4844,55.6406 C597.1875,55.6406 596.9844,55.7344 596.7656,56.0469 L596.5938,55.9688 Z " fill="#000000"/><text fill="#000000" font-family="sans-serif" font-size="14" lengthAdjust="spacing" textLength="60" x="614.75" y="65.1436">Website</text><line style="stroke:#181818;stroke-width:0.5;" x1="488" x2="769" y1="76.2969" y2="76.2969"/><text fill="#000000" font-family="sans-serif" font-size="14" lengthAdjust="spacing" textLength="103" x="493" y="93.292">Path localPath</text><text fill="#000000" font-family="sans-serif" font-size="14" lengthAdjust="spacing" textLength="187" x="493" y="109.5889">Collection&lt;URL&gt; siteURLs</text><text fill="#000000" font-family="sans-serif" font-size="14" lengthAdjust="spacing" textLength="271" x="493" y="125.8857">Collection&lt;HTMLDocument&gt; allPages</text><line style="stroke:#181818;stroke-width:0.5;" x1="488" x2="769" y1="133.1875" y2="133.1875"/></g><!--MD5=[bcf420f74c3688e6b767ba4d026321a0]
class HTMLDocument--><g id="elem_HTMLDocument"><rect codeLine="13" fill="#F1F1F1" height="129.4844" id="HTMLDocument" rx="2.5" ry="2.5" style="stroke:#181818;stroke-width:0.5;" width="233" x="596" y="201.2969"/><ellipse cx="651.25" cy="217.2969" fill="#ADD1B2" rx="11" ry="11" style="stroke:#181818;stroke-width:1.0;"/><path d="M653.5938,212.9688 C652.6563,212.5313 652.0625,212.3906 651.1875,212.3906 C648.5625,212.3906 646.5625,214.4688 646.5625,217.1875 L646.5625,218.3125 C646.5625,220.8906 648.6719,222.7813 651.5625,222.7813 C652.7813,222.7813 653.9375,222.4844 654.6875,221.9375 C655.2656,221.5313 655.5938,221.0781 655.5938,220.6875 C655.5938,220.2344 655.2031,219.8438 654.7344,219.8438 C654.5156,219.8438 654.3125,219.9219 654.125,220.1094 C653.6719,220.5938 653.6719,220.5938 653.4844,220.6875 C653.0625,220.9531 652.375,221.0781 651.6094,221.0781 C649.5625,221.0781 648.2656,219.9844 648.2656,218.2813 L648.2656,217.1875 C648.2656,215.4063 649.5156,214.0938 651.25,214.0938 C651.8281,214.0938 652.4375,214.25 652.9063,214.5 C653.3906,214.7813 653.5625,215 653.6563,215.4063 C653.7188,215.8125 653.75,215.9375 653.8906,216.0625 C654.0313,216.2031 654.2656,216.3125 654.4844,216.3125 C654.75,216.3125 655.0156,216.1719 655.1875,215.9531 C655.2969,215.7969 655.3281,215.6094 655.3281,215.1875 L655.3281,213.7656 C655.3281,213.3281 655.3125,213.2031 655.2188,213.0469 C655.0625,212.7813 654.7813,212.6406 654.4844,212.6406 C654.1875,212.6406 653.9844,212.7344 653.7656,213.0469 L653.5938,212.9688 Z " fill="#000000"/><text fill="#000000" font-family="sans-serif" font-size="14" lengthAdjust="spacing" textLength="114" x="671.75" y="222.1436">HTMLDocument</text><line style="stroke:#181818;stroke-width:0.5;" x1="597" x2="828" y1="233.2969" y2="233.2969"/><text fill="#000000" font-family="sans-serif" font-size="14" lengthAdjust="spacing" textLength="103" x="602" y="250.292">Path localPath</text><text fill="#000000" font-family="sans-serif" font-size="14" lengthAdjust="spacing" textLength="221" x="602" y="266.5889">Collection&lt;StyleSheet&gt; styles</text><text fill="#000000" font-family="sans-serif" font-size="14" lengthAdjust="spacing" textLength="220" x="602" y="282.8857">Collection&lt;JavaScript&gt; scripts</text><text fill="#000000" font-family="sans-serif" font-size="14" lengthAdjust="spacing" textLength="183" x="602" y="299.1826">Collection&lt;Anchor&gt; links</text><text fill="#000000" font-family="sans-serif" font-size="14" lengthAdjust="spacing" textLength="194" x="602" y="315.4795">Collection&lt;Image&gt; images</text><line style="stroke:#181818;stroke-width:0.5;" x1="597" x2="828" y1="322.7813" y2="322.7813"/></g><!--MD5=[60c9ed31c535bee25c55ce21b5b01399]
class Data--><g id="elem_Data"><rect codeLine="22" fill="#F1F1F1" height="48" id="Data" rx="2.5" ry="2.5" style="stroke:#181818;stroke-width:0.5;" width="66" x="132.5" y="68.7969"/><ellipse cx="147.5" cy="84.7969" fill="#ADD1B2" rx="11" ry="11" style="stroke:#181818;stroke-width:1.0;"/><path d="M149.8438,80.4688 C148.9063,80.0313 148.3125,79.8906 147.4375,79.8906 C144.8125,79.8906 142.8125,81.9688 142.8125,84.6875 L142.8125,85.8125 C142.8125,88.3906 144.9219,90.2813 147.8125,90.2813 C149.0313,90.2813 150.1875,89.9844 150.9375,89.4375 C151.5156,89.0313 151.8438,88.5781 151.8438,88.1875 C151.8438,87.7344 151.4531,87.3438 150.9844,87.3438 C150.7656,87.3438 150.5625,87.4219 150.375,87.6094 C149.9219,88.0938 149.9219,88.0938 149.7344,88.1875 C149.3125,88.4531 148.625,88.5781 147.8594,88.5781 C145.8125,88.5781 144.5156,87.4844 144.5156,85.7813 L144.5156,84.6875 C144.5156,82.9063 145.7656,81.5938 147.5,81.5938 C148.0781,81.5938 148.6875,81.75 149.1563,82 C149.6406,82.2813 149.8125,82.5 149.9063,82.9063 C149.9688,83.3125 150,83.4375 150.1406,83.5625 C150.2813,83.7031 150.5156,83.8125 150.7344,83.8125 C151,83.8125 151.2656,83.6719 151.4375,83.4531 C151.5469,83.2969 151.5781,83.1094 151.5781,82.6875 L151.5781,81.2656 C151.5781,80.8281 151.5625,80.7031 151.4688,80.5469 C151.3125,80.2813 151.0313,80.1406 150.7344,80.1406 C150.4375,80.1406 150.2344,80.2344 150.0156,80.5469 L149.8438,80.4688 Z " fill="#000000"/><text fill="#000000" font-family="sans-serif" font-size="14" lengthAdjust="spacing" textLength="34" x="161.5" y="89.6436">Data</text><line style="stroke:#181818;stroke-width:0.5;" x1="133.5" x2="197.5" y1="100.7969" y2="100.7969"/><line style="stroke:#181818;stroke-width:0.5;" x1="133.5" x2="197.5" y1="108.7969" y2="108.7969"/></g><!--MD5=[338ce9c25d678ef035e38d1a80dfcd29]
class Stylesheet--><g id="elem_Stylesheet"><rect codeLine="26" fill="#F1F1F1" height="48" id="Stylesheet" rx="2.5" ry="2.5" style="stroke:#181818;stroke-width:0.5;" width="110" x="945.5" y="241.7969"/><ellipse cx="960.5" cy="257.7969" fill="#ADD1B2" rx="11" ry="11" style="stroke:#181818;stroke-width:1.0;"/><path d="M962.8438,253.4688 C961.9063,253.0313 961.3125,252.8906 960.4375,252.8906 C957.8125,252.8906 955.8125,254.9688 955.8125,257.6875 L955.8125,258.8125 C955.8125,261.3906 957.9219,263.2813 960.8125,263.2813 C962.0313,263.2813 963.1875,262.9844 963.9375,262.4375 C964.5156,262.0313 964.8438,261.5781 964.8438,261.1875 C964.8438,260.7344 964.4531,260.3438 963.9844,260.3438 C963.7656,260.3438 963.5625,260.4219 963.375,260.6094 C962.9219,261.0938 962.9219,261.0938 962.7344,261.1875 C962.3125,261.4531 961.625,261.5781 960.8594,261.5781 C958.8125,261.5781 957.5156,260.4844 957.5156,258.7813 L957.5156,257.6875 C957.5156,255.9063 958.7656,254.5938 960.5,254.5938 C961.0781,254.5938 961.6875,254.75 962.1563,255 C962.6406,255.2813 962.8125,255.5 962.9063,255.9063 C962.9688,256.3125 963,256.4375 963.1406,256.5625 C963.2813,256.7031 963.5156,256.8125 963.7344,256.8125 C964,256.8125 964.2656,256.6719 964.4375,256.4531 C964.5469,256.2969 964.5781,256.1094 964.5781,255.6875 L964.5781,254.2656 C964.5781,253.8281 964.5625,253.7031 964.4688,253.5469 C964.3125,253.2813 964.0313,253.1406 963.7344,253.1406 C963.4375,253.1406 963.2344,253.2344 963.0156,253.5469 L962.8438,253.4688 Z " fill="#000000"/><text fill="#000000" font-family="sans-serif" font-size="14" lengthAdjust="spacing" textLength="78" x="974.5" y="262.6436">Stylesheet</text><line style="stroke:#181818;stroke-width:0.5;" x1="946.5" x2="1054.5" y1="273.7969" y2="273.7969"/><line style="stroke:#181818;stroke-width:0.5;" x1="946.5" x2="1054.5" y1="281.7969" y2="281.7969"/></g><!--MD5=[d0d7b0900e371541ba11cbff692d2bc7]
class Script--><g id="elem_Script"><rect codeLine="30" fill="#F1F1F1" height="48" id="Script" rx="2.5" ry="2.5" style="stroke:#181818;stroke-width:0.5;" width="76" x="1090.5" y="241.7969"/><ellipse cx="1105.5" cy="257.7969" fill="#ADD1B2" rx="11" ry="11" style="stroke:#181818;stroke-width:1.0;"/><path d="M1107.8438,253.4688 C1106.9063,253.0313 1106.3125,252.8906 1105.4375,252.8906 C1102.8125,252.8906 1100.8125,254.9688 1100.8125,257.6875 L1100.8125,258.8125 C1100.8125,261.3906 1102.9219,263.2813 1105.8125,263.2813 C1107.0313,263.2813 1108.1875,262.9844 1108.9375,262.4375 C1109.5156,262.0313 1109.8438,261.5781 1109.8438,261.1875 C1109.8438,260.7344 1109.4531,260.3438 1108.9844,260.3438 C1108.7656,260.3438 1108.5625,260.4219 1108.375,260.6094 C1107.9219,261.0938 1107.9219,261.0938 1107.7344,261.1875 C1107.3125,261.4531 1106.625,261.5781 1105.8594,261.5781 C1103.8125,261.5781 1102.5156,260.4844 1102.5156,258.7813 L1102.5156,257.6875 C1102.5156,255.9063 1103.7656,254.5938 1105.5,254.5938 C1106.0781,254.5938 1106.6875,254.75 1107.1563,255 C1107.6406,255.2813 1107.8125,255.5 1107.9063,255.9063 C1107.9688,256.3125 1108,256.4375 1108.1406,256.5625 C1108.2813,256.7031 1108.5156,256.8125 1108.7344,256.8125 C1109,256.8125 1109.2656,256.6719 1109.4375,256.4531 C1109.5469,256.2969 1109.5781,256.1094 1109.5781,255.6875 L1109.5781,254.2656 C1109.5781,253.8281 1109.5625,253.7031 1109.4688,253.5469 C1109.3125,253.2813 1109.0313,253.1406 1108.7344,253.1406 C1108.4375,253.1406 1108.2344,253.2344 1108.0156,253.5469 L1107.8438,253.4688 Z " fill="#000000"/><text fill="#000000" font-family="sans-serif" font-size="14" lengthAdjust="spacing" textLength="44" x="1119.5" y="262.6436">Script</text><line style="stroke:#181818;stroke-width:0.5;" x1="1091.5" x2="1165.5" y1="273.7969" y2="273.7969"/><line style="stroke:#181818;stroke-width:0.5;" x1="1091.5" x2="1165.5" y1="281.7969" y2="281.7969"/></g><!--MD5=[964f074a2dd77d134c21b891bb53e381]
class Image--><g id="elem_Image"><rect codeLine="34" fill="#F1F1F1" height="48" id="Image" rx="2.5" ry="2.5" style="stroke:#181818;stroke-width:0.5;" width="76" x="1201.5" y="241.7969"/><ellipse cx="1216.5" cy="257.7969" fill="#ADD1B2" rx="11" ry="11" style="stroke:#181818;stroke-width:1.0;"/><path d="M1218.8438,253.4688 C1217.9063,253.0313 1217.3125,252.8906 1216.4375,252.8906 C1213.8125,252.8906 1211.8125,254.9688 1211.8125,257.6875 L1211.8125,258.8125 C1211.8125,261.3906 1213.9219,263.2813 1216.8125,263.2813 C1218.0313,263.2813 1219.1875,262.9844 1219.9375,262.4375 C1220.5156,262.0313 1220.8438,261.5781 1220.8438,261.1875 C1220.8438,260.7344 1220.4531,260.3438 1219.9844,260.3438 C1219.7656,260.3438 1219.5625,260.4219 1219.375,260.6094 C1218.9219,261.0938 1218.9219,261.0938 1218.7344,261.1875 C1218.3125,261.4531 1217.625,261.5781 1216.8594,261.5781 C1214.8125,261.5781 1213.5156,260.4844 1213.5156,258.7813 L1213.5156,257.6875 C1213.5156,255.9063 1214.7656,254.5938 1216.5,254.5938 C1217.0781,254.5938 1217.6875,254.75 1218.1563,255 C1218.6406,255.2813 1218.8125,255.5 1218.9063,255.9063 C1218.9688,256.3125 1219,256.4375 1219.1406,256.5625 C1219.2813,256.7031 1219.5156,256.8125 1219.7344,256.8125 C1220,256.8125 1220.2656,256.6719 1220.4375,256.4531 C1220.5469,256.2969 1220.5781,256.1094 1220.5781,255.6875 L1220.5781,254.2656 C1220.5781,253.8281 1220.5625,253.7031 1220.4688,253.5469 C1220.3125,253.2813 1220.0313,253.1406 1219.7344,253.1406 C1219.4375,253.1406 1219.2344,253.2344 1219.0156,253.5469 L1218.8438,253.4688 Z " fill="#000000"/><text fill="#000000" font-family="sans-serif" font-size="14" lengthAdjust="spacing" textLength="44" x="1230.5" y="262.6436">Image</text><line style="stroke:#181818;stroke-width:0.5;" x1="1202.5" x2="1276.5" y1="273.7969" y2="273.7969"/><line style="stroke:#181818;stroke-width:0.5;" x1="1202.5" x2="1276.5" y1="281.7969" y2="281.7969"/></g><!--MD5=[8ec9fcce0f5c660aa28fe128722bc749]
class Anchor--><g id="elem_Anchor"><rect codeLine="38" fill="#F1F1F1" height="96.8906" id="Anchor" rx="2.5" ry="2.5" style="stroke:#181818;stroke-width:0.5;" width="218" x="233.5" y="44.2969"/><ellipse cx="312.75" cy="60.2969" fill="#ADD1B2" rx="11" ry="11" style="stroke:#181818;stroke-width:1.0;"/><path d="M315.0938,55.9688 C314.1563,55.5313 313.5625,55.3906 312.6875,55.3906 C310.0625,55.3906 308.0625,57.4688 308.0625,60.1875 L308.0625,61.3125 C308.0625,63.8906 310.1719,65.7813 313.0625,65.7813 C314.2813,65.7813 315.4375,65.4844 316.1875,64.9375 C316.7656,64.5313 317.0938,64.0781 317.0938,63.6875 C317.0938,63.2344 316.7031,62.8438 316.2344,62.8438 C316.0156,62.8438 315.8125,62.9219 315.625,63.1094 C315.1719,63.5938 315.1719,63.5938 314.9844,63.6875 C314.5625,63.9531 313.875,64.0781 313.1094,64.0781 C311.0625,64.0781 309.7656,62.9844 309.7656,61.2813 L309.7656,60.1875 C309.7656,58.4063 311.0156,57.0938 312.75,57.0938 C313.3281,57.0938 313.9375,57.25 314.4063,57.5 C314.8906,57.7813 315.0625,58 315.1563,58.4063 C315.2188,58.8125 315.25,58.9375 315.3906,59.0625 C315.5313,59.2031 315.7656,59.3125 315.9844,59.3125 C316.25,59.3125 316.5156,59.1719 316.6875,58.9531 C316.7969,58.7969 316.8281,58.6094 316.8281,58.1875 L316.8281,56.7656 C316.8281,56.3281 316.8125,56.2031 316.7188,56.0469 C316.5625,55.7813 316.2813,55.6406 315.9844,55.6406 C315.6875,55.6406 315.4844,55.7344 315.2656,56.0469 L315.0938,55.9688 Z " fill="#000000"/><text fill="#000000" font-family="sans-serif" font-size="14" lengthAdjust="spacing" textLength="51" x="333.25" y="65.1436">Anchor</text><line style="stroke:#181818;stroke-width:0.5;" x1="234.5" x2="450.5" y1="76.2969" y2="76.2969"/><text fill="#000000" font-family="sans-serif" font-size="14" lengthAdjust="spacing" textLength="61" x="239.5" y="93.292">URI path</text><text fill="#000000" font-family="sans-serif" font-size="14" lengthAdjust="spacing" textLength="161" x="239.5" y="109.5889">Classification linkType</text><text fill="#000000" font-family="sans-serif" font-size="14" lengthAdjust="spacing" textLength="206" x="239.5" y="125.8857">TargetType destinationType</text><line style="stroke:#181818;stroke-width:0.5;" x1="234.5" x2="450.5" y1="133.1875" y2="133.1875"/></g><!--MD5=[9c239722e256878d27dcbb07783cc14f]
class Classification--><g id="elem_Classification"><rect codeLine="44" fill="#F1F1F1" height="96.8906" id="Classification" rx="2.5" ry="2.5" style="stroke:#181818;stroke-width:0.5;" width="127" x="7" y="217.2969"/><ellipse cx="22" cy="233.2969" fill="#EB937F" rx="11" ry="11" style="stroke:#181818;stroke-width:1.0;"/><path d="M20.7969,234.1719 L22.25,234.1719 L22.25,234.2813 C22.25,234.6875 22.2813,234.8438 22.3594,235 C22.5156,235.25 22.7969,235.4063 23.0938,235.4063 C23.3438,235.4063 23.6094,235.2656 23.7656,235.0469 C23.8906,234.8906 23.9219,234.7344 23.9219,234.2813 L23.9219,232.3594 C23.9219,232.2031 23.9219,232.1563 23.9063,232 C23.8438,231.5313 23.5313,231.2188 23.0781,231.2188 C22.8281,231.2188 22.5625,231.3594 22.3906,231.5781 C22.2813,231.75 22.25,231.9063 22.25,232.3594 L22.25,232.4844 L20.7969,232.4844 L20.7969,230.0781 L24.7813,230.0781 L24.7813,230.9375 C24.7813,231.3438 24.8125,231.5156 24.8906,231.6719 C25.0625,231.9219 25.3438,232.0781 25.625,232.0781 C25.8906,232.0781 26.1563,231.9375 26.3281,231.7188 C26.4375,231.5469 26.4688,231.4063 26.4688,230.9375 L26.4688,228.3906 L18.8438,228.3906 C18.4063,228.3906 18.2813,228.4063 18.125,228.5 C17.875,228.6563 17.7188,228.9531 17.7188,229.2344 C17.7188,229.5156 17.8594,229.7656 18.0781,229.9375 C18.2344,230.0469 18.4219,230.0781 18.8438,230.0781 L19.0938,230.0781 L19.0938,236.5938 L18.8438,236.5938 C18.4375,236.5938 18.2813,236.6094 18.125,236.7188 C17.875,236.8906 17.7188,237.1563 17.7188,237.4531 C17.7188,237.7188 17.8594,237.9688 18.0781,238.125 C18.2188,238.25 18.4531,238.2969 18.8438,238.2969 L26.8438,238.2969 L26.8438,235.7188 C26.8438,235.2813 26.8125,235.1406 26.7344,234.9844 C26.5625,234.7344 26.2813,234.5781 26,234.5781 C25.7344,234.5781 25.4688,234.6875 25.2969,234.9375 C25.1875,235.0938 25.1563,235.2344 25.1563,235.7188 L25.1563,236.5938 L20.7969,236.5938 L20.7969,234.1719 Z " fill="#000000"/><text fill="#000000" font-family="sans-serif" font-size="14" lengthAdjust="spacing" textLength="95" x="36" y="238.1436">Classification</text><line style="stroke:#181818;stroke-width:0.5;" x1="8" x2="133" y1="249.2969" y2="249.2969"/><text fill="#000000" font-family="sans-serif" font-size="14" lengthAdjust="spacing" textLength="70" x="13" y="266.292">INTERNAL</text><text fill="#000000" font-family="sans-serif" font-size="14" lengthAdjust="spacing" textLength="82" x="13" y="282.5889">INTRAPAGE</text><text fill="#000000" font-family="sans-serif" font-size="14" lengthAdjust="spacing" textLength="75" x="13" y="298.8857">EXTERNAL</text><line style="stroke:#181818;stroke-width:0.5;" x1="8" x2="133" y1="306.1875" y2="306.1875"/></g><!--MD5=[6b88c977c6356073eb6ff477a844f5ef]
class TargetType--><g id="elem_TargetType"><rect codeLine="50" fill="#F1F1F1" height="113.1875" id="TargetType" rx="2.5" ry="2.5" style="stroke:#181818;stroke-width:0.5;" width="132" x="169.5" y="209.2969"/><ellipse cx="191.7" cy="225.2969" fill="#EB937F" rx="11" ry="11" style="stroke:#181818;stroke-width:1.0;"/><path d="M190.4969,226.1719 L191.95,226.1719 L191.95,226.2813 C191.95,226.6875 191.9813,226.8438 192.0594,227 C192.2156,227.25 192.4969,227.4063 192.7938,227.4063 C193.0438,227.4063 193.3094,227.2656 193.4656,227.0469 C193.5906,226.8906 193.6219,226.7344 193.6219,226.2813 L193.6219,224.3594 C193.6219,224.2031 193.6219,224.1563 193.6063,224 C193.5438,223.5313 193.2313,223.2188 192.7781,223.2188 C192.5281,223.2188 192.2625,223.3594 192.0906,223.5781 C191.9813,223.75 191.95,223.9063 191.95,224.3594 L191.95,224.4844 L190.4969,224.4844 L190.4969,222.0781 L194.4813,222.0781 L194.4813,222.9375 C194.4813,223.3438 194.5125,223.5156 194.5906,223.6719 C194.7625,223.9219 195.0438,224.0781 195.325,224.0781 C195.5906,224.0781 195.8563,223.9375 196.0281,223.7188 C196.1375,223.5469 196.1688,223.4063 196.1688,222.9375 L196.1688,220.3906 L188.5438,220.3906 C188.1063,220.3906 187.9813,220.4063 187.825,220.5 C187.575,220.6563 187.4188,220.9531 187.4188,221.2344 C187.4188,221.5156 187.5594,221.7656 187.7781,221.9375 C187.9344,222.0469 188.1219,222.0781 188.5438,222.0781 L188.7938,222.0781 L188.7938,228.5938 L188.5438,228.5938 C188.1375,228.5938 187.9813,228.6094 187.825,228.7188 C187.575,228.8906 187.4188,229.1563 187.4188,229.4531 C187.4188,229.7188 187.5594,229.9688 187.7781,230.125 C187.9188,230.25 188.1531,230.2969 188.5438,230.2969 L196.5438,230.2969 L196.5438,227.7188 C196.5438,227.2813 196.5125,227.1406 196.4344,226.9844 C196.2625,226.7344 195.9813,226.5781 195.7,226.5781 C195.4344,226.5781 195.1688,226.6875 194.9969,226.9375 C194.8875,227.0938 194.8563,227.2344 194.8563,227.7188 L194.8563,228.5938 L190.4969,228.5938 L190.4969,226.1719 Z " fill="#000000"/><text fill="#000000" font-family="sans-serif" font-size="14" lengthAdjust="spacing" textLength="84" x="207.3" y="230.1436">TargetType</text><line style="stroke:#181818;stroke-width:0.5;" x1="170.5" x2="300.5" y1="241.2969" y2="241.2969"/><text fill="#000000" font-family="sans-serif" font-size="14" lengthAdjust="spacing" textLength="120" x="175.5" y="258.292">HTMLDOCUMENT</text><text fill="#000000" font-family="sans-serif" font-size="14" lengthAdjust="spacing" textLength="63" x="175.5" y="274.5889">ARCHIVE</text><text fill="#000000" font-family="sans-serif" font-size="14" lengthAdjust="spacing" textLength="45" x="175.5" y="290.8857">VIDEO</text><text fill="#000000" font-family="sans-serif" font-size="14" lengthAdjust="spacing" textLength="45" x="175.5" y="307.1826">AUDIO</text><line style="stroke:#181818;stroke-width:0.5;" x1="170.5" x2="300.5" y1="314.4844" y2="314.4844"/></g><!--MD5=[7c190b8b1dfe1b6e4fe2dd41dafb8a73]
class DocumentParser--><g id="elem_DocumentParser"><rect codeLine="57" fill="#F1F1F1" height="48" id="DocumentParser" rx="2.5" ry="2.5" style="stroke:#181818;stroke-width:0.5;" width="152" x="805.5" y="68.7969"/><ellipse cx="820.5" cy="84.7969" fill="#ADD1B2" rx="11" ry="11" style="stroke:#181818;stroke-width:1.0;"/><path d="M822.8438,80.4688 C821.9063,80.0313 821.3125,79.8906 820.4375,79.8906 C817.8125,79.8906 815.8125,81.9688 815.8125,84.6875 L815.8125,85.8125 C815.8125,88.3906 817.9219,90.2813 820.8125,90.2813 C822.0313,90.2813 823.1875,89.9844 823.9375,89.4375 C824.5156,89.0313 824.8438,88.5781 824.8438,88.1875 C824.8438,87.7344 824.4531,87.3438 823.9844,87.3438 C823.7656,87.3438 823.5625,87.4219 823.375,87.6094 C822.9219,88.0938 822.9219,88.0938 822.7344,88.1875 C822.3125,88.4531 821.625,88.5781 820.8594,88.5781 C818.8125,88.5781 817.5156,87.4844 817.5156,85.7813 L817.5156,84.6875 C817.5156,82.9063 818.7656,81.5938 820.5,81.5938 C821.0781,81.5938 821.6875,81.75 822.1563,82 C822.6406,82.2813 822.8125,82.5 822.9063,82.9063 C822.9688,83.3125 823,83.4375 823.1406,83.5625 C823.2813,83.7031 823.5156,83.8125 823.7344,83.8125 C824,83.8125 824.2656,83.6719 824.4375,83.4531 C824.5469,83.2969 824.5781,83.1094 824.5781,82.6875 L824.5781,81.2656 C824.5781,80.8281 824.5625,80.7031 824.4688,80.5469 C824.3125,80.2813 824.0313,80.1406 823.7344,80.1406 C823.4375,80.1406 823.2344,80.2344 823.0156,80.5469 L822.8438,80.4688 Z " fill="#000000"/><text fill="#000000" font-family="sans-serif" font-size="14" lengthAdjust="spacing" textLength="120" x="834.5" y="89.6436">DocumentParser</text><line style="stroke:#181818;stroke-width:0.5;" x1="806.5" x2="956.5" y1="100.7969" y2="100.7969"/><line style="stroke:#181818;stroke-width:0.5;" x1="806.5" x2="956.5" y1="108.7969" y2="108.7969"/></g><!--MD5=[8d026b3fc0bdbb692efad180ad9bcbdb]
class WebsiteWalker--><g id="elem_WebsiteWalker"><rect codeLine="61" fill="#F1F1F1" height="48" id="WebsiteWalker" rx="2.5" ry="2.5" style="stroke:#181818;stroke-width:0.5;" width="142" x="336.5" y="241.7969"/><ellipse cx="351.5" cy="257.7969" fill="#ADD1B2" rx="11" ry="11" style="stroke:#181818;stroke-width:1.0;"/><path d="M353.8438,253.4688 C352.9063,253.0313 352.3125,252.8906 351.4375,252.8906 C348.8125,252.8906 346.8125,254.9688 346.8125,257.6875 L346.8125,258.8125 C346.8125,261.3906 348.9219,263.2813 351.8125,263.2813 C353.0313,263.2813 354.1875,262.9844 354.9375,262.4375 C355.5156,262.0313 355.8438,261.5781 355.8438,261.1875 C355.8438,260.7344 355.4531,260.3438 354.9844,260.3438 C354.7656,260.3438 354.5625,260.4219 354.375,260.6094 C353.9219,261.0938 353.9219,261.0938 353.7344,261.1875 C353.3125,261.4531 352.625,261.5781 351.8594,261.5781 C349.8125,261.5781 348.5156,260.4844 348.5156,258.7813 L348.5156,257.6875 C348.5156,255.9063 349.7656,254.5938 351.5,254.5938 C352.0781,254.5938 352.6875,254.75 353.1563,255 C353.6406,255.2813 353.8125,255.5 353.9063,255.9063 C353.9688,256.3125 354,256.4375 354.1406,256.5625 C354.2813,256.7031 354.5156,256.8125 354.7344,256.8125 C355,256.8125 355.2656,256.6719 355.4375,256.4531 C355.5469,256.2969 355.5781,256.1094 355.5781,255.6875 L355.5781,254.2656 C355.5781,253.8281 355.5625,253.7031 355.4688,253.5469 C355.3125,253.2813 355.0313,253.1406 354.7344,253.1406 C354.4375,253.1406 354.2344,253.2344 354.0156,253.5469 L353.8438,253.4688 Z " fill="#000000"/><text fill="#000000" font-family="sans-serif" font-size="14" lengthAdjust="spacing" textLength="110" x="365.5" y="262.6436">WebsiteWalker</text><line style="stroke:#181818;stroke-width:0.5;" x1="337.5" x2="477.5" y1="273.7969" y2="273.7969"/><line style="stroke:#181818;stroke-width:0.5;" x1="337.5" x2="477.5" y1="281.7969" y2="281.7969"/></g><!--MD5=[b1d71236a8e0f0324c69076c01455084]
class ReportWriter--><g id="elem_ReportWriter"><rect codeLine="65" fill="#F1F1F1" height="48" id="ReportWriter" rx="2.5" ry="2.5" style="stroke:#181818;stroke-width:0.5;" width="129" x="1455" y="68.7969"/><ellipse cx="1470" cy="84.7969" fill="#ADD1B2" rx="11" ry="11" style="stroke:#181818;stroke-width:1.0;"/><path d="M1472.3438,80.4688 C1471.4063,80.0313 1470.8125,79.8906 1469.9375,79.8906 C1467.3125,79.8906 1465.3125,81.9688 1465.3125,84.6875 L1465.3125,85.8125 C1465.3125,88.3906 1467.4219,90.2813 1470.3125,90.2813 C1471.5313,90.2813 1472.6875,89.9844 1473.4375,89.4375 C1474.0156,89.0313 1474.3438,88.5781 1474.3438,88.1875 C1474.3438,87.7344 1473.9531,87.3438 1473.4844,87.3438 C1473.2656,87.3438 1473.0625,87.4219 1472.875,87.6094 C1472.4219,88.0938 1472.4219,88.0938 1472.2344,88.1875 C1471.8125,88.4531 1471.125,88.5781 1470.3594,88.5781 C1468.3125,88.5781 1467.0156,87.4844 1467.0156,85.7813 L1467.0156,84.6875 C1467.0156,82.9063 1468.2656,81.5938 1470,81.5938 C1470.5781,81.5938 1471.1875,81.75 1471.6563,82 C1472.1406,82.2813 1472.3125,82.5 1472.4063,82.9063 C1472.4688,83.3125 1472.5,83.4375 1472.6406,83.5625 C1472.7813,83.7031 1473.0156,83.8125 1473.2344,83.8125 C1473.5,83.8125 1473.7656,83.6719 1473.9375,83.4531 C1474.0469,83.2969 1474.0781,83.1094 1474.0781,82.6875 L1474.0781,81.2656 C1474.0781,80.8281 1474.0625,80.7031 1473.9688,80.5469 C1473.8125,80.2813 1473.5313,80.1406 1473.2344,80.1406 C1472.9375,80.1406 1472.7344,80.2344 1472.5156,80.5469 L1472.3438,80.4688 Z " fill="#000000"/><text fill="#000000" font-family="sans-serif" font-size="14" lengthAdjust="spacing" textLength="97" x="1484" y="89.6436">ReportWriter</text><line style="stroke:#181818;stroke-width:0.5;" x1="1456" x2="1583" y1="100.7969" y2="100.7969"/><line style="stroke:#181818;stroke-width:0.5;" x1="1456" x2="1583" y1="108.7969" y2="108.7969"/></g><!--MD5=[c174e74861e59bb18ea4e9964ccb306e]
class ExcelWriter--><g id="elem_ExcelWriter"><rect codeLine="69" fill="#F1F1F1" height="48" id="ExcelWriter" rx="2.5" ry="2.5" style="stroke:#181818;stroke-width:0.5;" width="116" x="1312.5" y="241.7969"/><ellipse cx="1327.5" cy="257.7969" fill="#ADD1B2" rx="11" ry="11" style="stroke:#181818;stroke-width:1.0;"/><path d="M1329.8438,253.4688 C1328.9063,253.0313 1328.3125,252.8906 1327.4375,252.8906 C1324.8125,252.8906 1322.8125,254.9688 1322.8125,257.6875 L1322.8125,258.8125 C1322.8125,261.3906 1324.9219,263.2813 1327.8125,263.2813 C1329.0313,263.2813 1330.1875,262.9844 1330.9375,262.4375 C1331.5156,262.0313 1331.8438,261.5781 1331.8438,261.1875 C1331.8438,260.7344 1331.4531,260.3438 1330.9844,260.3438 C1330.7656,260.3438 1330.5625,260.4219 1330.375,260.6094 C1329.9219,261.0938 1329.9219,261.0938 1329.7344,261.1875 C1329.3125,261.4531 1328.625,261.5781 1327.8594,261.5781 C1325.8125,261.5781 1324.5156,260.4844 1324.5156,258.7813 L1324.5156,257.6875 C1324.5156,255.9063 1325.7656,254.5938 1327.5,254.5938 C1328.0781,254.5938 1328.6875,254.75 1329.1563,255 C1329.6406,255.2813 1329.8125,255.5 1329.9063,255.9063 C1329.9688,256.3125 1330,256.4375 1330.1406,256.5625 C1330.2813,256.7031 1330.5156,256.8125 1330.7344,256.8125 C1331,256.8125 1331.2656,256.6719 1331.4375,256.4531 C1331.5469,256.2969 1331.5781,256.1094 1331.5781,255.6875 L1331.5781,254.2656 C1331.5781,253.8281 1331.5625,253.7031 1331.4688,253.5469 C1331.3125,253.2813 1331.0313,253.1406 1330.7344,253.1406 C1330.4375,253.1406 1330.2344,253.2344 1330.0156,253.5469 L1329.8438,253.4688 Z " fill="#000000"/><text fill="#000000" font-family="sans-serif" font-size="14" lengthAdjust="spacing" textLength="84" x="1341.5" y="262.6436">ExcelWriter</text><line style="stroke:#181818;stroke-width:0.5;" x1="1313.5" x2="1427.5" y1="273.7969" y2="273.7969"/><line style="stroke:#181818;stroke-width:0.5;" x1="1313.5" x2="1427.5" y1="281.7969" y2="281.7969"/></g><!--MD5=[1e45380920adb9e0da633e09815b8bbd]
class JSONWriter--><g id="elem_JSONWriter"><rect codeLine="73" fill="#F1F1F1" height="48" id="JSONWriter" rx="2.5" ry="2.5" style="stroke:#181818;stroke-width:0.5;" width="112" x="1463.5" y="241.7969"/><ellipse cx="1478.5" cy="257.7969" fill="#ADD1B2" rx="11" ry="11" style="stroke:#181818;stroke-width:1.0;"/><path d="M1480.8438,253.4688 C1479.9063,253.0313 1479.3125,252.8906 1478.4375,252.8906 C1475.8125,252.8906 1473.8125,254.9688 1473.8125,257.6875 L1473.8125,258.8125 C1473.8125,261.3906 1475.9219,263.2813 1478.8125,263.2813 C1480.0313,263.2813 1481.1875,262.9844 1481.9375,262.4375 C1482.5156,262.0313 1482.8438,261.5781 1482.8438,261.1875 C1482.8438,260.7344 1482.4531,260.3438 1481.9844,260.3438 C1481.7656,260.3438 1481.5625,260.4219 1481.375,260.6094 C1480.9219,261.0938 1480.9219,261.0938 1480.7344,261.1875 C1480.3125,261.4531 1479.625,261.5781 1478.8594,261.5781 C1476.8125,261.5781 1475.5156,260.4844 1475.5156,258.7813 L1475.5156,257.6875 C1475.5156,255.9063 1476.7656,254.5938 1478.5,254.5938 C1479.0781,254.5938 1479.6875,254.75 1480.1563,255 C1480.6406,255.2813 1480.8125,255.5 1480.9063,255.9063 C1480.9688,256.3125 1481,256.4375 1481.1406,256.5625 C1481.2813,256.7031 1481.5156,256.8125 1481.7344,256.8125 C1482,256.8125 1482.2656,256.6719 1482.4375,256.4531 C1482.5469,256.2969 1482.5781,256.1094 1482.5781,255.6875 L1482.5781,254.2656 C1482.5781,253.8281 1482.5625,253.7031 1482.4688,253.5469 C1482.3125,253.2813 1482.0313,253.1406 1481.7344,253.1406 C1481.4375,253.1406 1481.2344,253.2344 1481.0156,253.5469 L1480.8438,253.4688 Z " fill="#000000"/><text fill="#000000" font-family="sans-serif" font-size="14" lengthAdjust="spacing" textLength="80" x="1492.5" y="262.6436">JSONWriter</text><line style="stroke:#181818;stroke-width:0.5;" x1="1464.5" x2="1574.5" y1="273.7969" y2="273.7969"/><line style="stroke:#181818;stroke-width:0.5;" x1="1464.5" x2="1574.5" y1="281.7969" y2="281.7969"/></g><!--MD5=[52212348725bd98b317369cba209c9f9]
class TextWriter--><g id="elem_TextWriter"><rect codeLine="77" fill="#F1F1F1" height="48" id="TextWriter" rx="2.5" ry="2.5" style="stroke:#181818;stroke-width:0.5;" width="111" x="1611" y="241.7969"/><ellipse cx="1626" cy="257.7969" fill="#ADD1B2" rx="11" ry="11" style="stroke:#181818;stroke-width:1.0;"/><path d="M1628.3438,253.4688 C1627.4063,253.0313 1626.8125,252.8906 1625.9375,252.8906 C1623.3125,252.8906 1621.3125,254.9688 1621.3125,257.6875 L1621.3125,258.8125 C1621.3125,261.3906 1623.4219,263.2813 1626.3125,263.2813 C1627.5313,263.2813 1628.6875,262.9844 1629.4375,262.4375 C1630.0156,262.0313 1630.3438,261.5781 1630.3438,261.1875 C1630.3438,260.7344 1629.9531,260.3438 1629.4844,260.3438 C1629.2656,260.3438 1629.0625,260.4219 1628.875,260.6094 C1628.4219,261.0938 1628.4219,261.0938 1628.2344,261.1875 C1627.8125,261.4531 1627.125,261.5781 1626.3594,261.5781 C1624.3125,261.5781 1623.0156,260.4844 1623.0156,258.7813 L1623.0156,257.6875 C1623.0156,255.9063 1624.2656,254.5938 1626,254.5938 C1626.5781,254.5938 1627.1875,254.75 1627.6563,255 C1628.1406,255.2813 1628.3125,255.5 1628.4063,255.9063 C1628.4688,256.3125 1628.5,256.4375 1628.6406,256.5625 C1628.7813,256.7031 1629.0156,256.8125 1629.2344,256.8125 C1629.5,256.8125 1629.7656,256.6719 1629.9375,256.4531 C1630.0469,256.2969 1630.0781,256.1094 1630.0781,255.6875 L1630.0781,254.2656 C1630.0781,253.8281 1630.0625,253.7031 1629.9688,253.5469 C1629.8125,253.2813 1629.5313,253.1406 1629.2344,253.1406 C1628.9375,253.1406 1628.7344,253.2344 1628.5156,253.5469 L1628.3438,253.4688 Z " fill="#000000"/><text fill="#000000" font-family="sans-serif" font-size="14" lengthAdjust="spacing" textLength="79" x="1640" y="262.6436">TextWriter</text><line style="stroke:#181818;stroke-width:0.5;" x1="1612" x2="1721" y1="273.7969" y2="273.7969"/><line style="stroke:#181818;stroke-width:0.5;" x1="1612" x2="1721" y1="281.7969" y2="281.7969"/></g><!--MD5=[6b13f1b330d33795af281e5c1dfe1e98]
class Resource--><g id="elem_Resource"><rect fill="#F1F1F1" height="48" id="Resource" rx="2.5" ry="2.5" style="stroke:#181818;stroke-width:0.5;" width="98" x="1079.5" y="68.7969"/><ellipse cx="1094.5" cy="84.7969" fill="#ADD1B2" rx="11" ry="11" style="stroke:#181818;stroke-width:1.0;"/><path d="M1096.8438,80.4688 C1095.9063,80.0313 1095.3125,79.8906 1094.4375,79.8906 C1091.8125,79.8906 1089.8125,81.9688 1089.8125,84.6875 L1089.8125,85.8125 C1089.8125,88.3906 1091.9219,90.2813 1094.8125,90.2813 C1096.0313,90.2813 1097.1875,89.9844 1097.9375,89.4375 C1098.5156,89.0313 1098.8438,88.5781 1098.8438,88.1875 C1098.8438,87.7344 1098.4531,87.3438 1097.9844,87.3438 C1097.7656,87.3438 1097.5625,87.4219 1097.375,87.6094 C1096.9219,88.0938 1096.9219,88.0938 1096.7344,88.1875 C1096.3125,88.4531 1095.625,88.5781 1094.8594,88.5781 C1092.8125,88.5781 1091.5156,87.4844 1091.5156,85.7813 L1091.5156,84.6875 C1091.5156,82.9063 1092.7656,81.5938 1094.5,81.5938 C1095.0781,81.5938 1095.6875,81.75 1096.1563,82 C1096.6406,82.2813 1096.8125,82.5 1096.9063,82.9063 C1096.9688,83.3125 1097,83.4375 1097.1406,83.5625 C1097.2813,83.7031 1097.5156,83.8125 1097.7344,83.8125 C1098,83.8125 1098.2656,83.6719 1098.4375,83.4531 C1098.5469,83.2969 1098.5781,83.1094 1098.5781,82.6875 L1098.5781,81.2656 C1098.5781,80.8281 1098.5625,80.7031 1098.4688,80.5469 C1098.3125,80.2813 1098.0313,80.1406 1097.7344,80.1406 C1097.4375,80.1406 1097.2344,80.2344 1097.0156,80.5469 L1096.8438,80.4688 Z " fill="#000000"/><text fill="#000000" font-family="sans-serif" font-size="14" lengthAdjust="spacing" textLength="66" x="1108.5" y="89.6436">Resource</text><line style="stroke:#181818;stroke-width:0.5;" x1="1080.5" x2="1176.5" y1="100.7969" y2="100.7969"/><line style="stroke:#181818;stroke-width:0.5;" x1="1080.5" x2="1176.5" y1="108.7969" y2="108.7969"/></g><!--MD5=[7eb5579bb1e5de3e3500d453a491cc68]
reverse link Resource to Stylesheet--><g id="link_Resource_Stylesheet"><path codeLine="81" d="M1099.17,132.9819 C1074.06,166.5209 1038.76,213.6789 1017.9,241.5543 " fill="none" id="Resource-backto-Stylesheet" style="stroke:#181818;stroke-width:1.0;"/><polygon fill="none" points="1093.65,128.6749,1111.24,116.8589,1104.86,137.0649,1093.65,128.6749" style="stroke:#181818;stroke-width:1.0;"/></g><!--MD5=[08653377d56acf693c8ea5fc5fa21c2e]
reverse link Resource to Script--><g id="link_Resource_Script"><path codeLine="82" d="M1128.5,137.2029 C1128.5,170.3819 1128.5,214.8299 1128.5,241.5543 " fill="none" id="Resource-backto-Script" style="stroke:#181818;stroke-width:1.0;"/><polygon fill="none" points="1121.5,136.8589,1128.5,116.8589,1135.5,136.8589,1121.5,136.8589" style="stroke:#181818;stroke-width:1.0;"/></g><!--MD5=[719c70d5e1279dfb8712711ae9c3c9f3]
reverse link Resource to Image--><g id="link_Resource_Image"><path codeLine="83" d="M1154.54,133.9089 C1176.27,167.3849 1206.48,213.9349 1224.41,241.5543 " fill="none" id="Resource-backto-Image" style="stroke:#181818;stroke-width:1.0;"/><polygon fill="none" points="1148.49,137.4459,1143.47,116.8589,1160.23,129.8229,1148.49,137.4459" style="stroke:#181818;stroke-width:1.0;"/></g><!--MD5=[6b75cd9725488452eb6e7f65272e60d9]
reverse link ReportWriter to ExcelWriter--><g id="link_ReportWriter_ExcelWriter"><path codeLine="85" d="M1486.16,132.0619 C1456.89,165.6539 1415.26,213.4229 1390.75,241.5543 " fill="none" id="ReportWriter-backto-ExcelWriter" style="stroke:#181818;stroke-width:1.0;"/><polygon fill="none" points="1480.99,127.3389,1499.41,116.8589,1491.54,136.5359,1480.99,127.3389" style="stroke:#181818;stroke-width:1.0;"/></g><!--MD5=[3a01cb5e43ff8fab2145c420d9725fe7]
reverse link ReportWriter to JSONWriter--><g id="link_ReportWriter_JSONWriter"><path codeLine="86" d="M1519.5,137.2029 C1519.5,170.3819 1519.5,214.8299 1519.5,241.5543 " fill="none" id="ReportWriter-backto-JSONWriter" style="stroke:#181818;stroke-width:1.0;"/><polygon fill="none" points="1512.5,136.8589,1519.5,116.8589,1526.5,136.8589,1512.5,136.8589" style="stroke:#181818;stroke-width:1.0;"/></g><!--MD5=[714c21ab9ffd54ebeb519b54f5e37187]
reverse link ReportWriter to TextWriter--><g id="link_ReportWriter_TextWriter"><path codeLine="87" d="M1552.39,132.0619 C1581.27,165.6539 1622.34,213.4229 1646.52,241.5543 " fill="none" id="ReportWriter-backto-TextWriter" style="stroke:#181818;stroke-width:1.0;"/><polygon fill="none" points="1547.05,136.5879,1539.33,116.8589,1557.67,127.4619,1547.05,136.5879" style="stroke:#181818;stroke-width:1.0;"/></g><!--MD5=[f92983f9253e85900549fc9fe80d4541]
reverse link Website to HTMLDocument--><g id="link_Website_HTMLDocument"><path codeLine="89" d="M657.816,153.4759 C665.383,168.8799 673.556,185.5179 681.219,201.1169 " fill="none" id="Website-backto-HTMLDocument" style="stroke:#181818;stroke-width:1.0;"/><polygon fill="#181818" points="651.899,141.4299,650.9543,148.5788,657.19,152.2005,658.1347,145.0515,651.899,141.4299" style="stroke:#181818;stroke-width:1.0;"/></g><!--MD5=[58b551701a553d187ad516f0da7361ec]
link DocumentParser to HTMLDocument--><g id="link_DocumentParser_HTMLDocument"><path codeLine="90" d="M858.708,116.8589 C838.359,137.4489 807.511,168.6609 779.388,197.1179 " fill="none" id="DocumentParser-to-HTMLDocument" style="stroke:#181818;stroke-width:1.0;"/><polygon fill="#181818" points="775.617,200.9329,784.7878,197.3417,779.131,197.376,779.0968,191.7192,775.617,200.9329" style="stroke:#181818;stroke-width:1.0;"/><text fill="#000000" font-family="sans-serif" font-size="13" lengthAdjust="spacing" textLength="63" x="716.0751" y="190.0657">populates</text></g><!--MD5=[8f74c454449f59d547e938f10d986304]
@startuml
title Classes - Class Diagram

class CLI {

}

class Website {
  Path localPath
  Collection<URL> siteURLs
  Collection<HTMLDocument> allPages
}

Class HTMLDocument {
  Path localPath
  Collection<StyleSheet> styles
  Collection<JavaScript> scripts
  Collection<Anchor> links
  Collection<Image> images
  
}

class Data {

}

class Stylesheet {

}

class Script {

}

class Image {

}

class Anchor {
    URI path
    Classification linkType
    TargetType destinationType
}

enum Classification {
    INTERNAL
    INTRAPAGE
    EXTERNAL
}

enum TargetType {
    HTMLDOCUMENT
    ARCHIVE
    VIDEO
    AUDIO
}

class DocumentParser {

}

class WebsiteWalker {

}

class ReportWriter {

}

class ExcelWriter {

}

class JSONWriter {

}

class TextWriter {

}

Resource<|- -Stylesheet
Resource<|- -Script
Resource<|- -Image

ReportWriter<|- -ExcelWriter
ReportWriter<|- -JSONWriter
ReportWriter<|- -TextWriter

Website *- - HTMLDocument
DocumentParser - ->"populates" HTMLDocument
@enduml

PlantUML version 1.2022.7beta2(Unknown compile time)
(GPL source distribution)
Java Runtime: Java(TM) SE Runtime Environment
JVM: Java HotSpot(TM) 64-Bit Server VM
Default Encoding: UTF-8
Language: en
Country: US
--></g></svg>