<?xml version="1.0" encoding="UTF-8" standalone="no"?><svg xmlns="http://www.w3.org/2000/svg" xmlns:xlink="http://www.w3.org/1999/xlink" contentStyleType="text/css" height="369px" preserveAspectRatio="none" style="width:1880px;height:369px;background:#FFFFFF;" version="1.1" viewBox="0 0 1880 369" width="1880px" zoomAndPan="magnify"><defs/><g><rect height="26.2969" id="_title" style="stroke:#00000000;stroke-width:1.0;fill:none;" width="203" x="831.75" y="5"/><text fill="#000000" font-family="sans-serif" font-size="14" font-weight="bold" lengthAdjust="spacing" textLength="193" x="836.75" y="22.9951">Classes - Class Diagram</text><!--MD5=[3124add794188d75953438ffc4835d72]
class CLI--><g id="elem_CLI"><rect codeLine="3" fill="#F1F1F1" height="48" id="CLI" rx="2.5" ry="2.5" style="stroke:#181818;stroke-width:0.5;" width="54" x="45" y="84.7969"/><ellipse cx="60" cy="100.7969" fill="#ADD1B2" rx="11" ry="11" style="stroke:#181818;stroke-width:1.0;"/><path d="M62.3438,96.4688 C61.4063,96.0313 60.8125,95.8906 59.9375,95.8906 C57.3125,95.8906 55.3125,97.9688 55.3125,100.6875 L55.3125,101.8125 C55.3125,104.3906 57.4219,106.2813 60.3125,106.2813 C61.5313,106.2813 62.6875,105.9844 63.4375,105.4375 C64.0156,105.0313 64.3438,104.5781 64.3438,104.1875 C64.3438,103.7344 63.9531,103.3438 63.4844,103.3438 C63.2656,103.3438 63.0625,103.4219 62.875,103.6094 C62.4219,104.0938 62.4219,104.0938 62.2344,104.1875 C61.8125,104.4531 61.125,104.5781 60.3594,104.5781 C58.3125,104.5781 57.0156,103.4844 57.0156,101.7813 L57.0156,100.6875 C57.0156,98.9063 58.2656,97.5938 60,97.5938 C60.5781,97.5938 61.1875,97.75 61.6563,98 C62.1406,98.2813 62.3125,98.5 62.4063,98.9063 C62.4688,99.3125 62.5,99.4375 62.6406,99.5625 C62.7813,99.7031 63.0156,99.8125 63.2344,99.8125 C63.5,99.8125 63.7656,99.6719 63.9375,99.4531 C64.0469,99.2969 64.0781,99.1094 64.0781,98.6875 L64.0781,97.2656 C64.0781,96.8281 64.0625,96.7031 63.9688,96.5469 C63.8125,96.2813 63.5313,96.1406 63.2344,96.1406 C62.9375,96.1406 62.7344,96.2344 62.5156,96.5469 L62.3438,96.4688 Z " fill="#000000"/><text fill="#000000" font-family="sans-serif" font-size="14" lengthAdjust="spacing" textLength="22" x="74" y="105.6436">CLI</text><line style="stroke:#181818;stroke-width:0.5;" x1="46" x2="98" y1="116.7969" y2="116.7969"/><line style="stroke:#181818;stroke-width:0.5;" x1="46" x2="98" y1="124.7969" y2="124.7969"/></g><!--MD5=[815cba82121cd92ef12113cfa2e60c03]
class Website--><g id="elem_Website"><rect codeLine="7" fill="#F1F1F1" height="96.8906" id="Website" rx="2.5" ry="2.5" style="stroke:#181818;stroke-width:0.5;" width="283" x="299.5" y="60.2969"/><ellipse cx="406.75" cy="76.2969" fill="#ADD1B2" rx="11" ry="11" style="stroke:#181818;stroke-width:1.0;"/><path d="M409.0938,71.9688 C408.1563,71.5313 407.5625,71.3906 406.6875,71.3906 C404.0625,71.3906 402.0625,73.4688 402.0625,76.1875 L402.0625,77.3125 C402.0625,79.8906 404.1719,81.7813 407.0625,81.7813 C408.2813,81.7813 409.4375,81.4844 410.1875,80.9375 C410.7656,80.5313 411.0938,80.0781 411.0938,79.6875 C411.0938,79.2344 410.7031,78.8438 410.2344,78.8438 C410.0156,78.8438 409.8125,78.9219 409.625,79.1094 C409.1719,79.5938 409.1719,79.5938 408.9844,79.6875 C408.5625,79.9531 407.875,80.0781 407.1094,80.0781 C405.0625,80.0781 403.7656,78.9844 403.7656,77.2813 L403.7656,76.1875 C403.7656,74.4063 405.0156,73.0938 406.75,73.0938 C407.3281,73.0938 407.9375,73.25 408.4063,73.5 C408.8906,73.7813 409.0625,74 409.1563,74.4063 C409.2188,74.8125 409.25,74.9375 409.3906,75.0625 C409.5313,75.2031 409.7656,75.3125 409.9844,75.3125 C410.25,75.3125 410.5156,75.1719 410.6875,74.9531 C410.7969,74.7969 410.8281,74.6094 410.8281,74.1875 L410.8281,72.7656 C410.8281,72.3281 410.8125,72.2031 410.7188,72.0469 C410.5625,71.7813 410.2813,71.6406 409.9844,71.6406 C409.6875,71.6406 409.4844,71.7344 409.2656,72.0469 L409.0938,71.9688 Z " fill="#000000"/><text fill="#000000" font-family="sans-serif" font-size="14" lengthAdjust="spacing" textLength="60" x="427.25" y="81.1436">Website</text><line style="stroke:#181818;stroke-width:0.5;" x1="300.5" x2="581.5" y1="92.2969" y2="92.2969"/><text fill="#000000" font-family="sans-serif" font-size="14" lengthAdjust="spacing" textLength="103" x="305.5" y="109.292">Path localPath</text><text fill="#000000" font-family="sans-serif" font-size="14" lengthAdjust="spacing" textLength="187" x="305.5" y="125.5889">Collection&lt;URL&gt; siteURLs</text><text fill="#000000" font-family="sans-serif" font-size="14" lengthAdjust="spacing" textLength="271" x="305.5" y="141.8857">Collection&lt;HTMLDocument&gt; allPages</text><line style="stroke:#181818;stroke-width:0.5;" x1="300.5" x2="581.5" y1="149.1875" y2="149.1875"/></g><!--MD5=[bcf420f74c3688e6b767ba4d026321a0]
class HTMLDocument--><g id="elem_HTMLDocument"><rect codeLine="13" fill="#F1F1F1" height="129.4844" id="HTMLDocument" rx="2.5" ry="2.5" style="stroke:#181818;stroke-width:0.5;" width="233" x="442.5" y="233.2969"/><ellipse cx="497.75" cy="249.2969" fill="#ADD1B2" rx="11" ry="11" style="stroke:#181818;stroke-width:1.0;"/><path d="M500.0938,244.9688 C499.1563,244.5313 498.5625,244.3906 497.6875,244.3906 C495.0625,244.3906 493.0625,246.4688 493.0625,249.1875 L493.0625,250.3125 C493.0625,252.8906 495.1719,254.7813 498.0625,254.7813 C499.2813,254.7813 500.4375,254.4844 501.1875,253.9375 C501.7656,253.5313 502.0938,253.0781 502.0938,252.6875 C502.0938,252.2344 501.7031,251.8438 501.2344,251.8438 C501.0156,251.8438 500.8125,251.9219 500.625,252.1094 C500.1719,252.5938 500.1719,252.5938 499.9844,252.6875 C499.5625,252.9531 498.875,253.0781 498.1094,253.0781 C496.0625,253.0781 494.7656,251.9844 494.7656,250.2813 L494.7656,249.1875 C494.7656,247.4063 496.0156,246.0938 497.75,246.0938 C498.3281,246.0938 498.9375,246.25 499.4063,246.5 C499.8906,246.7813 500.0625,247 500.1563,247.4063 C500.2188,247.8125 500.25,247.9375 500.3906,248.0625 C500.5313,248.2031 500.7656,248.3125 500.9844,248.3125 C501.25,248.3125 501.5156,248.1719 501.6875,247.9531 C501.7969,247.7969 501.8281,247.6094 501.8281,247.1875 L501.8281,245.7656 C501.8281,245.3281 501.8125,245.2031 501.7188,245.0469 C501.5625,244.7813 501.2813,244.6406 500.9844,244.6406 C500.6875,244.6406 500.4844,244.7344 500.2656,245.0469 L500.0938,244.9688 Z " fill="#000000"/><text fill="#000000" font-family="sans-serif" font-size="14" lengthAdjust="spacing" textLength="114" x="518.25" y="254.1436">HTMLDocument</text><line style="stroke:#181818;stroke-width:0.5;" x1="443.5" x2="674.5" y1="265.2969" y2="265.2969"/><text fill="#000000" font-family="sans-serif" font-size="14" lengthAdjust="spacing" textLength="103" x="448.5" y="282.292">Path localPath</text><text fill="#000000" font-family="sans-serif" font-size="14" lengthAdjust="spacing" textLength="221" x="448.5" y="298.5889">Collection&lt;StyleSheet&gt; styles</text><text fill="#000000" font-family="sans-serif" font-size="14" lengthAdjust="spacing" textLength="220" x="448.5" y="314.8857">Collection&lt;JavaScript&gt; scripts</text><text fill="#000000" font-family="sans-serif" font-size="14" lengthAdjust="spacing" textLength="183" x="448.5" y="331.1826">Collection&lt;Anchor&gt; links</text><text fill="#000000" font-family="sans-serif" font-size="14" lengthAdjust="spacing" textLength="194" x="448.5" y="347.4795">Collection&lt;Image&gt; images</text><line style="stroke:#181818;stroke-width:0.5;" x1="443.5" x2="674.5" y1="354.7813" y2="354.7813"/></g><!--MD5=[7c190b8b1dfe1b6e4fe2dd41dafb8a73]
class DocumentParser--><g id="elem_DocumentParser"><rect codeLine="22" fill="#F1F1F1" height="80.5938" id="DocumentParser" rx="2.5" ry="2.5" style="stroke:#181818;stroke-width:0.5;" width="245" x="617.5" y="68.2969"/><ellipse cx="675.75" cy="84.2969" fill="#ADD1B2" rx="11" ry="11" style="stroke:#181818;stroke-width:1.0;"/><path d="M678.0938,79.9688 C677.1563,79.5313 676.5625,79.3906 675.6875,79.3906 C673.0625,79.3906 671.0625,81.4688 671.0625,84.1875 L671.0625,85.3125 C671.0625,87.8906 673.1719,89.7813 676.0625,89.7813 C677.2813,89.7813 678.4375,89.4844 679.1875,88.9375 C679.7656,88.5313 680.0938,88.0781 680.0938,87.6875 C680.0938,87.2344 679.7031,86.8438 679.2344,86.8438 C679.0156,86.8438 678.8125,86.9219 678.625,87.1094 C678.1719,87.5938 678.1719,87.5938 677.9844,87.6875 C677.5625,87.9531 676.875,88.0781 676.1094,88.0781 C674.0625,88.0781 672.7656,86.9844 672.7656,85.2813 L672.7656,84.1875 C672.7656,82.4063 674.0156,81.0938 675.75,81.0938 C676.3281,81.0938 676.9375,81.25 677.4063,81.5 C677.8906,81.7813 678.0625,82 678.1563,82.4063 C678.2188,82.8125 678.25,82.9375 678.3906,83.0625 C678.5313,83.2031 678.7656,83.3125 678.9844,83.3125 C679.25,83.3125 679.5156,83.1719 679.6875,82.9531 C679.7969,82.7969 679.8281,82.6094 679.8281,82.1875 L679.8281,80.7656 C679.8281,80.3281 679.8125,80.2031 679.7188,80.0469 C679.5625,79.7813 679.2813,79.6406 678.9844,79.6406 C678.6875,79.6406 678.4844,79.7344 678.2656,80.0469 L678.0938,79.9688 Z " fill="#000000"/><text fill="#000000" font-family="sans-serif" font-size="14" lengthAdjust="spacing" textLength="120" x="696.25" y="89.1436">DocumentParser</text><line style="stroke:#181818;stroke-width:0.5;" x1="618.5" x2="861.5" y1="100.2969" y2="100.2969"/><line style="stroke:#181818;stroke-width:0.5;" x1="618.5" x2="861.5" y1="108.2969" y2="108.2969"/><text fill="#000000" font-family="sans-serif" font-size="14" lengthAdjust="spacing" textLength="233" x="623.5" y="125.292">DocumentParser(Path localPath)</text><text fill="#000000" font-family="sans-serif" font-size="14" lengthAdjust="spacing" textLength="163" x="623.5" y="141.5889">HTMLDocument build()</text></g><!--MD5=[6b13f1b330d33795af281e5c1dfe1e98]
class Resource--><g id="elem_Resource"><rect codeLine="27" fill="#F1F1F1" height="80.5938" id="Resource" rx="2.5" ry="2.5" style="stroke:#181818;stroke-width:0.5;" width="173" x="984.5" y="68.2969"/><ellipse cx="1033.75" cy="84.2969" fill="#ADD1B2" rx="11" ry="11" style="stroke:#181818;stroke-width:1.0;"/><path d="M1036.0938,79.9688 C1035.1563,79.5313 1034.5625,79.3906 1033.6875,79.3906 C1031.0625,79.3906 1029.0625,81.4688 1029.0625,84.1875 L1029.0625,85.3125 C1029.0625,87.8906 1031.1719,89.7813 1034.0625,89.7813 C1035.2813,89.7813 1036.4375,89.4844 1037.1875,88.9375 C1037.7656,88.5313 1038.0938,88.0781 1038.0938,87.6875 C1038.0938,87.2344 1037.7031,86.8438 1037.2344,86.8438 C1037.0156,86.8438 1036.8125,86.9219 1036.625,87.1094 C1036.1719,87.5938 1036.1719,87.5938 1035.9844,87.6875 C1035.5625,87.9531 1034.875,88.0781 1034.1094,88.0781 C1032.0625,88.0781 1030.7656,86.9844 1030.7656,85.2813 L1030.7656,84.1875 C1030.7656,82.4063 1032.0156,81.0938 1033.75,81.0938 C1034.3281,81.0938 1034.9375,81.25 1035.4063,81.5 C1035.8906,81.7813 1036.0625,82 1036.1563,82.4063 C1036.2188,82.8125 1036.25,82.9375 1036.3906,83.0625 C1036.5313,83.2031 1036.7656,83.3125 1036.9844,83.3125 C1037.25,83.3125 1037.5156,83.1719 1037.6875,82.9531 C1037.7969,82.7969 1037.8281,82.6094 1037.8281,82.1875 L1037.8281,80.7656 C1037.8281,80.3281 1037.8125,80.2031 1037.7188,80.0469 C1037.5625,79.7813 1037.2813,79.6406 1036.9844,79.6406 C1036.6875,79.6406 1036.4844,79.7344 1036.2656,80.0469 L1036.0938,79.9688 Z " fill="#000000"/><text fill="#000000" font-family="sans-serif" font-size="14" lengthAdjust="spacing" textLength="66" x="1054.25" y="89.1436">Resource</text><line style="stroke:#181818;stroke-width:0.5;" x1="985.5" x2="1156.5" y1="100.2969" y2="100.2969"/><text fill="#000000" font-family="sans-serif" font-size="14" lengthAdjust="spacing" textLength="61" x="990.5" y="117.292">URI path</text><text fill="#000000" font-family="sans-serif" font-size="14" lengthAdjust="spacing" textLength="161" x="990.5" y="133.5889">Classification linkType</text><line style="stroke:#181818;stroke-width:0.5;" x1="985.5" x2="1156.5" y1="140.8906" y2="140.8906"/></g><!--MD5=[8ec9fcce0f5c660aa28fe128722bc749]
class Anchor--><g id="elem_Anchor"><rect codeLine="33" fill="#F1F1F1" height="48" id="Anchor" rx="2.5" ry="2.5" style="stroke:#181818;stroke-width:0.5;" width="83" x="803.5" y="273.7969"/><ellipse cx="818.5" cy="289.7969" fill="#ADD1B2" rx="11" ry="11" style="stroke:#181818;stroke-width:1.0;"/><path d="M820.8438,285.4688 C819.9063,285.0313 819.3125,284.8906 818.4375,284.8906 C815.8125,284.8906 813.8125,286.9688 813.8125,289.6875 L813.8125,290.8125 C813.8125,293.3906 815.9219,295.2813 818.8125,295.2813 C820.0313,295.2813 821.1875,294.9844 821.9375,294.4375 C822.5156,294.0313 822.8438,293.5781 822.8438,293.1875 C822.8438,292.7344 822.4531,292.3438 821.9844,292.3438 C821.7656,292.3438 821.5625,292.4219 821.375,292.6094 C820.9219,293.0938 820.9219,293.0938 820.7344,293.1875 C820.3125,293.4531 819.625,293.5781 818.8594,293.5781 C816.8125,293.5781 815.5156,292.4844 815.5156,290.7813 L815.5156,289.6875 C815.5156,287.9063 816.7656,286.5938 818.5,286.5938 C819.0781,286.5938 819.6875,286.75 820.1563,287 C820.6406,287.2813 820.8125,287.5 820.9063,287.9063 C820.9688,288.3125 821,288.4375 821.1406,288.5625 C821.2813,288.7031 821.5156,288.8125 821.7344,288.8125 C822,288.8125 822.2656,288.6719 822.4375,288.4531 C822.5469,288.2969 822.5781,288.1094 822.5781,287.6875 L822.5781,286.2656 C822.5781,285.8281 822.5625,285.7031 822.4688,285.5469 C822.3125,285.2813 822.0313,285.1406 821.7344,285.1406 C821.4375,285.1406 821.2344,285.2344 821.0156,285.5469 L820.8438,285.4688 Z " fill="#000000"/><text fill="#000000" font-family="sans-serif" font-size="14" lengthAdjust="spacing" textLength="51" x="832.5" y="294.6436">Anchor</text><line style="stroke:#181818;stroke-width:0.5;" x1="804.5" x2="885.5" y1="305.7969" y2="305.7969"/><line style="stroke:#181818;stroke-width:0.5;" x1="804.5" x2="885.5" y1="313.7969" y2="313.7969"/></g><!--MD5=[964f074a2dd77d134c21b891bb53e381]
class Image--><g id="elem_Image"><rect codeLine="37" fill="#F1F1F1" height="48" id="Image" rx="2.5" ry="2.5" style="stroke:#181818;stroke-width:0.5;" width="76" x="922" y="273.7969"/><ellipse cx="937" cy="289.7969" fill="#ADD1B2" rx="11" ry="11" style="stroke:#181818;stroke-width:1.0;"/><path d="M939.3438,285.4688 C938.4063,285.0313 937.8125,284.8906 936.9375,284.8906 C934.3125,284.8906 932.3125,286.9688 932.3125,289.6875 L932.3125,290.8125 C932.3125,293.3906 934.4219,295.2813 937.3125,295.2813 C938.5313,295.2813 939.6875,294.9844 940.4375,294.4375 C941.0156,294.0313 941.3438,293.5781 941.3438,293.1875 C941.3438,292.7344 940.9531,292.3438 940.4844,292.3438 C940.2656,292.3438 940.0625,292.4219 939.875,292.6094 C939.4219,293.0938 939.4219,293.0938 939.2344,293.1875 C938.8125,293.4531 938.125,293.5781 937.3594,293.5781 C935.3125,293.5781 934.0156,292.4844 934.0156,290.7813 L934.0156,289.6875 C934.0156,287.9063 935.2656,286.5938 937,286.5938 C937.5781,286.5938 938.1875,286.75 938.6563,287 C939.1406,287.2813 939.3125,287.5 939.4063,287.9063 C939.4688,288.3125 939.5,288.4375 939.6406,288.5625 C939.7813,288.7031 940.0156,288.8125 940.2344,288.8125 C940.5,288.8125 940.7656,288.6719 940.9375,288.4531 C941.0469,288.2969 941.0781,288.1094 941.0781,287.6875 L941.0781,286.2656 C941.0781,285.8281 941.0625,285.7031 940.9688,285.5469 C940.8125,285.2813 940.5313,285.1406 940.2344,285.1406 C939.9375,285.1406 939.7344,285.2344 939.5156,285.5469 L939.3438,285.4688 Z " fill="#000000"/><text fill="#000000" font-family="sans-serif" font-size="14" lengthAdjust="spacing" textLength="44" x="951" y="294.6436">Image</text><line style="stroke:#181818;stroke-width:0.5;" x1="923" x2="997" y1="305.7969" y2="305.7969"/><line style="stroke:#181818;stroke-width:0.5;" x1="923" x2="997" y1="313.7969" y2="313.7969"/></g><!--MD5=[d0d7b0900e371541ba11cbff692d2bc7]
class Script--><g id="elem_Script"><rect codeLine="41" fill="#F1F1F1" height="48" id="Script" rx="2.5" ry="2.5" style="stroke:#181818;stroke-width:0.5;" width="76" x="1033" y="273.7969"/><ellipse cx="1048" cy="289.7969" fill="#ADD1B2" rx="11" ry="11" style="stroke:#181818;stroke-width:1.0;"/><path d="M1050.3438,285.4688 C1049.4063,285.0313 1048.8125,284.8906 1047.9375,284.8906 C1045.3125,284.8906 1043.3125,286.9688 1043.3125,289.6875 L1043.3125,290.8125 C1043.3125,293.3906 1045.4219,295.2813 1048.3125,295.2813 C1049.5313,295.2813 1050.6875,294.9844 1051.4375,294.4375 C1052.0156,294.0313 1052.3438,293.5781 1052.3438,293.1875 C1052.3438,292.7344 1051.9531,292.3438 1051.4844,292.3438 C1051.2656,292.3438 1051.0625,292.4219 1050.875,292.6094 C1050.4219,293.0938 1050.4219,293.0938 1050.2344,293.1875 C1049.8125,293.4531 1049.125,293.5781 1048.3594,293.5781 C1046.3125,293.5781 1045.0156,292.4844 1045.0156,290.7813 L1045.0156,289.6875 C1045.0156,287.9063 1046.2656,286.5938 1048,286.5938 C1048.5781,286.5938 1049.1875,286.75 1049.6563,287 C1050.1406,287.2813 1050.3125,287.5 1050.4063,287.9063 C1050.4688,288.3125 1050.5,288.4375 1050.6406,288.5625 C1050.7813,288.7031 1051.0156,288.8125 1051.2344,288.8125 C1051.5,288.8125 1051.7656,288.6719 1051.9375,288.4531 C1052.0469,288.2969 1052.0781,288.1094 1052.0781,287.6875 L1052.0781,286.2656 C1052.0781,285.8281 1052.0625,285.7031 1051.9688,285.5469 C1051.8125,285.2813 1051.5313,285.1406 1051.2344,285.1406 C1050.9375,285.1406 1050.7344,285.2344 1050.5156,285.5469 L1050.3438,285.4688 Z " fill="#000000"/><text fill="#000000" font-family="sans-serif" font-size="14" lengthAdjust="spacing" textLength="44" x="1062" y="294.6436">Script</text><line style="stroke:#181818;stroke-width:0.5;" x1="1034" x2="1108" y1="305.7969" y2="305.7969"/><line style="stroke:#181818;stroke-width:0.5;" x1="1034" x2="1108" y1="313.7969" y2="313.7969"/></g><!--MD5=[338ce9c25d678ef035e38d1a80dfcd29]
class Stylesheet--><g id="elem_Stylesheet"><rect codeLine="45" fill="#F1F1F1" height="48" id="Stylesheet" rx="2.5" ry="2.5" style="stroke:#181818;stroke-width:0.5;" width="110" x="1144" y="273.7969"/><ellipse cx="1159" cy="289.7969" fill="#ADD1B2" rx="11" ry="11" style="stroke:#181818;stroke-width:1.0;"/><path d="M1161.3438,285.4688 C1160.4063,285.0313 1159.8125,284.8906 1158.9375,284.8906 C1156.3125,284.8906 1154.3125,286.9688 1154.3125,289.6875 L1154.3125,290.8125 C1154.3125,293.3906 1156.4219,295.2813 1159.3125,295.2813 C1160.5313,295.2813 1161.6875,294.9844 1162.4375,294.4375 C1163.0156,294.0313 1163.3438,293.5781 1163.3438,293.1875 C1163.3438,292.7344 1162.9531,292.3438 1162.4844,292.3438 C1162.2656,292.3438 1162.0625,292.4219 1161.875,292.6094 C1161.4219,293.0938 1161.4219,293.0938 1161.2344,293.1875 C1160.8125,293.4531 1160.125,293.5781 1159.3594,293.5781 C1157.3125,293.5781 1156.0156,292.4844 1156.0156,290.7813 L1156.0156,289.6875 C1156.0156,287.9063 1157.2656,286.5938 1159,286.5938 C1159.5781,286.5938 1160.1875,286.75 1160.6563,287 C1161.1406,287.2813 1161.3125,287.5 1161.4063,287.9063 C1161.4688,288.3125 1161.5,288.4375 1161.6406,288.5625 C1161.7813,288.7031 1162.0156,288.8125 1162.2344,288.8125 C1162.5,288.8125 1162.7656,288.6719 1162.9375,288.4531 C1163.0469,288.2969 1163.0781,288.1094 1163.0781,287.6875 L1163.0781,286.2656 C1163.0781,285.8281 1163.0625,285.7031 1162.9688,285.5469 C1162.8125,285.2813 1162.5313,285.1406 1162.2344,285.1406 C1161.9375,285.1406 1161.7344,285.2344 1161.5156,285.5469 L1161.3438,285.4688 Z " fill="#000000"/><text fill="#000000" font-family="sans-serif" font-size="14" lengthAdjust="spacing" textLength="78" x="1173" y="294.6436">Stylesheet</text><line style="stroke:#181818;stroke-width:0.5;" x1="1145" x2="1253" y1="305.7969" y2="305.7969"/><line style="stroke:#181818;stroke-width:0.5;" x1="1145" x2="1253" y1="313.7969" y2="313.7969"/></g><!--MD5=[756d2278f92b229372a1ddd061ac5618]
class OtherResource--><g id="elem_OtherResource"><rect codeLine="49" fill="#F1F1F1" height="48" id="OtherResource" rx="2.5" ry="2.5" style="stroke:#181818;stroke-width:0.5;" width="140" x="1289" y="273.7969"/><ellipse cx="1304" cy="289.7969" fill="#ADD1B2" rx="11" ry="11" style="stroke:#181818;stroke-width:1.0;"/><path d="M1306.3438,285.4688 C1305.4063,285.0313 1304.8125,284.8906 1303.9375,284.8906 C1301.3125,284.8906 1299.3125,286.9688 1299.3125,289.6875 L1299.3125,290.8125 C1299.3125,293.3906 1301.4219,295.2813 1304.3125,295.2813 C1305.5313,295.2813 1306.6875,294.9844 1307.4375,294.4375 C1308.0156,294.0313 1308.3438,293.5781 1308.3438,293.1875 C1308.3438,292.7344 1307.9531,292.3438 1307.4844,292.3438 C1307.2656,292.3438 1307.0625,292.4219 1306.875,292.6094 C1306.4219,293.0938 1306.4219,293.0938 1306.2344,293.1875 C1305.8125,293.4531 1305.125,293.5781 1304.3594,293.5781 C1302.3125,293.5781 1301.0156,292.4844 1301.0156,290.7813 L1301.0156,289.6875 C1301.0156,287.9063 1302.2656,286.5938 1304,286.5938 C1304.5781,286.5938 1305.1875,286.75 1305.6563,287 C1306.1406,287.2813 1306.3125,287.5 1306.4063,287.9063 C1306.4688,288.3125 1306.5,288.4375 1306.6406,288.5625 C1306.7813,288.7031 1307.0156,288.8125 1307.2344,288.8125 C1307.5,288.8125 1307.7656,288.6719 1307.9375,288.4531 C1308.0469,288.2969 1308.0781,288.1094 1308.0781,287.6875 L1308.0781,286.2656 C1308.0781,285.8281 1308.0625,285.7031 1307.9688,285.5469 C1307.8125,285.2813 1307.5313,285.1406 1307.2344,285.1406 C1306.9375,285.1406 1306.7344,285.2344 1306.5156,285.5469 L1306.3438,285.4688 Z " fill="#000000"/><text fill="#000000" font-family="sans-serif" font-size="14" lengthAdjust="spacing" textLength="108" x="1318" y="294.6436">OtherResource</text><line style="stroke:#181818;stroke-width:0.5;" x1="1290" x2="1428" y1="305.7969" y2="305.7969"/><line style="stroke:#181818;stroke-width:0.5;" x1="1290" x2="1428" y1="313.7969" y2="313.7969"/></g><!--MD5=[9c239722e256878d27dcbb07783cc14f]
class Classification--><g id="elem_Classification"><rect codeLine="53" fill="#F1F1F1" height="129.4844" id="Classification" rx="2.5" ry="2.5" style="stroke:#181818;stroke-width:0.5;" width="130" x="134" y="44.2969"/><ellipse cx="150.35" cy="60.2969" fill="#EB937F" rx="11" ry="11" style="stroke:#181818;stroke-width:1.0;"/><path d="M149.1469,61.1719 L150.6,61.1719 L150.6,61.2813 C150.6,61.6875 150.6313,61.8438 150.7094,62 C150.8656,62.25 151.1469,62.4063 151.4438,62.4063 C151.6938,62.4063 151.9594,62.2656 152.1156,62.0469 C152.2406,61.8906 152.2719,61.7344 152.2719,61.2813 L152.2719,59.3594 C152.2719,59.2031 152.2719,59.1563 152.2563,59 C152.1938,58.5313 151.8813,58.2188 151.4281,58.2188 C151.1781,58.2188 150.9125,58.3594 150.7406,58.5781 C150.6313,58.75 150.6,58.9063 150.6,59.3594 L150.6,59.4844 L149.1469,59.4844 L149.1469,57.0781 L153.1313,57.0781 L153.1313,57.9375 C153.1313,58.3438 153.1625,58.5156 153.2406,58.6719 C153.4125,58.9219 153.6938,59.0781 153.975,59.0781 C154.2406,59.0781 154.5063,58.9375 154.6781,58.7188 C154.7875,58.5469 154.8188,58.4063 154.8188,57.9375 L154.8188,55.3906 L147.1938,55.3906 C146.7563,55.3906 146.6313,55.4063 146.475,55.5 C146.225,55.6563 146.0688,55.9531 146.0688,56.2344 C146.0688,56.5156 146.2094,56.7656 146.4281,56.9375 C146.5844,57.0469 146.7719,57.0781 147.1938,57.0781 L147.4438,57.0781 L147.4438,63.5938 L147.1938,63.5938 C146.7875,63.5938 146.6313,63.6094 146.475,63.7188 C146.225,63.8906 146.0688,64.1563 146.0688,64.4531 C146.0688,64.7188 146.2094,64.9688 146.4281,65.125 C146.5688,65.25 146.8031,65.2969 147.1938,65.2969 L155.1938,65.2969 L155.1938,62.7188 C155.1938,62.2813 155.1625,62.1406 155.0844,61.9844 C154.9125,61.7344 154.6313,61.5781 154.35,61.5781 C154.0844,61.5781 153.8188,61.6875 153.6469,61.9375 C153.5375,62.0938 153.5063,62.2344 153.5063,62.7188 L153.5063,63.5938 L149.1469,63.5938 L149.1469,61.1719 Z " fill="#000000"/><text fill="#000000" font-family="sans-serif" font-size="14" lengthAdjust="spacing" textLength="95" x="164.65" y="65.1436">Classification</text><line style="stroke:#181818;stroke-width:0.5;" x1="135" x2="263" y1="76.2969" y2="76.2969"/><text fill="#000000" font-family="sans-serif" font-size="14" lengthAdjust="spacing" textLength="70" x="140" y="93.292">INTERNAL</text><text fill="#000000" font-family="sans-serif" font-size="14" lengthAdjust="spacing" textLength="82" x="140" y="109.5889">INTRAPAGE</text><text fill="#000000" font-family="sans-serif" font-size="14" lengthAdjust="spacing" textLength="74" x="140" y="125.8857">INTRASITE</text><text fill="#000000" font-family="sans-serif" font-size="14" lengthAdjust="spacing" textLength="75" x="140" y="142.1826">EXTERNAL</text><line style="stroke:#181818;stroke-width:0.5;" x1="135" x2="263" y1="149.4844" y2="149.4844"/><text fill="#000000" font-family="sans-serif" font-size="14" lengthAdjust="spacing" textLength="118" x="140" y="166.4795">String toString()</text></g><!--MD5=[6b88c977c6356073eb6ff477a844f5ef]
class TargetType--><g id="elem_TargetType"><rect codeLine="62" fill="#F1F1F1" height="129.4844" id="TargetType" rx="2.5" ry="2.5" style="stroke:#181818;stroke-width:0.5;" width="130" x="7" y="233.2969"/><ellipse cx="28.3" cy="249.2969" fill="#EB937F" rx="11" ry="11" style="stroke:#181818;stroke-width:1.0;"/><path d="M27.0969,250.1719 L28.55,250.1719 L28.55,250.2813 C28.55,250.6875 28.5813,250.8438 28.6594,251 C28.8156,251.25 29.0969,251.4063 29.3938,251.4063 C29.6438,251.4063 29.9094,251.2656 30.0656,251.0469 C30.1906,250.8906 30.2219,250.7344 30.2219,250.2813 L30.2219,248.3594 C30.2219,248.2031 30.2219,248.1563 30.2063,248 C30.1438,247.5313 29.8313,247.2188 29.3781,247.2188 C29.1281,247.2188 28.8625,247.3594 28.6906,247.5781 C28.5813,247.75 28.55,247.9063 28.55,248.3594 L28.55,248.4844 L27.0969,248.4844 L27.0969,246.0781 L31.0813,246.0781 L31.0813,246.9375 C31.0813,247.3438 31.1125,247.5156 31.1906,247.6719 C31.3625,247.9219 31.6438,248.0781 31.925,248.0781 C32.1906,248.0781 32.4563,247.9375 32.6281,247.7188 C32.7375,247.5469 32.7688,247.4063 32.7688,246.9375 L32.7688,244.3906 L25.1438,244.3906 C24.7063,244.3906 24.5813,244.4063 24.425,244.5 C24.175,244.6563 24.0188,244.9531 24.0188,245.2344 C24.0188,245.5156 24.1594,245.7656 24.3781,245.9375 C24.5344,246.0469 24.7219,246.0781 25.1438,246.0781 L25.3938,246.0781 L25.3938,252.5938 L25.1438,252.5938 C24.7375,252.5938 24.5813,252.6094 24.425,252.7188 C24.175,252.8906 24.0188,253.1563 24.0188,253.4531 C24.0188,253.7188 24.1594,253.9688 24.3781,254.125 C24.5188,254.25 24.7531,254.2969 25.1438,254.2969 L33.1438,254.2969 L33.1438,251.7188 C33.1438,251.2813 33.1125,251.1406 33.0344,250.9844 C32.8625,250.7344 32.5813,250.5781 32.3,250.5781 C32.0344,250.5781 31.7688,250.6875 31.5969,250.9375 C31.4875,251.0938 31.4563,251.2344 31.4563,251.7188 L31.4563,252.5938 L27.0969,252.5938 L27.0969,250.1719 Z " fill="#000000"/><text fill="#000000" font-family="sans-serif" font-size="14" lengthAdjust="spacing" textLength="84" x="43.7" y="254.1436">TargetType</text><line style="stroke:#181818;stroke-width:0.5;" x1="8" x2="136" y1="265.2969" y2="265.2969"/><text fill="#000000" font-family="sans-serif" font-size="14" lengthAdjust="spacing" textLength="63" x="13" y="282.292">ARCHIVE</text><text fill="#000000" font-family="sans-serif" font-size="14" lengthAdjust="spacing" textLength="45" x="13" y="298.5889">AUDIO</text><text fill="#000000" font-family="sans-serif" font-size="14" lengthAdjust="spacing" textLength="45" x="13" y="314.8857">VIDEO</text><text fill="#000000" font-family="sans-serif" font-size="14" lengthAdjust="spacing" textLength="49" x="13" y="331.1826">OTHER</text><line style="stroke:#181818;stroke-width:0.5;" x1="8" x2="136" y1="338.4844" y2="338.4844"/><text fill="#000000" font-family="sans-serif" font-size="14" lengthAdjust="spacing" textLength="118" x="13" y="355.4795">String toString()</text></g><!--MD5=[8d026b3fc0bdbb692efad180ad9bcbdb]
class WebsiteWalker--><g id="elem_WebsiteWalker"><rect codeLine="71" fill="#F1F1F1" height="48" id="WebsiteWalker" rx="2.5" ry="2.5" style="stroke:#181818;stroke-width:0.5;" width="142" x="172" y="273.7969"/><ellipse cx="187" cy="289.7969" fill="#ADD1B2" rx="11" ry="11" style="stroke:#181818;stroke-width:1.0;"/><path d="M189.3438,285.4688 C188.4063,285.0313 187.8125,284.8906 186.9375,284.8906 C184.3125,284.8906 182.3125,286.9688 182.3125,289.6875 L182.3125,290.8125 C182.3125,293.3906 184.4219,295.2813 187.3125,295.2813 C188.5313,295.2813 189.6875,294.9844 190.4375,294.4375 C191.0156,294.0313 191.3438,293.5781 191.3438,293.1875 C191.3438,292.7344 190.9531,292.3438 190.4844,292.3438 C190.2656,292.3438 190.0625,292.4219 189.875,292.6094 C189.4219,293.0938 189.4219,293.0938 189.2344,293.1875 C188.8125,293.4531 188.125,293.5781 187.3594,293.5781 C185.3125,293.5781 184.0156,292.4844 184.0156,290.7813 L184.0156,289.6875 C184.0156,287.9063 185.2656,286.5938 187,286.5938 C187.5781,286.5938 188.1875,286.75 188.6563,287 C189.1406,287.2813 189.3125,287.5 189.4063,287.9063 C189.4688,288.3125 189.5,288.4375 189.6406,288.5625 C189.7813,288.7031 190.0156,288.8125 190.2344,288.8125 C190.5,288.8125 190.7656,288.6719 190.9375,288.4531 C191.0469,288.2969 191.0781,288.1094 191.0781,287.6875 L191.0781,286.2656 C191.0781,285.8281 191.0625,285.7031 190.9688,285.5469 C190.8125,285.2813 190.5313,285.1406 190.2344,285.1406 C189.9375,285.1406 189.7344,285.2344 189.5156,285.5469 L189.3438,285.4688 Z " fill="#000000"/><text fill="#000000" font-family="sans-serif" font-size="14" lengthAdjust="spacing" textLength="110" x="201" y="294.6436">WebsiteWalker</text><line style="stroke:#181818;stroke-width:0.5;" x1="173" x2="313" y1="305.7969" y2="305.7969"/><line style="stroke:#181818;stroke-width:0.5;" x1="173" x2="313" y1="313.7969" y2="313.7969"/></g><!--MD5=[b1d71236a8e0f0324c69076c01455084]
class ReportWriter--><g id="elem_ReportWriter"><rect codeLine="75" fill="#F1F1F1" height="48" id="ReportWriter" rx="2.5" ry="2.5" style="stroke:#181818;stroke-width:0.5;" width="129" x="1606.5" y="84.7969"/><ellipse cx="1621.5" cy="100.7969" fill="#ADD1B2" rx="11" ry="11" style="stroke:#181818;stroke-width:1.0;"/><path d="M1623.8438,96.4688 C1622.9063,96.0313 1622.3125,95.8906 1621.4375,95.8906 C1618.8125,95.8906 1616.8125,97.9688 1616.8125,100.6875 L1616.8125,101.8125 C1616.8125,104.3906 1618.9219,106.2813 1621.8125,106.2813 C1623.0313,106.2813 1624.1875,105.9844 1624.9375,105.4375 C1625.5156,105.0313 1625.8438,104.5781 1625.8438,104.1875 C1625.8438,103.7344 1625.4531,103.3438 1624.9844,103.3438 C1624.7656,103.3438 1624.5625,103.4219 1624.375,103.6094 C1623.9219,104.0938 1623.9219,104.0938 1623.7344,104.1875 C1623.3125,104.4531 1622.625,104.5781 1621.8594,104.5781 C1619.8125,104.5781 1618.5156,103.4844 1618.5156,101.7813 L1618.5156,100.6875 C1618.5156,98.9063 1619.7656,97.5938 1621.5,97.5938 C1622.0781,97.5938 1622.6875,97.75 1623.1563,98 C1623.6406,98.2813 1623.8125,98.5 1623.9063,98.9063 C1623.9688,99.3125 1624,99.4375 1624.1406,99.5625 C1624.2813,99.7031 1624.5156,99.8125 1624.7344,99.8125 C1625,99.8125 1625.2656,99.6719 1625.4375,99.4531 C1625.5469,99.2969 1625.5781,99.1094 1625.5781,98.6875 L1625.5781,97.2656 C1625.5781,96.8281 1625.5625,96.7031 1625.4688,96.5469 C1625.3125,96.2813 1625.0313,96.1406 1624.7344,96.1406 C1624.4375,96.1406 1624.2344,96.2344 1624.0156,96.5469 L1623.8438,96.4688 Z " fill="#000000"/><text fill="#000000" font-family="sans-serif" font-size="14" lengthAdjust="spacing" textLength="97" x="1635.5" y="105.6436">ReportWriter</text><line style="stroke:#181818;stroke-width:0.5;" x1="1607.5" x2="1734.5" y1="116.7969" y2="116.7969"/><line style="stroke:#181818;stroke-width:0.5;" x1="1607.5" x2="1734.5" y1="124.7969" y2="124.7969"/></g><!--MD5=[c174e74861e59bb18ea4e9964ccb306e]
class ExcelWriter--><g id="elem_ExcelWriter"><rect codeLine="79" fill="#F1F1F1" height="48" id="ExcelWriter" rx="2.5" ry="2.5" style="stroke:#181818;stroke-width:0.5;" width="116" x="1464" y="273.7969"/><ellipse cx="1479" cy="289.7969" fill="#ADD1B2" rx="11" ry="11" style="stroke:#181818;stroke-width:1.0;"/><path d="M1481.3438,285.4688 C1480.4063,285.0313 1479.8125,284.8906 1478.9375,284.8906 C1476.3125,284.8906 1474.3125,286.9688 1474.3125,289.6875 L1474.3125,290.8125 C1474.3125,293.3906 1476.4219,295.2813 1479.3125,295.2813 C1480.5313,295.2813 1481.6875,294.9844 1482.4375,294.4375 C1483.0156,294.0313 1483.3438,293.5781 1483.3438,293.1875 C1483.3438,292.7344 1482.9531,292.3438 1482.4844,292.3438 C1482.2656,292.3438 1482.0625,292.4219 1481.875,292.6094 C1481.4219,293.0938 1481.4219,293.0938 1481.2344,293.1875 C1480.8125,293.4531 1480.125,293.5781 1479.3594,293.5781 C1477.3125,293.5781 1476.0156,292.4844 1476.0156,290.7813 L1476.0156,289.6875 C1476.0156,287.9063 1477.2656,286.5938 1479,286.5938 C1479.5781,286.5938 1480.1875,286.75 1480.6563,287 C1481.1406,287.2813 1481.3125,287.5 1481.4063,287.9063 C1481.4688,288.3125 1481.5,288.4375 1481.6406,288.5625 C1481.7813,288.7031 1482.0156,288.8125 1482.2344,288.8125 C1482.5,288.8125 1482.7656,288.6719 1482.9375,288.4531 C1483.0469,288.2969 1483.0781,288.1094 1483.0781,287.6875 L1483.0781,286.2656 C1483.0781,285.8281 1483.0625,285.7031 1482.9688,285.5469 C1482.8125,285.2813 1482.5313,285.1406 1482.2344,285.1406 C1481.9375,285.1406 1481.7344,285.2344 1481.5156,285.5469 L1481.3438,285.4688 Z " fill="#000000"/><text fill="#000000" font-family="sans-serif" font-size="14" lengthAdjust="spacing" textLength="84" x="1493" y="294.6436">ExcelWriter</text><line style="stroke:#181818;stroke-width:0.5;" x1="1465" x2="1579" y1="305.7969" y2="305.7969"/><line style="stroke:#181818;stroke-width:0.5;" x1="1465" x2="1579" y1="313.7969" y2="313.7969"/></g><!--MD5=[1e45380920adb9e0da633e09815b8bbd]
class JSONWriter--><g id="elem_JSONWriter"><rect codeLine="83" fill="#F1F1F1" height="48" id="JSONWriter" rx="2.5" ry="2.5" style="stroke:#181818;stroke-width:0.5;" width="112" x="1615" y="273.7969"/><ellipse cx="1630" cy="289.7969" fill="#ADD1B2" rx="11" ry="11" style="stroke:#181818;stroke-width:1.0;"/><path d="M1632.3438,285.4688 C1631.4063,285.0313 1630.8125,284.8906 1629.9375,284.8906 C1627.3125,284.8906 1625.3125,286.9688 1625.3125,289.6875 L1625.3125,290.8125 C1625.3125,293.3906 1627.4219,295.2813 1630.3125,295.2813 C1631.5313,295.2813 1632.6875,294.9844 1633.4375,294.4375 C1634.0156,294.0313 1634.3438,293.5781 1634.3438,293.1875 C1634.3438,292.7344 1633.9531,292.3438 1633.4844,292.3438 C1633.2656,292.3438 1633.0625,292.4219 1632.875,292.6094 C1632.4219,293.0938 1632.4219,293.0938 1632.2344,293.1875 C1631.8125,293.4531 1631.125,293.5781 1630.3594,293.5781 C1628.3125,293.5781 1627.0156,292.4844 1627.0156,290.7813 L1627.0156,289.6875 C1627.0156,287.9063 1628.2656,286.5938 1630,286.5938 C1630.5781,286.5938 1631.1875,286.75 1631.6563,287 C1632.1406,287.2813 1632.3125,287.5 1632.4063,287.9063 C1632.4688,288.3125 1632.5,288.4375 1632.6406,288.5625 C1632.7813,288.7031 1633.0156,288.8125 1633.2344,288.8125 C1633.5,288.8125 1633.7656,288.6719 1633.9375,288.4531 C1634.0469,288.2969 1634.0781,288.1094 1634.0781,287.6875 L1634.0781,286.2656 C1634.0781,285.8281 1634.0625,285.7031 1633.9688,285.5469 C1633.8125,285.2813 1633.5313,285.1406 1633.2344,285.1406 C1632.9375,285.1406 1632.7344,285.2344 1632.5156,285.5469 L1632.3438,285.4688 Z " fill="#000000"/><text fill="#000000" font-family="sans-serif" font-size="14" lengthAdjust="spacing" textLength="80" x="1644" y="294.6436">JSONWriter</text><line style="stroke:#181818;stroke-width:0.5;" x1="1616" x2="1726" y1="305.7969" y2="305.7969"/><line style="stroke:#181818;stroke-width:0.5;" x1="1616" x2="1726" y1="313.7969" y2="313.7969"/></g><!--MD5=[52212348725bd98b317369cba209c9f9]
class TextWriter--><g id="elem_TextWriter"><rect codeLine="87" fill="#F1F1F1" height="48" id="TextWriter" rx="2.5" ry="2.5" style="stroke:#181818;stroke-width:0.5;" width="111" x="1762.5" y="273.7969"/><ellipse cx="1777.5" cy="289.7969" fill="#ADD1B2" rx="11" ry="11" style="stroke:#181818;stroke-width:1.0;"/><path d="M1779.8438,285.4688 C1778.9063,285.0313 1778.3125,284.8906 1777.4375,284.8906 C1774.8125,284.8906 1772.8125,286.9688 1772.8125,289.6875 L1772.8125,290.8125 C1772.8125,293.3906 1774.9219,295.2813 1777.8125,295.2813 C1779.0313,295.2813 1780.1875,294.9844 1780.9375,294.4375 C1781.5156,294.0313 1781.8438,293.5781 1781.8438,293.1875 C1781.8438,292.7344 1781.4531,292.3438 1780.9844,292.3438 C1780.7656,292.3438 1780.5625,292.4219 1780.375,292.6094 C1779.9219,293.0938 1779.9219,293.0938 1779.7344,293.1875 C1779.3125,293.4531 1778.625,293.5781 1777.8594,293.5781 C1775.8125,293.5781 1774.5156,292.4844 1774.5156,290.7813 L1774.5156,289.6875 C1774.5156,287.9063 1775.7656,286.5938 1777.5,286.5938 C1778.0781,286.5938 1778.6875,286.75 1779.1563,287 C1779.6406,287.2813 1779.8125,287.5 1779.9063,287.9063 C1779.9688,288.3125 1780,288.4375 1780.1406,288.5625 C1780.2813,288.7031 1780.5156,288.8125 1780.7344,288.8125 C1781,288.8125 1781.2656,288.6719 1781.4375,288.4531 C1781.5469,288.2969 1781.5781,288.1094 1781.5781,287.6875 L1781.5781,286.2656 C1781.5781,285.8281 1781.5625,285.7031 1781.4688,285.5469 C1781.3125,285.2813 1781.0313,285.1406 1780.7344,285.1406 C1780.4375,285.1406 1780.2344,285.2344 1780.0156,285.5469 L1779.8438,285.4688 Z " fill="#000000"/><text fill="#000000" font-family="sans-serif" font-size="14" lengthAdjust="spacing" textLength="79" x="1791.5" y="294.6436">TextWriter</text><line style="stroke:#181818;stroke-width:0.5;" x1="1763.5" x2="1872.5" y1="305.7969" y2="305.7969"/><line style="stroke:#181818;stroke-width:0.5;" x1="1763.5" x2="1872.5" y1="313.7969" y2="313.7969"/></g><!--MD5=[9f4a99a89d83c720f0a7a49f17160e7c]
reverse link Resource to Anchor--><g id="link_Resource_Anchor"><path codeLine="91" d="M995.386,161.1809 C965.914,182.3569 932.449,207.8659 904,233.2969 C889.976,245.8329 875.58,261.2669 864.52,273.779 " fill="none" id="Resource-backto-Anchor" style="stroke:#181818;stroke-width:1.0;"/><polygon fill="none" points="991.387,155.4349,1011.75,149.5689,999.49,166.8519,991.387,155.4349" style="stroke:#181818;stroke-width:1.0;"/></g><!--MD5=[719c70d5e1279dfb8712711ae9c3c9f3]
reverse link Resource to Image--><g id="link_Resource_Image"><path codeLine="92" d="M1037.16,166.8029 C1015.84,202.7219 989.462,247.1629 973.722,273.6795 " fill="none" id="Resource-backto-Image" style="stroke:#181818;stroke-width:1.0;"/><polygon fill="none" points="1031.23,163.0799,1047.46,149.4549,1043.27,170.2259,1031.23,163.0799" style="stroke:#181818;stroke-width:1.0;"/></g><!--MD5=[08653377d56acf693c8ea5fc5fa21c2e]
reverse link Resource to Script--><g id="link_Resource_Script"><path codeLine="93" d="M1071,169.7739 C1071,205.1429 1071,247.8899 1071,273.6795 " fill="none" id="Resource-backto-Script" style="stroke:#181818;stroke-width:1.0;"/><polygon fill="none" points="1064,169.4549,1071,149.4549,1078,169.4549,1064,169.4549" style="stroke:#181818;stroke-width:1.0;"/></g><!--MD5=[7eb5579bb1e5de3e3500d453a491cc68]
reverse link Resource to Stylesheet--><g id="link_Resource_Stylesheet"><path codeLine="94" d="M1109.68,166.3109 C1134.33,202.3159 1164.94,247.0419 1183.18,273.6795 " fill="none" id="Resource-backto-Stylesheet" style="stroke:#181818;stroke-width:1.0;"/><polygon fill="none" points="1103.67,169.9129,1098.15,149.4549,1115.22,162.0049,1103.67,169.9129" style="stroke:#181818;stroke-width:1.0;"/></g><!--MD5=[7a767de6888c9cb7bc1fc08ca2f140cf]
reverse link Resource to OtherResource--><g id="link_Resource_OtherResource"><path codeLine="95" d="M1155.12,159.8919 C1191.17,181.8399 1233.53,208.2569 1271,233.2969 C1290.27,246.1729 1311.33,261.3349 1328.02,273.6136 " fill="none" id="Resource-backto-OtherResource" style="stroke:#181818;stroke-width:1.0;"/><polygon fill="none" points="1151.45,165.8539,1137.97,149.5029,1158.7,153.8809,1151.45,165.8539" style="stroke:#181818;stroke-width:1.0;"/></g><!--MD5=[6b75cd9725488452eb6e7f65272e60d9]
reverse link ReportWriter to ExcelWriter--><g id="link_ReportWriter_ExcelWriter"><path codeLine="99" d="M1639.94,148.7829 C1609.82,186.5749 1565.16,242.6259 1540.34,273.785 " fill="none" id="ReportWriter-backto-ExcelWriter" style="stroke:#181818;stroke-width:1.0;"/><polygon fill="none" points="1634.49,144.3819,1652.43,133.1029,1645.44,153.1069,1634.49,144.3819" style="stroke:#181818;stroke-width:1.0;"/></g><!--MD5=[3a01cb5e43ff8fab2145c420d9725fe7]
reverse link ReportWriter to JSONWriter--><g id="link_ReportWriter_JSONWriter"><path codeLine="100" d="M1671,153.1919 C1671,190.8209 1671,243.8159 1671,273.785 " fill="none" id="ReportWriter-backto-JSONWriter" style="stroke:#181818;stroke-width:1.0;"/><polygon fill="none" points="1664,153.1029,1671,133.1029,1678,153.1029,1664,153.1029" style="stroke:#181818;stroke-width:1.0;"/></g><!--MD5=[714c21ab9ffd54ebeb519b54f5e37187]
reverse link ReportWriter to TextWriter--><g id="link_ReportWriter_TextWriter"><path codeLine="101" d="M1701.85,149.0379 C1731.55,186.8269 1775.47,242.6959 1799.91,273.785 " fill="none" id="ReportWriter-backto-TextWriter" style="stroke:#181818;stroke-width:1.0;"/><polygon fill="none" points="1696.18,153.1519,1689.32,133.1029,1707.18,144.4999,1696.18,153.1519" style="stroke:#181818;stroke-width:1.0;"/></g><!--MD5=[f92983f9253e85900549fc9fe80d4541]
reverse link Website to HTMLDocument--><g id="link_Website_HTMLDocument"><path codeLine="103" d="M478.074,168.5499 C490.998,189.0309 505.558,212.1049 518.729,232.9769 " fill="none" id="Website-backto-HTMLDocument" style="stroke:#181818;stroke-width:1.0;"/><polygon fill="#181818" points="471.082,157.4689,470.9009,164.6777,477.4855,167.6175,477.6666,160.4087,471.082,157.4689" style="stroke:#181818;stroke-width:1.0;"/></g><!--MD5=[58b551701a553d187ad516f0da7361ec]
link DocumentParser to HTMLDocument--><g id="link_DocumentParser_HTMLDocument"><path codeLine="104" d="M701.615,149.4549 C680.727,171.0349 654.221,198.4199 629.742,223.7099 " fill="none" id="DocumentParser-to-HTMLDocument" style="stroke:#181818;stroke-width:1.0;"/><polygon fill="none" points="620.476,233.2829,627.5232,231.754,628.8224,224.6609,621.7752,226.1898,620.476,233.2829" style="stroke:#181818;stroke-width:1.0;"/><text fill="#000000" font-family="sans-serif" font-size="13" lengthAdjust="spacing" textLength="37" x="588.1765" y="222.454">builds</text></g><!--MD5=[9441e43d0b9f17819d12025366640b00]
@startuml
title Classes - Class Diagram

class CLI {

}

class Website {
  Path localPath
  Collection<URL> siteURLs
  Collection<HTMLDocument> allPages
}

Class HTMLDocument {
  Path localPath
  Collection<StyleSheet> styles
  Collection<JavaScript> scripts
  Collection<Anchor> links
  Collection<Image> images

}

class DocumentParser {
    DocumentParser(Path localPath)
    HTMLDocument build()
}

class Resource {
    URI path
    Classification linkType

}

class Anchor {

}

class Image {

}

class Script {

}

class Stylesheet {

}

class OtherResource {

}

enum Classification {
    INTERNAL
    INTRAPAGE
    INTRASITE
    EXTERNAL

    String toString()
}

enum TargetType {
    ARCHIVE
    AUDIO
    VIDEO
    OTHER

    String toString()
}

class WebsiteWalker {

}

class ReportWriter {

}

class ExcelWriter {

}

class JSONWriter {

}

class TextWriter {

}

Resource<|- -Anchor
Resource<|- -Image
Resource<|- -Script
Resource<|- -Stylesheet
Resource<|- -OtherResource



ReportWriter<|- -ExcelWriter
ReportWriter<|- -JSONWriter
ReportWriter<|- -TextWriter

Website *- - HTMLDocument
DocumentParser - -o "builds" HTMLDocument
@enduml

PlantUML version 1.2022.7beta2(Unknown compile time)
(GPL source distribution)
Java Runtime: Java(TM) SE Runtime Environment
JVM: Java HotSpot(TM) 64-Bit Server VM
Default Encoding: UTF-8
Language: en
Country: US
--></g></svg>